0
SECTION
2
HEADER
9
$INSUNITS
70
4
9
$ACADVER
1
AC1014
9
$HANDSEED
5
FFFF
0
ENDSEC
0
SECTION
2
TABLES
0
TABLE
2
VPORT
5
8
100
AcDbSymbolTable
0
ENDTAB
0
TABLE
2
LTYPE
5
5
100
AcDbSymbolTable
0
LTYPE
5
14
100
AcDbSymbolTableRecord
100
AcDbLinetypeTableRecord
2
BYBLOCK
70
0
0
LTYPE
5
15
100
AcDbSymbolTableRecord
100
AcDbLinetypeTableRecord
2
BYLAYER
70
0
0
ENDTAB
0
TABLE
2
LAYER
5
2
100
AcDbSymbolTable
70
2
0
LAYER
5
50
100
AcDbSymbolTableRecord
100
AcDbLayerTableRecord
2
0
70
0
6
CONTINUOUS
0
ENDTAB
0
TABLE
2
STYLE
5
3
100
AcDbSymbolTable
70
1
0
STYLE
5
11
100
AcDbSymbolTableRecord
100
AcDbTextStyleTableRecord
2
STANDARD
70
0
0
ENDTAB
0
TABLE
2
VIEW
5
6
100
AcDbSymbolTable
70
0
0
ENDTAB
0
TABLE
2
UCS
5
7
100
AcDbSymbolTable
70
0
0
ENDTAB
0
TABLE
2
APPID
5
9
100
AcDbSymbolTable
70
2
0
APPID
5
12
100
AcDbSymbolTableRecord
100
AcDbRegAppTableRecord
2
ACAD
70
0
0
ENDTAB
0
TABLE
2
DIMSTYLE
5
A
100
AcDbSymbolTable
70
1
0
ENDTAB
0
TABLE
2
BLOCK_RECORD
5
1
100
AcDbSymbolTable
70
1
0
BLOCK_RECORD
5
1F
100
AcDbSymbolTableRecord
100
AcDbBlockTableRecord
2
*MODEL_SPACE
0
BLOCK_RECORD
5
1B
100
AcDbSymbolTableRecord
100
AcDbBlockTableRecord
2
*PAPER_SPACE
0
ENDTAB
0
ENDSEC
0
SECTION
2
BLOCKS
0
BLOCK
5
20
100
AcDbEntity
100
AcDbBlockBegin
2
*MODEL_SPACE
0
ENDBLK
5
21
100
AcDbEntity
100
AcDbBlockEnd
0
BLOCK
5
1C
100
AcDbEntity
100
AcDbBlockBegin
2
*PAPER_SPACE
0
ENDBLK
5
1D
100
AcDbEntity
100
AcDbBlockEnd
0
ENDSEC
0
SECTION
2
ENTITIES
0
LWPOLYLINE
5
100
100
AcDbEntity
8
0
100
AcDbPolyline
90
3
70
1
43
0.0
10
12.700000000000005
20
21.997045256124743
10
0
20
0
10
25.399999999999999
20
0
0
LINE
5
101
100
AcDbEntity
8
0
100
AcDbLine
10
12.699999999999999
20
0
30
0
11
12.700000000000005
21
21.997045256124743
31
0
0
LINE
5
102
100
AcDbEntity
8
0
100
AcDbLine
10
0
20
0
30
0
11
19.050000000000004
21
10.998522628062375
31
0
0
CIRCLE
5
103
100
AcDbEntity
8
0
100
AcDbCircle
10
12.699999999999761
20
19.45704525612344
30
0
40
0.25
0
CIRCLE
5
104
100
AcDbEntity
8
0
100
AcDbCircle
10
13.680433538032808
20
19.260194862423063
30
0
40
0.25
0
CIRCLE
5
105
100
AcDbEntity
8
0
100
AcDbCircle
10
14.508899573735617
20
18.700155553368027
30
0
40
0.25
0
LINE
5
106
100
AcDbEntity
8
0
100
AcDbLine
10
12.699999999999761
20
19.45704525612344
30
0
11
13.680433538032808
21
19.260194862423063
31
0
0
LINE
5
107
100
AcDbEntity
8
0
100
AcDbLine
10
13.680433538032808
20
19.260194862423063
30
0
11
14.508899573735617
21
18.700155553368027
31
0
0
CIRCLE
5
108
100
AcDbEntity
8
0
100
AcDbCircle
10
15.563949127677967
20
19.036539856694045
30
0
40
1
0
CIRCLE
5
109
100
AcDbEntity
8
0
100
AcDbCircle
10
9.8360508723215609
20
19.036539856693974
30
0
40
1
0
CIRCLE
5
110
100
AcDbEntity
8
0
100
AcDbCircle
10
10.891100426263638
20
18.700155553368372
30
0
40
0.25
0
ARC
5
111
100
AcDbEntity
8
0
100
AcDbCircle
10
12.700000000001046
20
16.917045256123309
30
0
40
2.5400000000000018
100
AcDbArc
50
30.000000000002562
51
149.99999999999565
0
ARC
5
112
100
AcDbEntity
8
0
100
AcDbCircle
10
4.3994090512256641
20
2.5400000000016005
30
0
40
2.539999999999818
100
AcDbArc
50
149.99999999999997
51
269.99999999999949
0
ARC
5
113
100
AcDbEntity
8
0
100
AcDbCircle
10
21.000590948774335
20
2.5400000000016054
30
0
40
2.5400000000016054
100
AcDbArc
50
-89.999999999999503
51
29.999999999999915
0
LINE
5
114
100
AcDbEntity
8
0
100
AcDbLine
10
21.000590948774335
20
2.5400000000016054
30
0
11
6.3500000000000023
21
10.998522628062371
31
0
0
CIRCLE
5
115
100
AcDbEntity
8
0
100
AcDbCircle
10
11.719566461966712
20
19.260194862423042
30
0
40
0.25
0
CIRCLE
5
116
100
AcDbEntity
8
0
100
AcDbCircle
10
3.9958474477883015
20
-1.0000000000003164
30
0
40
1
0
CIRCLE
5
117
100
AcDbEntity
8
0
100
AcDbCircle
10
3.7596400229314666
20
0.081891867627745266
30
0
40
0.25
0
CIRCLE
5
118
100
AcDbEntity
8
0
100
AcDbCircle
10
2.8603987363206702
20
0.51934484619178067
30
0
40
0.25
0
CIRCLE
5
119
100
AcDbEntity
8
0
100
AcDbCircle
10
2.199704525614897
20
1.2700000000001874
30
0
40
0.25
0
CIRCLE
5
120
100
AcDbEntity
8
0
100
AcDbCircle
10
1.879965198287453
20
2.2175055475094356
30
0
40
0.25
0
CIRCLE
5
121
100
AcDbEntity
8
0
100
AcDbCircle
10
1.9507404491950306
20
3.2149978351282287
30
0
40
0.25
0
CIRCLE
5
122
100
AcDbEntity
8
0
100
AcDbCircle
10
1.1318983201096038
20
3.9605053994306139
30
0
40
1
0
CIRCLE
5
123
100
AcDbEntity
8
0
100
AcDbCircle
10
21.404152552212757
20
-1.0000000000001659
30
0
40
1
0
CIRCLE
5
124
100
AcDbEntity
8
0
100
AcDbCircle
10
21.64035997706948
20
0.081891867627921444
30
0
40
0.25
0
CIRCLE
5
125
100
AcDbEntity
8
0
100
AcDbCircle
10
22.539601263680233
20
0.51934484619204557
30
0
40
0.25
0
CIRCLE
5
126
100
AcDbEntity
8
0
100
AcDbCircle
10
23.200295474386277
20
1.2700000000006875
30
0
40
0.25
0
CIRCLE
5
127
100
AcDbEntity
8
0
100
AcDbCircle
10
23.520034801713294
20
2.2175055475097976
30
0
40
0.25
0
CIRCLE
5
128
100
AcDbEntity
8
0
100
AcDbCircle
10
23.449259550805603
20
3.2149978351285813
30
0
40
0.25
0
CIRCLE
5
129
100
AcDbEntity
8
0
100
AcDbCircle
10
24.268101679890869
20
3.9605053994309976
30
0
40
1
0
LINE
5
130
100
AcDbEntity
8
0
100
AcDbLine
10
25.134127083675306
20
4.4605053994309971
30
0
11
16.429974531462406
21
19.536539856694045
31
0
0
LINE
5
131
100
AcDbEntity
8
0
100
AcDbLine
10
21.404152552214196
20
-1.9999999999983822
30
0
11
3.9958474477884085
21
-2.0000000000003175
31
0
0
LINE
5
132
100
AcDbEntity
8
0
100
AcDbLine
10
8.9700254685393848
20
19.536539856694322
30
0
11
0.2658729163249976
21
4.4605053994321375
31
0
0
LINE
5
133
100
AcDbEntity
8
0
100
AcDbLine
10
3.9958474477883015
20
-1.0000000000003164
30
0
11
21.404152552212757
21
-1.0000000000001659
31
0
0
LINE
5
134
100
AcDbEntity
8
0
100
AcDbLine
10
24.268101679890869
20
3.9605053994309976
30
0
11
15.563949127677967
21
19.036539856694045
31
0
0
LINE
5
135
100
AcDbEntity
8
0
100
AcDbLine
10
9.8360508723215609
20
19.036539856693974
30
0
11
1.1318983201096038
21
3.9605053994306139
31
0
0
LINE
5
136
100
AcDbEntity
8
0
100
AcDbLine
10
10.702076276105227
20
18.536539856696205
30
0
11
1.9979237238955008
21
3.4605053994313248
31
0
0
LINE
5
137
100
AcDbEntity
8
0
100
AcDbLine
10
21.404152552214182
20
-1.9500996963949128e-12
30
0
11
3.9958474477883907
21
-3.1610194779190618e-13
31
0
0
LINE
5
138
100
AcDbEntity
8
0
100
AcDbLine
10
23.402076276106424
20
3.4605053994309936
30
0
11
14.697923723893521
21
18.536539856694041
31
0
0
CIRCLE
5
139
100
AcDbEntity
8
0
100
AcDbCircle
10
12.699999999999974
20
23.997045256124721
30
0
40
1
0
LWPOLYLINE
5
140
100
AcDbEntity
8
0
100
AcDbPolyline
90
4
70
1
43
0.0
10
39.099999999999994
20
-31.939999999999991
10
13.700000000000001
20
-31.939999999999991
10
13.700000000000001
20
-6.54
10
39.099999999999994
20
-6.5399999999999991
0
LINE
5
141
100
AcDbEntity
8
0
100
AcDbLine
10
26.399999999999999
20
-6.54
30
0
11
26.399999999999999
21
-31.939999999999991
31
0
0
LINE
5
142
100
AcDbEntity
8
0
100
AcDbLine
10
13.700000000000001
20
-19.239999999999995
30
0
11
39.099999999999994
21
-19.239999999999995
31
0
0
ARC
5
143
100
AcDbEntity
8
0
100
AcDbCircle
10
16.240000000000002
20
-9.0800000000000036
30
0
40
2.5400000000000036
100
AcDbArc
50
90
51
180
0
ARC
5
144
100
AcDbEntity
8
0
100
AcDbCircle
10
36.559999999999995
20
-9.0799999999999983
30
0
40
2.5399999999999956
100
AcDbArc
50
0
51
90
0
ARC
5
145
100
AcDbEntity
8
0
100
AcDbCircle
10
16.240000000000002
20
-29.399999999999991
30
0
40
2.54
100
AcDbArc
50
180
51
270
0
ARC
5
146
100
AcDbEntity
8
0
100
AcDbCircle
10
36.559999999999995
20
-29.399999999999991
30
0
40
2.5399999999999956
100
AcDbArc
50
-90
51
0
0
CIRCLE
5
147
100
AcDbEntity
8
0
100
AcDbCircle
10
14.44394877578617
20
-7.2839487757861709
30
0
40
0.25
0
CIRCLE
5
148
100
AcDbEntity
8
0
100
AcDbCircle
10
15.276414227297073
20
-6.7298718208054042
30
0
40
0.25
0
CIRCLE
5
149
100
AcDbEntity
8
0
100
AcDbCircle
10
16.258223114842934
20
-6.54
30
0
40
0.25
0
LINE
5
150
100
AcDbEntity
8
0
100
AcDbLine
10
14.44394877578617
20
-7.2839487757861709
30
0
11
15.276414227297073
21
-6.7298718208054042
31
0
0
LINE
5
151
100
AcDbEntity
8
0
100
AcDbLine
10
15.276414227297073
20
-6.7298718208054042
30
0
11
16.258223114842934
21
-6.54
31
0
0
CIRCLE
5
152
100
AcDbEntity
8
0
100
AcDbCircle
10
16.508223100263223
20
-5.5400000000000009
30
0
40
1
0
CIRCLE
5
153
100
AcDbEntity
8
0
100
AcDbCircle
10
36.291776899736774
20
-5.5400000000000009
30
0
40
1
0
CIRCLE
5
154
100
AcDbEntity
8
0
100
AcDbCircle
10
36.541776885157063
20
-6.54
30
0
40
0.25
0
CIRCLE
5
155
100
AcDbEntity
8
0
100
AcDbCircle
10
37.523585772702916
20
-6.7298718208054034
30
0
40
0.25
0
CIRCLE
5
156
100
AcDbEntity
8
0
100
AcDbCircle
10
38.356051224213822
20
-7.2839487757861709
30
0
40
0.25
0
LINE
5
157
100
AcDbEntity
8
0
100
AcDbLine
10
16.240000000000002
20
-29.399999999999991
30
0
11
36.559999999999995
21
-9.0799999999999983
31
0
0
LINE
5
158
100
AcDbEntity
8
0
100
AcDbLine
10
16.508223100263223
20
-5.5400000000000009
30
0
11
36.291776899736774
21
-5.5400000000000009
31
0
0
LINE
5
159
100
AcDbEntity
8
0
100
AcDbLine
10
16.508223100263223
20
-4.5400000000000009
30
0
11
36.291776899736774
21
-4.5400000000000009
31
0
0
LINE
5
160
100
AcDbEntity
8
0
100
AcDbLine
10
16.508223100263223
20
-6.54
30
0
11
36.291776899736774
21
-6.54
31
0
0
LINE
5
161
100
AcDbEntity
8
0
100
AcDbLine
10
41.099999999999994
20
-29.131776899736764
30
0
11
41.099999999999987
21
-9.3482231002632172
31
0
0
CIRCLE
5
162
100
AcDbEntity
8
0
100
AcDbCircle
10
40.099999999999987
20
-29.131776899736764
30
0
40
1
0
LINE
5
163
100
AcDbEntity
8
0
100
AcDbLine
10
40.099999999999994
20
-29.13177689973676
30
0
11
40.099999999999994
21
-9.3482231002632137
31
0
0
LINE
5
164
100
AcDbEntity
8
0
100
AcDbLine
10
39.099999999999994
20
-29.131776899736771
30
0
11
39.099999999999994
21
-9.3482231002632119
31
0
0
CIRCLE
5
165
100
AcDbEntity
8
0
100
AcDbCircle
10
40.09999999999998
20
-9.3482231002632208
30
0
40
1
0
CIRCLE
5
166
100
AcDbEntity
8
0
100
AcDbCircle
10
38.356051224213822
20
-31.196051224213825
30
0
40
0.25
0
CIRCLE
5
167
100
AcDbEntity
8
0
100
AcDbCircle
10
38.910128179194587
20
-30.363585772702919
30
0
40
0.25
0
CIRCLE
5
168
100
AcDbEntity
8
0
100
AcDbCircle
10
39.099999999999987
20
-29.381776885157052
30
0
40
0.25
0
CIRCLE
5
169
100
AcDbEntity
8
0
100
AcDbCircle
10
39.09999999999998
20
-9.0982231148429253
30
0
40
0.25
0
CIRCLE
5
170
100
AcDbEntity
8
0
100
AcDbCircle
10
38.910128179194587
20
-8.116414227297069
30
0
40
0.25
0
CIRCLE
5
171
100
AcDbEntity
8
0
100
AcDbCircle
10
38.356051224213836
20
-7.2839487757861798
30
0
40
0.25
0
LINE
5
172
100
AcDbEntity
8
0
100
AcDbLine
10
36.559999999999995
20
-29.399999999999991
30
0
11
16.239999999999995
21
-9.0800000000000036
31
0
0
CIRCLE
5
173
100
AcDbEntity
8
0
100
AcDbCircle
10
13.889871820805411
20
-8.116414227297069
30
0
40
0.25
0
CIRCLE
5
174
100
AcDbEntity
8
0
100
AcDbCircle
10
13.699999999999999
20
-9.0982231148429289
30
0
40
0.25
0
CIRCLE
5
175
100
AcDbEntity
8
0
100
AcDbCircle
10
12.700000000000003
20
-9.3482231002632172
30
0
40
1
0
LINE
5
176
100
AcDbEntity
8
0
100
AcDbLine
10
12.700000000000003
20
-9.3482231002632208
30
0
11
12.700000000000003
21
-29.131776899736771
31
0
0
LINE
5
177
100
AcDbEntity
8
0
100
AcDbLine
10
11.700000000000001
20
-9.348223100263219
30
0
11
11.700000000000006
21
-29.131776899736771
31
0
0
CIRCLE
5
178
100
AcDbEntity
8
0
100
AcDbCircle
10
12.700000000000005
20
-29.131776899736774
30
0
40
1
0
CIRCLE
5
179
100
AcDbEntity
8
0
100
AcDbCircle
10
13.700000000000003
20
-29.381776885157059
30
0
40
0.25
0
CIRCLE
5
180
100
AcDbEntity
8
0
100
AcDbCircle
10
13.889871820805402
20
-30.363585772702912
30
0
40
0.25
0
CIRCLE
5
181
100
AcDbEntity
8
0
100
AcDbCircle
10
14.44394877578617
20
-31.196051224213832
30
0
40
0.25
0
CIRCLE
5
182
100
AcDbEntity
8
0
100
AcDbCircle
10
15.276414227297073
20
-31.750128179194586
30
0
40
0.25
0
CIRCLE
5
183
100
AcDbEntity
8
0
100
AcDbCircle
10
16.258223114842927
20
-31.939999999999976
30
0
40
0.25
0
CIRCLE
5
184
100
AcDbEntity
8
0
100
AcDbCircle
10
16.508223100263223
20
-32.939999999999991
30
0
40
1
0
LINE
5
185
100
AcDbEntity
8
0
100
AcDbLine
10
36.291776899736767
20
-33.939999999999991
30
0
11
16.508223100263226
21
-33.939999999999991
31
0
0
LINE
5
186
100
AcDbEntity
8
0
100
AcDbLine
10
36.29177689973676
20
-32.939999999999984
30
0
11
16.508223100263212
21
-32.939999999999991
31
0
0
CIRCLE
5
187
100
AcDbEntity
8
0
100
AcDbCircle
10
36.29177689973676
20
-32.939999999999976
30
0
40
1
0
LINE
5
188
100
AcDbEntity
8
0
100
AcDbLine
10
36.291776899736774
20
-31.939999999999994
30
0
11
16.508223100263219
21
-31.939999999999994
31
0
0
CIRCLE
5
189
100
AcDbEntity
8
0
100
AcDbCircle
10
36.541776885157056
20
-31.939999999999984
30
0
40
0.25
0
CIRCLE
5
190
100
AcDbEntity
8
0
100
AcDbCircle
10
37.523585772702916
20
-31.750128179194583
30
0
40
0.25
0
LINE
5
191
100
AcDbEntity
8
0
100
AcDbLine
10
13.700000000000003
20
-9.3482231002632208
30
0
11
13.699999999999999
21
-29.131776899736771
31
0
0
LINE
5
192
100
AcDbEntity
8
0
100
AcDbLine
10
25.40000000000002
20
56.534090512249477
30
0
11
38.100000000000001
21
78.531135768374213
31
0
0
LINE
5
193
100
AcDbEntity
8
0
100
AcDbLine
10
7.4014868308343822e-15
20
56.534090512249477
30
0
11
25.40000000000002
21
56.534090512249477
31
0
0
LINE
5
194
100
AcDbEntity
8
0
100
AcDbLine
10
38.100000000000001
20
78.531135768374213
30
0
11
25.399999999999984
21
100.52818102449892
31
0
0
CIRCLE
5
195
100
AcDbEntity
8
0
100
AcDbCircle
10
12.700000000000014
20
78.531135768374213
30
0
40
1.905
0
LINE
5
196
100
AcDbEntity
8
0
100
AcDbLine
10
-12.699999999999962
20
78.531135768374213
30
0
11
7.4014868308343822e-15
21
56.534090512249477
31
0
0
LINE
5
197
100
AcDbEntity
8
0
100
AcDbLine
10
25.399999999999984
20
100.52818102449892
30
0
11
3.0260716077202616e-14
21
100.52818102449893
31
0
0
LINE
5
198
100
AcDbEntity
8
0
100
AcDbLine
10
3.0260716077202616e-14
20
100.52818102449893
30
0
11
-12.699999999999962
21
78.531135768374213
31
0
0
LINE
5
199
100
AcDbEntity
8
0
100
AcDbLine
10
7.4014868308343822e-15
20
56.534090512249477
30
0
11
0
21
0
31
0
0
LINE
5
200
100
AcDbEntity
8
0
100
AcDbLine
10
7.4014868308343822e-15
20
56.534090512249477
30
0
11
12.700000000000014
21
78.531135768374213
31
0
0
CIRCLE
5
201
100
AcDbEntity
8
0
100
AcDbCircle
10
0.29470452561248361
20
57.044533723830781
30
0
40
0.25
0
CIRCLE
5
202
100
AcDbEntity
8
0
100
AcDbCircle
10
1.2188568833470115
20
56.662509615044812
30
0
40
0.25
0
CIRCLE
5
203
100
AcDbEntity
8
0
100
AcDbCircle
10
2.2105768710639282
20
56.534090512249477
30
0
40
0.25
0
LINE
5
204
100
AcDbEntity
8
0
100
AcDbLine
10
0.29470452561248361
20
57.044533723830781
30
0
11
1.2188568833470115
21
56.662509615044812
31
0
0
LINE
5
205
100
AcDbEntity
8
0
100
AcDbLine
10
1.2188568833470115
20
56.662509615044812
30
0
11
2.2105768710639282
21
56.534090512249477
31
0
0
CIRCLE
5
206
100
AcDbEntity
8
0
100
AcDbCircle
10
2.4605766845484709
20
55.534090512249477
30
0
40
1
0
ARC
5
207
100
AcDbEntity
8
0
100
AcDbCircle
10
2.1997045256124679
20
60.34409051224948
30
0
40
3.8100000000000103
100
AcDbArc
50
209.99999999999991
51
273.92373344646495
0
LINE
5
208
100
AcDbEntity
8
0
100
AcDbLine
10
12.70000000000001
20
56.534090512249477
30
0
11
12.700000000000014
21
78.531135768374213
31
0
0
CIRCLE
5
209
100
AcDbEntity
8
0
100
AcDbCircle
10
22.939423315451542
20
55.53409051224947
30
0
40
1
0
CIRCLE
5
210
100
AcDbEntity
8
0
100
AcDbCircle
10
23.189423128936081
20
56.53409051224947
30
0
40
0.25
0
CIRCLE
5
211
100
AcDbEntity
8
0
100
AcDbCircle
10
24.181143116652994
20
56.662509615044797
30
0
40
0.25
0
CIRCLE
5
212
100
AcDbEntity
8
0
100
AcDbCircle
10
25.105295474387546
20
57.044533723830746
30
0
40
0.25
0
ARC
5
213
100
AcDbEntity
8
0
100
AcDbCircle
10
23.20029547438752
20
60.344090512249451
30
0
40
3.8100000000000103
100
AcDbArc
50
266.07626655353539
51
330.00000000000068
0
LINE
5
214
100
AcDbEntity
8
0
100
AcDbLine
10
2.4605766845484709
20
54.534090512249485
30
0
11
22.939423315451542
21
54.534090512249477
31
0
0
LINE
5
215
100
AcDbEntity
8
0
100
AcDbLine
10
22.939423315451542
20
55.53409051224947
30
0
11
2.4605766845484709
21
55.534090512249477
31
0
0
LINE
5
216
100
AcDbEntity
8
0
100
AcDbLine
10
2.4605766845484718
20
56.534090512249477
30
0
11
22.939423315451538
21
56.53409051224947
31
0
0
LINE
5
217
100
AcDbEntity
8
0
100
AcDbLine
10
28.362339149843091
20
57.665012429028131
30
0
11
38.601762465294641
21
75.400213851595538
31
0
0
LINE
5
218
100
AcDbEntity
8
0
100
AcDbLine
10
37.7357370615102
20
75.900213851595538
30
0
11
27.496313746058657
21
58.165012429028131
31
0
0
CIRCLE
5
219
100
AcDbEntity
8
0
100
AcDbCircle
10
27.496313746058657
20
58.165012429028138
30
0
40
1
0
CIRCLE
5
220
100
AcDbEntity
8
0
100
AcDbCircle
10
37.7357370615102
20
75.900213851595538
30
0
40
1
0
CIRCLE
5
221
100
AcDbEntity
8
0
100
AcDbCircle
10
36.994711564468041
20
76.616720041014531
30
0
40
0.25
0
CIRCLE
5
222
100
AcDbEntity
8
0
100
AcDbCircle
10
37.379357352974544
20
77.539784295215838
30
0
40
0.25
0
CIRCLE
5
223
100
AcDbEntity
8
0
100
AcDbCircle
10
26.505288435531959
20
58.448506239609145
30
0
40
0.25
0
CIRCLE
5
224
100
AcDbEntity
8
0
100
AcDbCircle
10
25.898214236321529
20
57.653861088203158
30
0
40
0.25
0
CIRCLE
5
225
100
AcDbEntity
8
0
100
AcDbCircle
10
25.105295474387521
20
57.044533723830746
30
0
40
0.25
0
ARC
5
226
100
AcDbEntity
8
0
100
AcDbCircle
10
23.200295474387506
20
60.344090512249444
30
0
40
3.8100000000000023
100
AcDbArc
50
270
51
333.92373344646506
0
CIRCLE
5
227
100
AcDbEntity
8
0
100
AcDbCircle
10
37.510590948775068
20
78.531135768374199
30
0
40
0.25
0
ARC
5
228
100
AcDbEntity
8
0
100
AcDbCircle
10
33.700590948775066
20
78.531135768374213
30
0
40
3.8100000000000041
100
AcDbArc
50
-33.923733446465256
51
30.000000000000234
0
LINE
5
229
100
AcDbEntity
8
0
100
AcDbLine
10
26.630288342274223
20
58.665012429028131
30
0
11
36.869711657725773
21
76.400213851595538
31
0
0
LINE
5
230
100
AcDbEntity
8
0
100
AcDbLine
10
38.601762465294634
20
81.662057685152831
30
0
11
28.362339149843116
21
99.397259107720259
31
0
0
LINE
5
231
100
AcDbEntity
8
0
100
AcDbLine
10
27.496313746058682
20
98.897259107720259
30
0
11
37.7357370615102
21
81.162057685152845
31
0
0
CIRCLE
5
232
100
AcDbEntity
8
0
100
AcDbCircle
10
37.735737061510207
20
81.162057685152845
30
0
40
1
0
CIRCLE
5
233
100
AcDbEntity
8
0
100
AcDbCircle
10
27.496313746058686
20
98.897259107720274
30
0
40
1
0
CIRCLE
5
234
100
AcDbEntity
8
0
100
AcDbCircle
10
26.50528843553197
20
98.613765297139253
30
0
40
0.25
0
CIRCLE
5
235
100
AcDbEntity
8
0
100
AcDbCircle
10
25.898214236321554
20
99.408410448545212
30
0
40
0.25
0
CIRCLE
5
236
100
AcDbEntity
8
0
100
AcDbCircle
10
36.994711564468034
20
80.445551495733852
30
0
40
0.25
0
CIRCLE
5
237
100
AcDbEntity
8
0
100
AcDbCircle
10
37.379357352974544
20
79.522487241532559
30
0
40
0.25
0
CIRCLE
5
238
100
AcDbEntity
8
0
100
AcDbCircle
10
37.510590948775075
20
78.531135768374185
30
0
40
0.25
0
ARC
5
239
100
AcDbEntity
8
0
100
AcDbCircle
10
33.700590948775073
20
78.53113576837417
30
0
40
3.8099999999999969
100
AcDbArc
50
-30.000000000000014
51
33.923733446464837
0
CIRCLE
5
240
100
AcDbEntity
8
0
100
AcDbCircle
10
25.105295474387539
20
100.01773781291767
30
0
40
0.25
0
ARC
5
241
100
AcDbEntity
8
0
100
AcDbCircle
10
23.200295474387552
20
96.718181024498932
30
0
40
3.8099999999999872
100
AcDbArc
50
26.07626655353523
51
90.000000000000796
0
LINE
5
242
100
AcDbEntity
8
0
100
AcDbLine
10
36.869711657725766
20
80.662057685152831
30
0
11
26.630288342274238
21
98.397259107720259
31
0
0
LINE
5
243
100
AcDbEntity
8
0
100
AcDbLine
10
22.939423315451556
20
102.52818102449892
30
0
11
2.4605766845484824
21
102.52818102449892
31
0
0
LINE
5
244
100
AcDbEntity
8
0
100
AcDbLine
10
2.4605766845484869
20
101.52818102449896
30
0
11
22.939423315451556
21
101.52818102449892
31
0
0
CIRCLE
5
245
100
AcDbEntity
8
0
100
AcDbCircle
10
22.939423315451556
20
101.52818102449891
30
0
40
1
0
CIRCLE
5
246
100
AcDbEntity
8
0
100
AcDbCircle
10
2.4605766845484869
20
101.52818102449896
30
0
40
1
0
CIRCLE
5
247
100
AcDbEntity
8
0
100
AcDbCircle
10
2.2105768710639397
20
100.52818102449893
30
0
40
0.25
0
CIRCLE
5
248
100
AcDbEntity
8
0
100
AcDbCircle
10
1.2188568833470264
20
100.39976192170359
30
0
40
0.25
0
CIRCLE
5
249
100
AcDbEntity
8
0
100
AcDbCircle
10
23.189423128936095
20
100.52818102449892
30
0
40
0.25
0
CIRCLE
5
250
100
AcDbEntity
8
0
100
AcDbCircle
10
24.181143116653011
20
100.3997619217036
30
0
40
0.25
0
CIRCLE
5
251
100
AcDbEntity
8
0
100
AcDbCircle
10
25.105295474387553
20
100.01773781291763
30
0
40
0.25
0
ARC
5
252
100
AcDbEntity
8
0
100
AcDbCircle
10
23.200295474387588
20
96.71818102449889
30
0
40
3.810000000000012
100
AcDbArc
50
30.000000000000718
51
93.923733446465349
0
CIRCLE
5
253
100
AcDbEntity
8
0
100
AcDbCircle
10
0.29470452561248012
20
100.01773781291763
30
0
40
0.25
0
ARC
5
254
100
AcDbEntity
8
0
100
AcDbCircle
10
2.1997045256124967
20
96.71818102449889
30
0
40
3.8100000000000369
100
AcDbArc
50
86.076266553535319
51
150.00000000000011
0
LINE
5
255
100
AcDbEntity
8
0
100
AcDbLine
10
22.939423315451553
20
100.52818102449891
30
0
11
2.4605766845484869
21
100.52818102449893
31
0
0
LINE
5
256
100
AcDbEntity
8
0
100
AcDbLine
10
-2.9623391498430602
20
99.397259107720274
30
0
11
-13.201762465294617
21
81.66205768515286
31
0
0
LINE
5
257
100
AcDbEntity
8
0
100
AcDbLine
10
-12.335737061510176
20
81.16205768515286
30
0
11
-2.0963137460586276
21
98.897259107720288
31
0
0
CIRCLE
5
258
100
AcDbEntity
8
0
100
AcDbCircle
10
-2.0963137460586272
20
98.897259107720302
30
0
40
1
0
CIRCLE
5
259
100
AcDbEntity
8
0
100
AcDbCircle
10
-12.335737061510169
20
81.162057685152845
30
0
40
1
0
CIRCLE
5
260
100
AcDbEntity
8
0
100
AcDbCircle
10
-11.594711564468021
20
80.445551495733895
30
0
40
0.25
0
CIRCLE
5
261
100
AcDbEntity
8
0
100
AcDbCircle
10
-11.97935735297451
20
79.522487241532588
30
0
40
0.25
0
CIRCLE
5
262
100
AcDbEntity
8
0
100
AcDbCircle
10
-1.1052884355319235
20
98.613765297139281
30
0
40
0.25
0
CIRCLE
5
263
100
AcDbEntity
8
0
100
AcDbCircle
10
-0.49821423632149764
20
99.408410448545254
30
0
40
0.25
0
CIRCLE
5
264
100
AcDbEntity
8
0
100
AcDbCircle
10
0.29470452561250637
20
100.01773781291766
30
0
40
0.25
0
ARC
5
265
100
AcDbEntity
8
0
100
AcDbCircle
10
2.1997045256125372
20
96.718181024498975
30
0
40
3.8100000000000023
100
AcDbArc
50
90.000000000000142
51
153.92373344646572
0
CIRCLE
5
266
100
AcDbEntity
8
0
100
AcDbCircle
10
-12.110590948775039
20
78.531135768374213
30
0
40
0.25
0
ARC
5
267
100
AcDbEntity
8
0
100
AcDbCircle
10
-8.300590948775028
20
78.531135768374227
30
0
40
3.8099999999999885
100
AcDbArc
50
146.07626655353559
51
210.00000000000048
0
LINE
5
268
100
AcDbEntity
8
0
100
AcDbLine
10
-1.2302883422741933
20
98.397259107720288
30
0
11
-11.469711657725743
21
80.662057685152874
31
0
0
LINE
5
269
100
AcDbEntity
8
0
100
AcDbLine
10
-13.201762465294619
20
75.400213851595581
30
0
11
-2.9623391498431051
21
57.665012429028138
31
0
0
LINE
5
270
100
AcDbEntity
8
0
100
AcDbLine
10
-2.0963137460586676
20
58.165012429028138
30
0
11
-12.335737061510176
21
75.900213851595581
31
0
0
CIRCLE
5
271
100
AcDbEntity
8
0
100
AcDbCircle
10
-12.335737061510182
20
75.900213851595581
30
0
40
1
0
CIRCLE
5
272
100
AcDbEntity
8
0
100
AcDbCircle
10
-2.096313746058668
20
58.165012429028124
30
0
40
1
0
CIRCLE
5
273
100
AcDbEntity
8
0
100
AcDbCircle
10
-1.1052884355319661
20
58.448506239609166
30
0
40
0.25
0
CIRCLE
5
274
100
AcDbEntity
8
0
100
AcDbCircle
10
-0.49821423632154094
20
57.653861088203193
30
0
40
0.25
0
CIRCLE
5
275
100
AcDbEntity
8
0
100
AcDbCircle
10
-11.594711564468014
20
76.61672004101456
30
0
40
0.25
0
CIRCLE
5
276
100
AcDbEntity
8
0
100
AcDbCircle
10
-11.979357352974514
20
77.539784295215867
30
0
40
0.25
0
CIRCLE
5
277
100
AcDbEntity
8
0
100
AcDbCircle
10
-12.110590948775039
20
78.531135768374241
30
0
40
0.25
0
ARC
5
278
100
AcDbEntity
8
0
100
AcDbCircle
10
-8.3005909487750476
20
78.531135768374241
30
0
40
3.8100000000000058
100
AcDbArc
50
149.99999999999955
51
213.92373344646492
0
CIRCLE
5
279
100
AcDbEntity
8
0
100
AcDbCircle
10
0.29470452561247912
20
57.044533723830753
30
0
40
0.25
0
ARC
5
280
100
AcDbEntity
8
0
100
AcDbCircle
10
2.199704525612463
20
60.344090512249473
30
0
40
3.8100000000000063
100
AcDbArc
50
206.07626655353553
51
270.0000000000004
0
LINE
5
281
100
AcDbEntity
8
0
100
AcDbLine
10
-11.469711657725751
20
76.400213851595566
30
0
11
-1.2302883422742334
21
58.665012429028138
31
0
0
CIRCLE
5
282
100
AcDbEntity
8
0
100
AcDbCircle
10
2.199704525612463
20
60.344090512249473
30
0
40
1.25
0
CIRCLE
5
283
100
AcDbEntity
8
0
100
AcDbCircle
10
23.200295474387552
20
60.344090512249437
30
0
40
1.25
0
CIRCLE
5
284
100
AcDbEntity
8
0
100
AcDbCircle
10
33.700590948775087
20
78.531135768374213
30
0
40
1.25
0
CIRCLE
5
285
100
AcDbEntity
8
0
100
AcDbCircle
10
23.200295474387552
20
96.718181024498961
30
0
40
1.25
0
CIRCLE
5
286
100
AcDbEntity
8
0
100
AcDbCircle
10
2.1997045256124821
20
96.718181024498989
30
0
40
1.25
0
CIRCLE
5
287
100
AcDbEntity
8
0
100
AcDbCircle
10
-8.30059094877506
20
78.531135768374213
30
0
40
1.25
0
CIRCLE
5
288
100
AcDbEntity
8
0
100
AcDbCircle
10
16.240000000000002
20
-9.0800000000000036
30
0
40
0.80000000000000016
0
CIRCLE
5
289
100
AcDbEntity
8
0
100
AcDbCircle
10
4.3994090512256641
20
2.5400000000016005
30
0
40
0.80000000000000016
0
CIRCLE
5
290
100
AcDbEntity
8
0
100
AcDbCircle
10
12.700000000001046
20
16.917045256123309
30
0
40
0.80000000000000016
0
CIRCLE
5
291
100
AcDbEntity
8
0
100
AcDbCircle
10
21.000590948774335
20
2.5400000000016054
30
0
40
0.80000000000000016
0
CIRCLE
5
292
100
AcDbEntity
8
0
100
AcDbCircle
10
16.240000000000002
20
-29.399999999999991
30
0
40
0.80000000000000016
0
CIRCLE
5
293
100
AcDbEntity
8
0
100
AcDbCircle
10
36.559999999999995
20
-29.399999999999991
30
0
40
0.80000000000000016
0
CIRCLE
5
294
100
AcDbEntity
8
0
100
AcDbCircle
10
36.559999999999995
20
-9.0799999999999983
30
0
40
0.80000000000000016
0
ENDSEC
0
SECTION
2
OBJECTS
0
DICTIONARY
5
C
100
AcDbDictionary
3
ACAD_GROUP
350
D
3
ACAD_MLINESTYLE
350
17
0
DICTIONARY
5
D
100
AcDbDictionary
0
DICTIONARY
5
1A
330
C
100
AcDbDictionary
0
DICTIONARY
5
17
100
AcDbDictionary
0
ENDSEC
0
EOF
