G04 EAGLE Gerber X2 export*
G75*
%MOIN*%
%FSLAX24Y24*%
%LPD*%
%AMOC8*
5,1,8,0,0,1.08239X$1,22.5*%
G01*
%ADD10R,0.031496X0.047244*%
%ADD11R,0.065000X0.039370*%
%ADD12R,0.047244X0.031496*%
%ADD13R,0.055118X0.062992*%
%ADD14R,0.019685X0.059055*%
%ADD15R,0.059055X0.019685*%
%ADD16R,0.049213X0.066929*%
%ADD17C,0.008750*%
%ADD18R,0.019685X0.098425*%
%ADD19R,0.078740X0.098425*%


D10*
G36*
X16860Y34750D02*
X17130Y34907D01*
X17366Y34500D01*
X17096Y34343D01*
X16860Y34750D01*
G37*
G36*
X16247Y34395D02*
X16517Y34552D01*
X16753Y34145D01*
X16483Y33988D01*
X16247Y34395D01*
G37*
D11*
G36*
X18889Y32254D02*
X19214Y31693D01*
X18873Y31496D01*
X18548Y32057D01*
X18889Y32254D01*
G37*
G36*
X17874Y34012D02*
X18199Y33451D01*
X17858Y33254D01*
X17533Y33815D01*
X17874Y34012D01*
G37*
G36*
X18965Y34642D02*
X19290Y34081D01*
X18949Y33884D01*
X18624Y34445D01*
X18965Y34642D01*
G37*
G36*
X19980Y32884D02*
X20305Y32323D01*
X19964Y32126D01*
X19639Y32687D01*
X19980Y32884D01*
G37*
D10*
G36*
X19110Y30853D02*
X19380Y31010D01*
X19616Y30603D01*
X19346Y30446D01*
X19110Y30853D01*
G37*
G36*
X18497Y30498D02*
X18767Y30655D01*
X19003Y30248D01*
X18733Y30091D01*
X18497Y30498D01*
G37*
D12*
X6413Y6886D03*
X6413Y6177D03*
D11*
X9428Y7902D03*
X7399Y7902D03*
X7399Y9161D03*
X9428Y9161D03*
D12*
X10413Y6886D03*
X10413Y6177D03*
D10*
X27736Y52892D03*
X28445Y52892D03*
D13*
X21142Y63142D03*
X20039Y63142D03*
D10*
X21736Y59642D03*
X22445Y59642D03*
X28445Y53892D03*
X27736Y53892D03*
D12*
X28091Y57496D03*
X28091Y56787D03*
D10*
X21445Y53892D03*
X20736Y53892D03*
D12*
X20841Y56537D03*
X20841Y57246D03*
X20841Y58746D03*
X20841Y58037D03*
X24091Y60996D03*
X24091Y60287D03*
X25341Y60287D03*
X25341Y60996D03*
X26091Y60287D03*
X26091Y60996D03*
D14*
X26165Y58175D03*
X25850Y58175D03*
X25535Y58175D03*
X25220Y58175D03*
X24906Y58175D03*
X24591Y58175D03*
X24276Y58175D03*
X23961Y58175D03*
X23646Y58175D03*
X23331Y58175D03*
X23016Y58175D03*
D15*
X22307Y57467D03*
X22307Y57152D03*
X22307Y56837D03*
X22307Y56522D03*
X22307Y56207D03*
X22307Y55892D03*
X22307Y55577D03*
X22307Y55262D03*
X22307Y54947D03*
X22307Y54632D03*
X22307Y54317D03*
D14*
X23016Y53608D03*
X23331Y53608D03*
X23646Y53608D03*
X23961Y53608D03*
X24276Y53608D03*
X24591Y53608D03*
X24906Y53608D03*
X25220Y53608D03*
X25535Y53608D03*
X25850Y53608D03*
X26165Y53608D03*
D15*
X26874Y54317D03*
X26874Y54632D03*
X26874Y54947D03*
X26874Y55262D03*
X26874Y55577D03*
X26874Y55892D03*
X26874Y56207D03*
X26874Y56522D03*
X26874Y56837D03*
X26874Y57152D03*
X26874Y57467D03*
D16*
X22957Y60642D03*
X21224Y60642D03*
D17*
X21310Y53098D02*
X21572Y53098D01*
X21572Y52686D01*
X21310Y52686D01*
X21310Y53098D01*
X21310Y52773D02*
X21572Y52773D01*
X21572Y52860D02*
X21310Y52860D01*
X21310Y52947D02*
X21572Y52947D01*
X21572Y53034D02*
X21310Y53034D01*
X20872Y53098D02*
X20610Y53098D01*
X20872Y53098D02*
X20872Y52686D01*
X20610Y52686D01*
X20610Y53098D01*
X20610Y52773D02*
X20872Y52773D01*
X20872Y52860D02*
X20610Y52860D01*
X20610Y52947D02*
X20872Y52947D01*
X20872Y53034D02*
X20610Y53034D01*
D12*
X24591Y51496D03*
X24591Y50787D03*
D18*
X24591Y63157D03*
X24906Y63157D03*
X23961Y63157D03*
X24276Y63157D03*
D19*
X22819Y65323D03*
X26362Y65323D03*
X22819Y63157D03*
X26362Y63157D03*
D18*
X25220Y63157D03*
D13*
X28039Y63142D03*
X29142Y63142D03*
X23142Y51392D03*
X22039Y51392D03*
X26039Y51392D03*
X27142Y51392D03*
D10*
G36*
X30047Y54385D02*
X29777Y54542D01*
X30013Y54949D01*
X30283Y54792D01*
X30047Y54385D01*
G37*
G36*
X30660Y54030D02*
X30390Y54187D01*
X30626Y54594D01*
X30896Y54437D01*
X30660Y54030D01*
G37*
G36*
X30283Y60825D02*
X30013Y60668D01*
X29777Y61075D01*
X30047Y61232D01*
X30283Y60825D01*
G37*
G36*
X30896Y61179D02*
X30626Y61022D01*
X30390Y61429D01*
X30660Y61586D01*
X30896Y61179D01*
G37*
G36*
X19114Y61229D02*
X19384Y61072D01*
X19148Y60665D01*
X18878Y60822D01*
X19114Y61229D01*
G37*
G36*
X18501Y61583D02*
X18771Y61426D01*
X18535Y61019D01*
X18265Y61176D01*
X18501Y61583D01*
G37*
G36*
X18893Y54777D02*
X19163Y54934D01*
X19399Y54527D01*
X19129Y54370D01*
X18893Y54777D01*
G37*
G36*
X18279Y54423D02*
X18549Y54580D01*
X18785Y54173D01*
X18515Y54016D01*
X18279Y54423D01*
G37*
D12*
X10957Y29014D03*
X10957Y28305D03*
D11*
X14221Y29170D03*
X12192Y29170D03*
X12192Y30429D03*
X14221Y30429D03*
D12*
X15457Y29014D03*
X15457Y28305D03*
X5287Y38850D03*
X5287Y38142D03*
D11*
X8552Y39006D03*
X6523Y39006D03*
X6523Y40266D03*
X8552Y40266D03*
D12*
X9787Y38850D03*
X9787Y38142D03*
X16652Y38862D03*
X16652Y38154D03*
D11*
X19916Y39018D03*
X17887Y39018D03*
X17887Y40278D03*
X19916Y40278D03*
D12*
X21152Y38862D03*
X21152Y38154D03*
D10*
G36*
X5459Y34755D02*
X5729Y34912D01*
X5965Y34505D01*
X5695Y34348D01*
X5459Y34755D01*
G37*
G36*
X4846Y34400D02*
X5116Y34557D01*
X5352Y34150D01*
X5082Y33993D01*
X4846Y34400D01*
G37*
D11*
G36*
X7488Y32259D02*
X7813Y31698D01*
X7472Y31501D01*
X7147Y32062D01*
X7488Y32259D01*
G37*
G36*
X6473Y34017D02*
X6798Y33456D01*
X6457Y33259D01*
X6132Y33820D01*
X6473Y34017D01*
G37*
G36*
X7564Y34647D02*
X7889Y34086D01*
X7548Y33889D01*
X7223Y34450D01*
X7564Y34647D01*
G37*
G36*
X8579Y32889D02*
X8904Y32328D01*
X8563Y32131D01*
X8238Y32692D01*
X8579Y32889D01*
G37*
D10*
G36*
X7709Y30858D02*
X7979Y31015D01*
X8215Y30608D01*
X7945Y30451D01*
X7709Y30858D01*
G37*
G36*
X7096Y30503D02*
X7366Y30660D01*
X7602Y30253D01*
X7332Y30096D01*
X7096Y30503D01*
G37*
G36*
X11158Y44594D02*
X11428Y44751D01*
X11664Y44344D01*
X11394Y44187D01*
X11158Y44594D01*
G37*
G36*
X10544Y44240D02*
X10814Y44397D01*
X11050Y43990D01*
X10780Y43833D01*
X10544Y44240D01*
G37*
D11*
G36*
X13186Y42099D02*
X13511Y41538D01*
X13170Y41341D01*
X12845Y41902D01*
X13186Y42099D01*
G37*
G36*
X12171Y43856D02*
X12496Y43295D01*
X12155Y43098D01*
X11830Y43659D01*
X12171Y43856D01*
G37*
G36*
X13262Y44486D02*
X13587Y43925D01*
X13246Y43728D01*
X12921Y44289D01*
X13262Y44486D01*
G37*
G36*
X14277Y42729D02*
X14602Y42168D01*
X14261Y41971D01*
X13936Y42532D01*
X14277Y42729D01*
G37*
D10*
G36*
X13408Y40697D02*
X13678Y40854D01*
X13914Y40447D01*
X13644Y40290D01*
X13408Y40697D01*
G37*
G36*
X12794Y40343D02*
X13064Y40500D01*
X13300Y40093D01*
X13030Y39936D01*
X12794Y40343D01*
G37*
G36*
X39585Y34732D02*
X39855Y34889D01*
X40091Y34482D01*
X39821Y34325D01*
X39585Y34732D01*
G37*
G36*
X38971Y34378D02*
X39241Y34535D01*
X39477Y34128D01*
X39207Y33971D01*
X38971Y34378D01*
G37*
D11*
G36*
X41613Y32237D02*
X41938Y31676D01*
X41597Y31479D01*
X41272Y32040D01*
X41613Y32237D01*
G37*
G36*
X40598Y33994D02*
X40923Y33433D01*
X40582Y33236D01*
X40257Y33797D01*
X40598Y33994D01*
G37*
G36*
X41689Y34624D02*
X42014Y34063D01*
X41673Y33866D01*
X41348Y34427D01*
X41689Y34624D01*
G37*
G36*
X42704Y32867D02*
X43029Y32306D01*
X42688Y32109D01*
X42363Y32670D01*
X42704Y32867D01*
G37*
D10*
G36*
X41835Y30835D02*
X42105Y30992D01*
X42341Y30585D01*
X42071Y30428D01*
X41835Y30835D01*
G37*
G36*
X41221Y30481D02*
X41491Y30638D01*
X41727Y30231D01*
X41457Y30074D01*
X41221Y30481D01*
G37*
D12*
X33681Y28996D03*
X33681Y28287D03*
D11*
X36946Y29152D03*
X34917Y29152D03*
X34917Y30412D03*
X36946Y30412D03*
D12*
X38181Y28996D03*
X38181Y28287D03*
X28012Y38833D03*
X28012Y38124D03*
D11*
X31276Y38988D03*
X29247Y38988D03*
X29247Y40248D03*
X31276Y40248D03*
D12*
X32512Y38833D03*
X32512Y38124D03*
X39376Y38844D03*
X39376Y38136D03*
D11*
X42641Y39000D03*
X40611Y39000D03*
X40611Y40260D03*
X42641Y40260D03*
D12*
X43876Y38844D03*
X43876Y38136D03*
D10*
G36*
X28184Y34737D02*
X28454Y34894D01*
X28690Y34487D01*
X28420Y34330D01*
X28184Y34737D01*
G37*
G36*
X27570Y34383D02*
X27840Y34540D01*
X28076Y34133D01*
X27806Y33976D01*
X27570Y34383D01*
G37*
D11*
G36*
X30212Y32242D02*
X30537Y31681D01*
X30196Y31484D01*
X29871Y32045D01*
X30212Y32242D01*
G37*
G36*
X29197Y33999D02*
X29522Y33438D01*
X29181Y33241D01*
X28856Y33802D01*
X29197Y33999D01*
G37*
G36*
X30288Y34629D02*
X30613Y34068D01*
X30272Y33871D01*
X29947Y34432D01*
X30288Y34629D01*
G37*
G36*
X31303Y32872D02*
X31628Y32311D01*
X31287Y32114D01*
X30962Y32675D01*
X31303Y32872D01*
G37*
D10*
G36*
X30434Y30840D02*
X30704Y30997D01*
X30940Y30590D01*
X30670Y30433D01*
X30434Y30840D01*
G37*
G36*
X29820Y30486D02*
X30090Y30643D01*
X30326Y30236D01*
X30056Y30079D01*
X29820Y30486D01*
G37*
G36*
X33882Y44577D02*
X34152Y44734D01*
X34388Y44327D01*
X34118Y44170D01*
X33882Y44577D01*
G37*
G36*
X33268Y44222D02*
X33538Y44379D01*
X33774Y43972D01*
X33504Y43815D01*
X33268Y44222D01*
G37*
D11*
G36*
X35910Y42081D02*
X36235Y41520D01*
X35894Y41323D01*
X35569Y41884D01*
X35910Y42081D01*
G37*
G36*
X34896Y43839D02*
X35221Y43278D01*
X34880Y43081D01*
X34555Y43642D01*
X34896Y43839D01*
G37*
G36*
X35987Y44468D02*
X36312Y43907D01*
X35971Y43710D01*
X35646Y44271D01*
X35987Y44468D01*
G37*
G36*
X37001Y42711D02*
X37326Y42150D01*
X36985Y41953D01*
X36660Y42514D01*
X37001Y42711D01*
G37*
D10*
G36*
X36132Y40679D02*
X36402Y40836D01*
X36638Y40429D01*
X36368Y40272D01*
X36132Y40679D01*
G37*
G36*
X35518Y40325D02*
X35788Y40482D01*
X36024Y40075D01*
X35754Y39918D01*
X35518Y40325D01*
G37*
G36*
X11180Y66046D02*
X11450Y66203D01*
X11686Y65796D01*
X11416Y65639D01*
X11180Y66046D01*
G37*
G36*
X10566Y65692D02*
X10836Y65849D01*
X11072Y65442D01*
X10802Y65285D01*
X10566Y65692D01*
G37*
D11*
G36*
X13208Y63551D02*
X13533Y62990D01*
X13192Y62793D01*
X12867Y63354D01*
X13208Y63551D01*
G37*
G36*
X12193Y65308D02*
X12518Y64747D01*
X12177Y64550D01*
X11852Y65111D01*
X12193Y65308D01*
G37*
G36*
X13284Y65938D02*
X13609Y65377D01*
X13268Y65180D01*
X12943Y65741D01*
X13284Y65938D01*
G37*
G36*
X14299Y64181D02*
X14624Y63620D01*
X14283Y63423D01*
X13958Y63984D01*
X14299Y64181D01*
G37*
D10*
G36*
X13430Y62149D02*
X13700Y62306D01*
X13936Y61899D01*
X13666Y61742D01*
X13430Y62149D01*
G37*
G36*
X12816Y61795D02*
X13086Y61952D01*
X13322Y61545D01*
X13052Y61388D01*
X12816Y61795D01*
G37*
D12*
X10986Y50469D03*
X10986Y49760D03*
D11*
X14251Y50624D03*
X12222Y50624D03*
X12222Y51884D03*
X14251Y51884D03*
D12*
X15486Y50469D03*
X15486Y49760D03*
X39380Y60307D03*
X39380Y59598D03*
D11*
X42644Y60463D03*
X40615Y60463D03*
X40615Y61723D03*
X42644Y61723D03*
D12*
X43880Y60307D03*
X43880Y59598D03*
D10*
G36*
X39577Y56217D02*
X39847Y56374D01*
X40083Y55967D01*
X39813Y55810D01*
X39577Y56217D01*
G37*
G36*
X38963Y55863D02*
X39233Y56020D01*
X39469Y55613D01*
X39199Y55456D01*
X38963Y55863D01*
G37*
D11*
G36*
X41605Y53722D02*
X41930Y53161D01*
X41589Y52964D01*
X41264Y53525D01*
X41605Y53722D01*
G37*
G36*
X40591Y55479D02*
X40916Y54918D01*
X40575Y54721D01*
X40250Y55282D01*
X40591Y55479D01*
G37*
G36*
X41682Y56109D02*
X42007Y55548D01*
X41666Y55351D01*
X41341Y55912D01*
X41682Y56109D01*
G37*
G36*
X42696Y54352D02*
X43021Y53791D01*
X42680Y53594D01*
X42355Y54155D01*
X42696Y54352D01*
G37*
D10*
G36*
X41827Y52320D02*
X42097Y52477D01*
X42333Y52070D01*
X42063Y51913D01*
X41827Y52320D01*
G37*
G36*
X41213Y51966D02*
X41483Y52123D01*
X41719Y51716D01*
X41449Y51559D01*
X41213Y51966D01*
G37*
G36*
X22520Y44579D02*
X22790Y44736D01*
X23026Y44329D01*
X22756Y44172D01*
X22520Y44579D01*
G37*
G36*
X21906Y44225D02*
X22176Y44382D01*
X22412Y43975D01*
X22142Y43818D01*
X21906Y44225D01*
G37*
D11*
G36*
X24548Y42084D02*
X24873Y41523D01*
X24532Y41326D01*
X24207Y41887D01*
X24548Y42084D01*
G37*
G36*
X23534Y43841D02*
X23859Y43280D01*
X23518Y43083D01*
X23193Y43644D01*
X23534Y43841D01*
G37*
G36*
X24625Y44471D02*
X24950Y43910D01*
X24609Y43713D01*
X24284Y44274D01*
X24625Y44471D01*
G37*
G36*
X25639Y42714D02*
X25964Y42153D01*
X25623Y41956D01*
X25298Y42517D01*
X25639Y42714D01*
G37*
D10*
G36*
X24770Y40682D02*
X25040Y40839D01*
X25276Y40432D01*
X25006Y40275D01*
X24770Y40682D01*
G37*
G36*
X24156Y40328D02*
X24426Y40485D01*
X24662Y40078D01*
X24392Y39921D01*
X24156Y40328D01*
G37*
D12*
X22327Y29002D03*
X22327Y28293D03*
D11*
X25591Y29158D03*
X23562Y29158D03*
X23562Y30418D03*
X25591Y30418D03*
D12*
X26827Y29002D03*
X26827Y28293D03*
D10*
G36*
X33910Y66054D02*
X34180Y66211D01*
X34416Y65804D01*
X34146Y65647D01*
X33910Y66054D01*
G37*
G36*
X33296Y65700D02*
X33566Y65857D01*
X33802Y65450D01*
X33532Y65293D01*
X33296Y65700D01*
G37*
D11*
G36*
X35938Y63559D02*
X36263Y62998D01*
X35922Y62801D01*
X35597Y63362D01*
X35938Y63559D01*
G37*
G36*
X34923Y65316D02*
X35248Y64755D01*
X34907Y64558D01*
X34582Y65119D01*
X34923Y65316D01*
G37*
G36*
X36015Y65946D02*
X36340Y65385D01*
X35999Y65188D01*
X35674Y65749D01*
X36015Y65946D01*
G37*
G36*
X37029Y64188D02*
X37354Y63627D01*
X37013Y63430D01*
X36688Y63991D01*
X37029Y64188D01*
G37*
D10*
G36*
X36160Y62157D02*
X36430Y62314D01*
X36666Y61907D01*
X36396Y61750D01*
X36160Y62157D01*
G37*
G36*
X35546Y61802D02*
X35816Y61959D01*
X36052Y61552D01*
X35782Y61395D01*
X35546Y61802D01*
G37*
D12*
X33717Y50476D03*
X33717Y49768D03*
D11*
X36981Y50632D03*
X34952Y50632D03*
X34952Y51892D03*
X36981Y51892D03*
D12*
X38217Y50476D03*
X38217Y49768D03*
X5287Y60301D03*
X5287Y59593D03*
D11*
X8552Y60457D03*
X6523Y60457D03*
X6523Y61717D03*
X8552Y61717D03*
D12*
X9787Y60301D03*
X9787Y59593D03*
D10*
G36*
X5485Y56211D02*
X5755Y56368D01*
X5991Y55961D01*
X5721Y55804D01*
X5485Y56211D01*
G37*
G36*
X4871Y55857D02*
X5141Y56014D01*
X5377Y55607D01*
X5107Y55450D01*
X4871Y55857D01*
G37*
D11*
G36*
X7513Y53716D02*
X7838Y53155D01*
X7497Y52958D01*
X7172Y53519D01*
X7513Y53716D01*
G37*
G36*
X6498Y55473D02*
X6823Y54912D01*
X6482Y54715D01*
X6157Y55276D01*
X6498Y55473D01*
G37*
G36*
X7589Y56103D02*
X7914Y55542D01*
X7573Y55345D01*
X7248Y55906D01*
X7589Y56103D01*
G37*
G36*
X8604Y54346D02*
X8929Y53785D01*
X8588Y53588D01*
X8263Y54149D01*
X8604Y54346D01*
G37*
D10*
G36*
X7735Y52314D02*
X8005Y52471D01*
X8241Y52064D01*
X7971Y51907D01*
X7735Y52314D01*
G37*
G36*
X7121Y51960D02*
X7391Y52117D01*
X7627Y51710D01*
X7357Y51553D01*
X7121Y51960D01*
G37*
D12*
X6404Y17677D03*
X6404Y16969D03*
D11*
X9418Y18693D03*
X7389Y18693D03*
X7389Y19953D03*
X9418Y19953D03*
D12*
X10404Y17677D03*
X10404Y16969D03*
X17199Y17675D03*
X17199Y16967D03*
D11*
X20213Y18691D03*
X18184Y18691D03*
X18184Y19951D03*
X20213Y19951D03*
D12*
X21199Y17675D03*
X21199Y16967D03*
X17199Y6886D03*
X17199Y6177D03*
D11*
X20213Y7902D03*
X18184Y7902D03*
X18184Y9161D03*
X20213Y9161D03*
D12*
X21199Y6886D03*
X21199Y6177D03*
X27998Y6882D03*
X27998Y6173D03*
D11*
X31013Y7898D03*
X28983Y7898D03*
X28983Y9157D03*
X31013Y9157D03*
D12*
X31998Y6882D03*
X31998Y6173D03*
X27988Y17673D03*
X27988Y16965D03*
D11*
X31003Y18689D03*
X28974Y18689D03*
X28974Y19949D03*
X31003Y19949D03*
D12*
X31988Y17673D03*
X31988Y16965D03*
X38783Y17671D03*
X38783Y16963D03*
D11*
X41798Y18687D03*
X39769Y18687D03*
X39769Y19947D03*
X41798Y19947D03*
D12*
X42783Y17671D03*
X42783Y16963D03*
X38783Y6882D03*
X38783Y6173D03*
D11*
X41798Y7898D03*
X39769Y7898D03*
X39769Y9157D03*
X41798Y9157D03*
D12*
X42783Y6882D03*
X42783Y6173D03*
M02*
