M48
;GenerationSoftware,Autodesk,EAGLE,9.0.1*%
;CreationDate,2018-06-22T20:08:10Z*%
FMAT,2
ICI,OFF
INCH,TZ,00.0000
T11C0.0157
T10C0.0197
T9C0.0276
T8C0.0354
T7C0.0394
T6C0.0400
T5C0.0440
T4C0.0630
T3C0.0787
T2C0.0984
T1C0.1260
%
G90
M72
T1
X47244Y1969
X1969Y1969
X1969Y68898
X47244Y68898
T2
X20441Y64982
X16291Y57802
X28741Y50622
X20441Y50612
X32881Y57802
X28741Y64982
T3
X34839Y55866
X37083Y55858
X38201Y57815
X37087Y59760
X31390Y28457
X29130Y28449
X28008Y26504
X34846Y59764
X34449Y58850
X21161Y26500
X20035Y28457
X17780Y28461
X14378Y59764
X14740Y58854
X14740Y56780
X14370Y55862
X12098Y55858
X10969Y57811
X12094Y59772
X33693Y36339
X4520Y3142
X3016Y4634
X16650Y26508
X9787Y26508
X8661Y28453
X3020Y12433
X4516Y13929
X12307Y13933
X13807Y12425
X15315Y13925
X6406Y28457
X46181Y15425
X2972Y34390
X4102Y36350
X2988Y38307
X42764Y44228
X40504Y44228
X13807Y15425
X12311Y3146
X13807Y4634
X15303Y3142
X23094Y3138
X26094Y3138
X39378Y46173
X39386Y47969
X40512Y49929
X24606Y4646
X33894Y3138
X35394Y4638
X36878Y3134
X44681Y3138
X46185Y4642
X42772Y49921
X6417Y49917
X8673Y49921
X9807Y47969
X46189Y12429
X44685Y13929
X36898Y13929
X35390Y12433
X33890Y13925
X35394Y15429
X9791Y46193
X24602Y12425
X34445Y56760
X8669Y44240
X6406Y44236
X28012Y46181
X29142Y44232
X31398Y44220
X32512Y46177
X23098Y13925
X24598Y15433
X26094Y13921
X3016Y15429
X3016Y23220
X4524Y24717
X12299Y24720
X13811Y23217
X15303Y24720
X23102Y24709
X26098Y24717
X24602Y23209
X32531Y47969
X31413Y49925
X30417Y49799
X33886Y24720
X35390Y23217
X36878Y24713
X46181Y23220
X10961Y36343
X12098Y38299
X14354Y38303
X28630Y48752
X34815Y34370
X16665Y47969
X17799Y49925
X15484Y36350
X14350Y34402
X12087Y34394
X18768Y49787
X20567Y48748
X21157Y46177
X23461Y38303
X25705Y38287
X20028Y44236
X17772Y44244
X16650Y46193
X26831Y36331
X25701Y34382
X23457Y34386
X22335Y36350
X34815Y38280
X37079Y38295
X38197Y36339
X37071Y34378
X44685Y24713
X46193Y55862
X45059Y57815
X46189Y59764
X42764Y65697
X40512Y65701
X39394Y67654
X32531Y67654
X31413Y65705
X30417Y65827
X28626Y66862
X20563Y66870
X18768Y65831
X17791Y65693
X16665Y67642
X9811Y67654
X8677Y65697
X6421Y65693
X2988Y59760
X4114Y57803
X2988Y55858
X46193Y38295
X45063Y36339
X46189Y34378
X42768Y28445
X40512Y28445
X39370Y26500
X32516Y26500
T4
X38326Y37730
X41626Y43440
X44926Y37720
X4248Y56438
X10843Y56436
X7539Y50718
X26947Y34964
X33542Y34961
X30238Y29243
X4384Y15303
X12424Y15313
X12414Y23333
X15623Y34977
X22218Y34974
X18915Y29256
X32645Y44804
X39240Y44801
X35936Y39083
X4393Y4511
X4393Y12541
X12433Y4521
X12423Y12541
X4384Y23333
X15179Y15301
X9943Y66273
X16538Y66270
X13234Y60552
X15179Y23331
X23219Y15311
X23209Y23331
X9936Y49354
X13236Y55064
X16536Y49344
X15179Y4511
X23219Y4521
X23209Y12541
X38330Y59193
X41630Y64903
X44930Y59183
X9907Y27899
X13207Y33609
X16507Y27889
X39268Y66278
X35964Y60560
X18902Y43458
X4222Y34982
X10817Y34979
X7514Y29261
X38348Y34959
X44943Y34956
X41639Y29238
X25968Y15299
X36763Y15297
X36763Y23327
X44803Y15307
X44793Y23327
X25968Y23329
X34008Y15309
X33998Y23329
X21277Y27888
X24577Y33598
X27877Y27878
X32667Y49362
X35967Y55072
X39267Y49352
X22202Y37738
X34018Y4518
X35931Y33592
X39231Y27872
X21283Y44807
X15179Y12541
X27878Y44804
X24574Y39086
X34008Y12538
X4237Y37736
X9921Y44821
X16516Y44819
X13212Y39101
X7537Y43446
X10837Y37726
X41632Y50724
X38340Y56444
X36763Y4508
X4237Y59187
X26962Y37718
X30262Y43428
X33562Y37708
X7537Y64897
X10837Y59177
X36763Y12538
X44803Y4518
X44793Y12538
X44935Y56441
X25978Y4508
X25978Y12538
X15602Y37748
X32673Y66281
X32631Y27882
T5
X31136Y62743
X30636Y63609
X18526Y63606
X18026Y62740
X17526Y61874
X17026Y61008
X16526Y60142
X16540Y55457
X17040Y54591
X17540Y53725
X18040Y52859
X18540Y51993
X11207Y26909
X12207Y26909
X13207Y26909
X14207Y26909
X15207Y26909
X16734Y29514
X16234Y30380
X15734Y31246
X15234Y32113
X14734Y32979
X9720Y29498
X10220Y30364
X10720Y31230
X11220Y32096
X11720Y32962
X5537Y36746
X6537Y36746
X7537Y36746
X8537Y36746
X9537Y36746
X11065Y39351
X10565Y40217
X10065Y41083
X9565Y41949
X9065Y42815
X4051Y39334
X4551Y40200
X5051Y41066
X5551Y41932
X6051Y42798
X16902Y36758
X17902Y36758
X18902Y36758
X19902Y36758
X20902Y36758
X22429Y39363
X21929Y40229
X21429Y41095
X20929Y41961
X20429Y42827
X15415Y39346
X15915Y40212
X16415Y41078
X16915Y41944
X17415Y42810
X4015Y33361
X4515Y32495
X5015Y31629
X5515Y30763
X6015Y29897
X9035Y29877
X9535Y30743
X10035Y31609
X10535Y32475
X11035Y33341
X5513Y35942
X6513Y35942
X7513Y35942
X8513Y35942
X9513Y35942
X9713Y43201
X10213Y42335
X10713Y41469
X11213Y40603
X11713Y39737
X14733Y39716
X15233Y40582
X15733Y41448
X16233Y42314
X16733Y43180
X11212Y45782
X12212Y45782
X13212Y45782
X14212Y45782
X15212Y45782
X38140Y33338
X38640Y32472
X39140Y31606
X39640Y30740
X40140Y29874
X43160Y29854
X43660Y30720
X44160Y31586
X44660Y32452
X45160Y33318
X39639Y35920
X40639Y35920
X41639Y35920
X42639Y35920
X43639Y35920
X33931Y26892
X34931Y26892
X35931Y26892
X36931Y26892
X37931Y26892
X39459Y29497
X38959Y30363
X38459Y31229
X37959Y32095
X37459Y32961
X32445Y29480
X32945Y30346
X33445Y31212
X33945Y32078
X34445Y32944
X28262Y36728
X29262Y36728
X30262Y36728
X31262Y36728
X32262Y36728
X33789Y39333
X33289Y40199
X32789Y41065
X32289Y41931
X31789Y42797
X26775Y39317
X27275Y40183
X27775Y41049
X28275Y41915
X28775Y42781
X39626Y36740
X40626Y36740
X41626Y36740
X42626Y36740
X43626Y36740
X45153Y39345
X44653Y40211
X44153Y41077
X43653Y41943
X43153Y42809
X38140Y39328
X38640Y40194
X39140Y41061
X39640Y41927
X40140Y42793
X26739Y33343
X27239Y32477
X27739Y31611
X28239Y30745
X28739Y29879
X31759Y29859
X32259Y30725
X32759Y31591
X33259Y32457
X33759Y33323
X28238Y35925
X29238Y35925
X30238Y35925
X31238Y35925
X32238Y35925
X32438Y43183
X32938Y42317
X33438Y41451
X33938Y40585
X34438Y39719
X37457Y39699
X37957Y40565
X38457Y41431
X38957Y42297
X39457Y43163
X33936Y45764
X34936Y45764
X35936Y45764
X36936Y45764
X37936Y45764
X9735Y64652
X10235Y63786
X10735Y62920
X11235Y62054
X11735Y61188
X14755Y61168
X15255Y62034
X15755Y62900
X16255Y63766
X16755Y64632
X11234Y67234
X12234Y67234
X13234Y67234
X14234Y67234
X15234Y67234
X11236Y48364
X12236Y48364
X13236Y48364
X14236Y48364
X15236Y48364
X16764Y50969
X16264Y51835
X15764Y52701
X15264Y53567
X14764Y54433
X9750Y50952
X10250Y51818
X10750Y52685
X11250Y53551
X11750Y54417
X39630Y58203
X40630Y58203
X41630Y58203
X42630Y58203
X43630Y58203
X45157Y60808
X44657Y61674
X44157Y62540
X43657Y63406
X43157Y64272
X38144Y60791
X38644Y61657
X39144Y62523
X39644Y63389
X40144Y64255
X38133Y54824
X38633Y53958
X39133Y53091
X39633Y52225
X40133Y51359
X43153Y51339
X43653Y52205
X44153Y53071
X44653Y53937
X45153Y54803
X39631Y57405
X40631Y57405
X41631Y57405
X42631Y57405
X43631Y57405
X21076Y43186
X21576Y42320
X22076Y41454
X22576Y40588
X23076Y39722
X26095Y39701
X26595Y40567
X27095Y41433
X27595Y42299
X28095Y43165
X22574Y45767
X23574Y45767
X24574Y45767
X25574Y45767
X26574Y45767
X22577Y26898
X23577Y26898
X24577Y26898
X25577Y26898
X26577Y26898
X28104Y29503
X27604Y30369
X27104Y31235
X26604Y32101
X26104Y32967
X21090Y29486
X21590Y30352
X22090Y31218
X22590Y32084
X23090Y32950
X32465Y64660
X32965Y63794
X33465Y62928
X33965Y62062
X34465Y61196
X37485Y61176
X37985Y62042
X38485Y62908
X38985Y63774
X39485Y64640
X33964Y67242
X34964Y67242
X35964Y67242
X36964Y67242
X37964Y67242
X33967Y48372
X34967Y48372
X35967Y48372
X36967Y48372
X37967Y48372
X38994Y51843
X38494Y52709
X37994Y53575
X37494Y54441
X32480Y50960
X32980Y51826
X33480Y52692
X33980Y53558
X34480Y54424
X5537Y58197
X6537Y58197
X7537Y58197
X8537Y58197
X9537Y58197
X11065Y60802
X10565Y61668
X10065Y62534
X9565Y63400
X9065Y64266
X4051Y60785
X4551Y61651
X5051Y62517
X5551Y63383
X6051Y64249
X4040Y54818
X4540Y53952
X5040Y53086
X5540Y52220
X6040Y51354
X9060Y51333
X9560Y52199
X10060Y53065
X10560Y53931
X11060Y54797
X5539Y57399
X6539Y57399
X7539Y57399
X8539Y57399
X9539Y57399
X3404Y17323
X3404Y18323
X3404Y19323
X3404Y20323
X3404Y21323
X13404Y17323
X13404Y18323
X13404Y19323
X13404Y20323
X13404Y21323
X6404Y24323
X7404Y24323
X8404Y24323
X9404Y24323
X10404Y24323
X6404Y14323
X7404Y14323
X8404Y14323
X9404Y14323
X10404Y14323
X14199Y17321
X14199Y18321
X14199Y19321
X14199Y20321
X14199Y21321
X24199Y17321
X24199Y18321
X24199Y19321
X24199Y20321
X24199Y21321
X17199Y24321
X18199Y24321
X19199Y24321
X20199Y24321
X21199Y24321
X17199Y14321
X18199Y14321
X19199Y14321
X20199Y14321
X21199Y14321
X14199Y6531
X14199Y7531
X14199Y8531
X14199Y9531
X14199Y10531
X24199Y6531
X24199Y7531
X24199Y8531
X24199Y9531
X24199Y10531
X17199Y13531
X18199Y13531
X19199Y13531
X20199Y13531
X21199Y13531
X17199Y3531
X18199Y3531
X19199Y3531
X20199Y3531
X21199Y3531
X24998Y6528
X24998Y7528
X24998Y8528
X24998Y9528
X24998Y10528
X34998Y6528
X34998Y7528
X34998Y8528
X34998Y9528
X34998Y10528
X27998Y13528
X28998Y13528
X29998Y13528
X30998Y13528
X31998Y13528
X27998Y3528
X28998Y3528
X29998Y3528
X30998Y3528
X31998Y3528
X24988Y17319
X24988Y18319
X24988Y19319
X24988Y20319
X24988Y21319
X34988Y17319
X34988Y18319
X34988Y19319
X34988Y20319
X34988Y21319
X27988Y24319
X28988Y24319
X29988Y24319
X30988Y24319
X31988Y24319
X27988Y14319
X28988Y14319
X29988Y14319
X30988Y14319
X31988Y14319
X35783Y17317
X35783Y18317
X35783Y19317
X35783Y20317
X35783Y21317
X45783Y17317
X45783Y18317
X45783Y19317
X45783Y20317
X45783Y21317
X38783Y24317
X39783Y24317
X40783Y24317
X41783Y24317
X42783Y24317
X38783Y14317
X39783Y14317
X40783Y14317
X41783Y14317
X42783Y14317
X35783Y6528
X35783Y7528
X35783Y8528
X35783Y9528
X35783Y10528
X45783Y6528
X45783Y7528
X45783Y8528
X45783Y9528
X45783Y10528
X38783Y13528
X39783Y13528
X40783Y13528
X41783Y13528
X42783Y13528
X38783Y3528
X39783Y3528
X40783Y3528
X41783Y3528
X42783Y3528
X39494Y50977
X15416Y33356
X15916Y32490
X16416Y31624
X16916Y30758
X17416Y29892
X20436Y29872
X20936Y30738
X21436Y31604
X21936Y32470
X22436Y33336
X16914Y35938
X17914Y35938
X18914Y35938
X19914Y35938
X20914Y35938
X3413Y6531
X3413Y7531
X3413Y8531
X3413Y9531
X3413Y10531
X13413Y6531
X13413Y7531
X13413Y8531
X13413Y9531
X13413Y10531
X6413Y13531
X7413Y13531
X8413Y13531
X9413Y13531
X10413Y13531
X6413Y3531
X7413Y3531
X8413Y3531
X9413Y3531
X10413Y3531
X26591Y49642
X25591Y49642
X24591Y49642
X23591Y49642
X22591Y49642
X30636Y52007
X31136Y52873
X31636Y53739
X32136Y54605
X32636Y55472
X32636Y60145
X32136Y61011
X31636Y61877
T6
X29841Y58709
X31569Y52623
X30841Y58709
X29841Y57709
X30841Y57709
X29841Y56709
X30841Y56709
X26591Y49142
X25591Y49142
X24591Y49142
X23591Y49142
X22591Y49142
X31069Y51757
X32069Y53489
X32569Y54355
X33069Y55222
X33069Y60395
X32569Y61261
X32069Y62127
X31569Y62993
X31069Y63859
X18093Y63856
X17593Y62990
X17093Y62124
X16593Y61258
X16093Y60392
X16107Y55207
X16607Y54341
X17107Y53475
X17607Y52609
X18107Y51743
T7
X48819Y59646
X48228Y59646
X47638Y59646
X47047Y59646
X394Y59646
X6398Y47392
X6398Y46801
X6398Y46211
X6398Y45620
X6398Y45030
X42815Y49163
X42815Y48573
X42815Y47982
X42815Y47392
X42815Y46211
X42815Y45620
X42815Y45030
X6102Y27756
X5709Y27165
X5315Y26575
X4921Y25984
X4528Y25394
X43110Y27756
X43504Y27165
X43898Y26575
X44291Y25984
X44685Y25394
X42815Y46801
X984Y59646
X6398Y47982
X6398Y48573
X6398Y49163
X48819Y34449
X48228Y34449
X47638Y34449
X47047Y34449
X48819Y38189
X48228Y38189
X47638Y38189
X47047Y38189
X2165Y34449
X1575Y34449
X984Y34449
X394Y34449
X2165Y38189
X1575Y38189
X984Y38189
X394Y38189
X394Y55906
X984Y55906
X1575Y55906
X2165Y55906
X48819Y55906
X48228Y55906
X47638Y55906
X47047Y55906
X4528Y2362
X4528Y1772
X4528Y1181
X4528Y591
X2165Y4528
X1575Y4528
X984Y4528
X394Y4528
X44685Y2362
X44685Y1772
X44685Y1181
X44685Y591
X47047Y4528
X47638Y4528
X48228Y4528
X48819Y4528
X47047Y23228
X47638Y23228
X48228Y23228
X48819Y23228
X2165Y23228
X1575Y23228
X984Y23228
X394Y23228
X2165Y59646
X1575Y59646
T8
X23724Y64142
X25457Y64142
T9
X19341Y56642
X19341Y58642
T10
X3407Y37246
X3667Y36946
X4032Y36776
X11047Y36776
X11407Y36951
X11677Y37246
X11802Y37626
X11767Y38021
X8257Y44101
X7927Y44326
X7537Y44406
X7147Y44326
X6817Y44101
X14677Y38033
X14642Y37633
X14772Y37258
X15032Y36958
X15397Y36788
X22412Y36788
X22772Y36963
X23042Y37258
X23167Y37638
X23132Y38033
X19622Y44113
X19292Y44338
X18902Y44418
X18512Y44338
X18182Y44113
X4007Y35925
X3643Y35756
X3383Y35456
X3253Y35081
X3289Y34679
X6796Y28604
X7128Y28380
X7518Y28294
X7910Y28375
X8234Y28603
X11775Y35081
X11649Y35459
X11385Y35757
X11025Y35930
X9705Y45765
X9341Y45595
X9081Y45295
X8951Y44920
X8987Y44519
X12494Y38444
X12826Y38220
X13216Y38133
X13608Y38215
X13932Y38443
X17443Y44523
X17473Y44921
X17347Y45299
X17083Y45596
X16723Y45770
X38132Y35903
X37768Y35733
X37508Y35433
X37379Y35058
X37414Y34657
X40921Y28582
X41253Y28357
X41643Y28271
X42035Y28353
X42360Y28581
X45870Y34660
X45900Y35059
X45774Y35436
X45510Y35734
X45150Y35907
X31706Y28167
X31671Y27767
X31801Y27392
X32061Y27092
X32426Y26922
X39441Y26922
X39801Y27097
X40071Y27392
X40196Y27772
X40161Y28167
X36651Y34247
X36321Y34472
X35931Y34552
X35541Y34472
X35211Y34247
X26037Y38003
X26002Y37603
X26132Y37228
X26392Y36928
X26757Y36758
X33772Y36758
X34132Y36933
X34402Y37228
X34527Y37608
X34492Y38003
X30982Y44083
X30652Y44308
X30262Y44388
X29872Y44308
X29542Y44083
X37401Y38015
X37366Y37615
X37496Y37240
X37756Y36940
X38121Y36770
X45136Y36770
X45496Y36945
X45766Y37240
X45891Y37620
X45856Y38015
X42346Y44095
X42016Y44320
X41626Y44400
X41236Y44320
X40906Y44095
X26731Y35908
X26367Y35738
X26107Y35438
X25978Y35063
X26013Y34662
X29520Y28587
X29852Y28362
X30242Y28276
X30634Y28358
X30959Y28586
X34469Y34665
X34499Y35064
X34373Y35441
X34109Y35739
X33749Y35912
X32429Y45747
X32065Y45578
X31806Y45278
X31676Y44902
X31711Y44501
X35219Y38426
X35550Y38202
X35941Y38116
X36332Y38197
X36657Y38425
X40167Y44505
X40197Y44903
X40071Y45281
X39807Y45579
X39447Y45752
X9727Y67217
X9363Y67047
X9103Y66747
X8973Y66372
X9009Y65971
X12516Y59895
X12848Y59671
X13238Y59585
X13630Y59667
X13954Y59894
X17465Y65974
X17495Y66372
X17369Y66750
X17105Y67048
X16745Y67221
X9011Y49639
X8976Y49239
X9106Y48864
X9366Y48564
X9731Y48394
X16746Y48394
X17106Y48569
X17376Y48864
X17501Y49244
X17466Y49639
X13956Y55719
X13626Y55944
X13236Y56024
X12846Y55944
X12516Y55719
X37405Y59478
X37370Y59078
X37500Y58703
X37760Y58403
X38125Y58233
X45140Y58233
X45500Y58408
X45770Y58703
X45895Y59083
X42350Y65558
X42020Y65783
X41630Y65863
X41240Y65783
X40910Y65558
X38124Y57388
X37761Y57218
X37501Y56918
X37371Y56543
X37406Y56142
X40914Y50067
X41245Y49842
X41636Y49756
X42027Y49838
X42352Y50066
X45862Y56145
X45892Y56544
X45767Y56921
X45502Y57219
X45142Y57393
X21067Y45750
X20703Y45580
X20444Y45280
X20314Y44905
X20349Y44504
X23857Y38429
X24188Y38205
X24579Y38118
X24970Y38200
X25295Y38428
X28805Y44508
X30028Y65717
X28709Y45284
X28445Y45581
X28085Y45755
X20352Y28173
X20317Y27773
X20447Y27398
X20707Y27098
X21072Y26928
X28087Y26928
X28447Y27103
X28717Y27398
X28842Y27778
X28807Y28173
X25297Y34253
X24967Y34478
X24577Y34558
X24187Y34478
X23857Y34253
X32457Y67225
X32093Y67055
X31833Y66755
X31704Y66380
X31739Y65979
X35246Y59903
X35578Y59679
X35968Y59593
X36360Y59675
X36685Y59902
X40195Y65982
X40225Y66380
X40099Y66758
X39835Y67056
X39475Y67229
X31742Y49647
X31707Y49247
X31837Y48872
X32097Y48572
X32462Y48402
X39477Y48402
X39837Y48577
X40107Y48872
X40232Y49252
X40197Y49647
X36687Y55727
X36357Y55952
X35967Y56032
X35577Y55952
X35247Y55727
X3312Y59472
X3277Y59072
X3407Y58697
X3667Y58397
X4032Y58227
X11047Y58227
X11407Y58402
X11677Y58697
X11802Y59077
X11767Y59472
X8257Y65552
X7927Y65777
X7537Y65857
X7147Y65777
X6817Y65552
X4032Y57382
X3668Y57212
X3408Y56912
X3278Y56537
X3314Y56136
X6821Y50061
X7153Y49837
X7543Y49750
X7935Y49832
X8259Y50060
X11770Y56140
X11800Y56538
X11674Y56916
X11410Y57213
X11050Y57387
X3701Y24035
X4031Y24254
X4416Y24325
X3483Y23706
X3407Y23320
X12401Y24325
X12786Y24254
X13114Y24031
X13332Y23710
X13407Y23317
X3407Y15333
X3483Y14944
X3697Y14621
X4027Y14400
X4418Y14325
X12399Y14325
X12784Y14400
X13114Y14619
X13332Y14948
X13407Y15333
X14497Y24033
X14826Y24252
X15211Y24323
X14278Y23704
X14203Y23319
X23196Y24323
X23582Y24252
X23909Y24029
X24128Y23708
X24203Y23315
X14203Y15331
X14278Y14942
X14493Y14619
X14822Y14398
X15213Y14323
X23194Y14323
X23580Y14398
X23909Y14617
X24128Y14946
X24203Y15331
X14497Y13244
X14826Y13462
X15211Y13534
X14278Y12914
X14203Y12529
X23196Y13534
X23582Y13462
X23909Y13240
X24128Y12918
X24203Y12525
X14203Y4542
X14278Y4153
X14493Y3829
X45860Y59478
X11745Y34683
X15408Y35921
X15044Y35751
X14784Y35451
X14654Y35076
X14689Y34675
X18197Y28599
X18529Y28375
X18919Y28289
X19311Y28370
X19635Y28598
X23146Y34678
X23175Y35076
X23050Y35454
X22785Y35752
X22426Y35925
X3711Y13244
X4040Y13462
X4426Y13534
X3492Y12914
X3417Y12529
X12411Y13534
X12796Y13462
X23580Y3608
X23194Y3533
X15213Y3533
X14822Y3608
X45787Y4538
X45712Y4153
X45493Y3823
X45164Y3604
X44779Y3529
X36798Y3529
X36407Y3604
X36077Y3825
X35863Y4149
X35787Y4538
X45787Y12521
X45712Y12914
X45493Y13236
X45166Y13459
X44781Y13530
X35787Y12525
X35863Y12910
X36796Y13530
X36411Y13459
X36081Y13240
X45787Y15327
X45712Y14942
X45493Y14613
X45164Y14394
X44779Y14319
X36798Y14319
X36407Y14394
X36077Y14615
X35863Y14938
X35787Y15327
X45787Y23311
X45712Y23704
X45493Y24025
X45166Y24248
X44781Y24319
X13123Y13240
X13342Y12918
X13417Y12525
X3417Y4542
X3492Y4153
X3707Y3829
X4037Y3608
X4428Y3533
X12409Y3533
X12794Y3608
X13123Y3827
X13342Y4156
X13417Y4542
X35787Y23315
X35863Y23700
X36796Y24319
X36411Y24248
X36081Y24029
X15028Y57055
X14874Y57421
X14823Y57811
X14874Y58201
X15028Y58563
X34992Y15329
X28835Y44906
X34698Y14615
X34369Y14396
X33984Y14321
X19157Y65717
X19394Y66028
X19709Y66268
X20071Y66417
X20461Y66469
X26002Y14321
X25611Y14396
X25282Y14617
X25067Y14940
X24992Y15329
X28720Y66469
X29110Y66417
X29476Y66268
X29787Y66028
X34154Y58563
X34992Y23313
X34917Y23706
X34698Y24027
X34371Y24250
X33986Y24321
X34307Y58201
X34358Y57811
X34307Y57417
X34154Y57055
X30024Y49902
X24992Y23317
X25067Y23702
X26001Y24321
X25615Y24250
X25286Y24031
X35002Y4538
X34927Y4153
X34708Y3823
X34379Y3604
X33994Y3529
X26012Y3529
X25621Y3604
X25292Y3825
X25077Y4149
X25002Y4538
X35002Y12521
X34927Y12914
X34708Y13236
X34381Y13459
X33996Y13530
X25002Y12525
X25077Y12910
X26010Y13530
X25625Y13459
X25296Y13240
X24203Y4542
X24128Y4156
X23909Y3827
X29787Y49591
X29476Y49350
X29110Y49201
X28720Y49150
X20461Y49150
X20071Y49201
X19705Y49350
X19394Y49591
X19157Y49902
X8982Y28184
X8947Y27784
X9077Y27409
X9337Y27109
X9702Y26939
X16717Y26939
X17077Y27114
X17347Y27409
X17472Y27789
X17437Y28184
X13927Y34264
X13597Y34489
X13207Y34569
X12817Y34489
X12487Y34264
X3312Y38021
X3277Y37621
X34917Y14944
T11
X25441Y62167
X20891Y59442
X22291Y58342
X27691Y60142
X27491Y58342
X29391Y54042
X25591Y52742
X26791Y59242
X23791Y59242
X26491Y59642
X23591Y59642
X27091Y58842
X23966Y62192
X23891Y58842
X23191Y57142
X27991Y55942
X25591Y57142
X23666Y61742
X23341Y62142
X25591Y54642
X23591Y55992
X23591Y54642
X21841Y64392
X21341Y61642
X20341Y55892
X20341Y54642
X19091Y59642
X20341Y60892
X28841Y60892
X29841Y59892
X25091Y52392
X24091Y52392
M30