G04 EAGLE Gerber X2 export*
G75*
%MOIN*%
%FSLAX24Y24*%
%LPD*%
%AMOC8*
5,1,8,0,0,1.08239X$1,22.5*%
G01*
%ADD10C,0.070992*%
%ADD11C,0.027685*%
%ADD12C,0.106425*%
%ADD13C,0.086740*%
%ADD14C,0.047370*%
%ADD15C,0.133984*%
%ADD16R,0.039496X0.055244*%
%ADD17R,0.073000X0.047370*%
%ADD18R,0.033000X0.058000*%
%ADD19C,0.082000*%
%ADD20R,0.055244X0.039496*%
%ADD21R,0.058000X0.033000*%
%ADD22R,0.063118X0.070992*%
%ADD23C,0.073000*%
%ADD24R,0.027685X0.067055*%
%ADD25R,0.067055X0.027685*%
%ADD26R,0.057213X0.074929*%
%ADD27C,0.010750*%
%ADD28P,0.088756X8X292.500000*%
%ADD29R,0.027685X0.106425*%
%ADD30R,0.086740X0.106425*%
%ADD31C,0.043433*%
%ADD32C,0.082000*%


D10*
X15623Y34977D03*
X22218Y34974D03*
X18915Y29256D03*
D11*
X15408Y35921D03*
X15044Y35751D03*
X14784Y35451D03*
X14654Y35076D03*
X14689Y34675D03*
X18197Y28599D03*
X18529Y28375D03*
X18919Y28289D03*
X19311Y28370D03*
X19635Y28598D03*
X23146Y34678D03*
X23175Y35076D03*
X23050Y35454D03*
X22785Y35752D03*
X22426Y35925D03*
D10*
X4393Y4511D03*
X4393Y12541D03*
X12433Y4521D03*
X12423Y12541D03*
D11*
X3711Y13244D03*
X4040Y13462D03*
X4426Y13534D03*
X3492Y12914D03*
X3417Y12529D03*
X12411Y13534D03*
X12796Y13462D03*
X13123Y13240D03*
X13342Y12918D03*
X13417Y12525D03*
X3417Y4542D03*
X3492Y4153D03*
X3707Y3829D03*
X4037Y3608D03*
X4428Y3533D03*
X12409Y3533D03*
X12794Y3608D03*
X13123Y3827D03*
X13342Y4156D03*
X13417Y4542D03*
D12*
X28741Y50622D03*
X20441Y50612D03*
X32881Y57802D03*
X28741Y64982D03*
X20441Y64982D03*
X16291Y57802D03*
D11*
X15028Y57055D03*
X14874Y57421D03*
X14823Y57811D03*
X14874Y58201D03*
X15028Y58563D03*
X19157Y65717D03*
X19394Y66028D03*
X19709Y66268D03*
X20071Y66417D03*
X20461Y66469D03*
X28720Y66469D03*
X29110Y66417D03*
X29476Y66268D03*
X29787Y66028D03*
X30028Y65717D03*
X34154Y58563D03*
X34307Y58201D03*
X34358Y57811D03*
X34307Y57417D03*
X34154Y57055D03*
X30024Y49902D03*
X29787Y49591D03*
X29476Y49350D03*
X29110Y49201D03*
X28720Y49150D03*
X20461Y49150D03*
X20071Y49201D03*
X19705Y49350D03*
X19394Y49591D03*
X19157Y49902D03*
D10*
X9907Y27899D03*
X13207Y33609D03*
X16507Y27889D03*
D11*
X8982Y28184D03*
X8947Y27784D03*
X9077Y27409D03*
X9337Y27109D03*
X9702Y26939D03*
X16717Y26939D03*
X17077Y27114D03*
X17347Y27409D03*
X17472Y27789D03*
X17437Y28184D03*
X13927Y34264D03*
X13597Y34489D03*
X13207Y34569D03*
X12817Y34489D03*
X12487Y34264D03*
D10*
X4237Y37736D03*
X7537Y43446D03*
X10837Y37726D03*
D11*
X3312Y38021D03*
X3277Y37621D03*
X3407Y37246D03*
X3667Y36946D03*
X4032Y36776D03*
X11047Y36776D03*
X11407Y36951D03*
X11677Y37246D03*
X11802Y37626D03*
X11767Y38021D03*
X8257Y44101D03*
X7927Y44326D03*
X7537Y44406D03*
X7147Y44326D03*
X6817Y44101D03*
D10*
X15602Y37748D03*
X18902Y43458D03*
X22202Y37738D03*
D11*
X14677Y38033D03*
X14642Y37633D03*
X14772Y37258D03*
X15032Y36958D03*
X15397Y36788D03*
X22412Y36788D03*
X22772Y36963D03*
X23042Y37258D03*
X23167Y37638D03*
X23132Y38033D03*
X19622Y44113D03*
X19292Y44338D03*
X18902Y44418D03*
X18512Y44338D03*
X18182Y44113D03*
D10*
X4222Y34982D03*
X10817Y34979D03*
X7514Y29261D03*
D11*
X4007Y35925D03*
X3643Y35756D03*
X3383Y35456D03*
X3253Y35081D03*
X3289Y34679D03*
X6796Y28604D03*
X7128Y28380D03*
X7518Y28294D03*
X7910Y28375D03*
X8234Y28603D03*
X11745Y34683D03*
X11775Y35081D03*
X11649Y35459D03*
X11385Y35757D03*
X11025Y35930D03*
D10*
X9921Y44821D03*
X16516Y44819D03*
X13212Y39101D03*
D11*
X9705Y45765D03*
X9341Y45595D03*
X9081Y45295D03*
X8951Y44920D03*
X8987Y44519D03*
X12494Y38444D03*
X12826Y38220D03*
X13216Y38133D03*
X13608Y38215D03*
X13932Y38443D03*
X17443Y44523D03*
X17473Y44921D03*
X17347Y45299D03*
X17083Y45596D03*
X16723Y45770D03*
D10*
X38348Y34959D03*
X44943Y34956D03*
X41639Y29238D03*
D11*
X38132Y35903D03*
X37768Y35733D03*
X37508Y35433D03*
X37379Y35058D03*
X37414Y34657D03*
X40921Y28582D03*
X41253Y28357D03*
X41643Y28271D03*
X42035Y28353D03*
X42360Y28581D03*
X45870Y34660D03*
X45900Y35059D03*
X45774Y35436D03*
X45510Y35734D03*
X45150Y35907D03*
D10*
X32631Y27882D03*
X35931Y33592D03*
X39231Y27872D03*
D11*
X31706Y28167D03*
X31671Y27767D03*
X31801Y27392D03*
X32061Y27092D03*
X32426Y26922D03*
X39441Y26922D03*
X39801Y27097D03*
X40071Y27392D03*
X40196Y27772D03*
X40161Y28167D03*
X36651Y34247D03*
X36321Y34472D03*
X35931Y34552D03*
X35541Y34472D03*
X35211Y34247D03*
D10*
X26962Y37718D03*
X30262Y43428D03*
X33562Y37708D03*
D11*
X26037Y38003D03*
X26002Y37603D03*
X26132Y37228D03*
X26392Y36928D03*
X26757Y36758D03*
X33772Y36758D03*
X34132Y36933D03*
X34402Y37228D03*
X34527Y37608D03*
X34492Y38003D03*
X30982Y44083D03*
X30652Y44308D03*
X30262Y44388D03*
X29872Y44308D03*
X29542Y44083D03*
D10*
X38326Y37730D03*
X41626Y43440D03*
X44926Y37720D03*
D11*
X37401Y38015D03*
X37366Y37615D03*
X37496Y37240D03*
X37756Y36940D03*
X38121Y36770D03*
X45136Y36770D03*
X45496Y36945D03*
X45766Y37240D03*
X45891Y37620D03*
X45856Y38015D03*
X42346Y44095D03*
X42016Y44320D03*
X41626Y44400D03*
X41236Y44320D03*
X40906Y44095D03*
D10*
X26947Y34964D03*
X33542Y34961D03*
X30238Y29243D03*
D11*
X26731Y35908D03*
X26367Y35738D03*
X26107Y35438D03*
X25978Y35063D03*
X26013Y34662D03*
X29520Y28587D03*
X29852Y28362D03*
X30242Y28276D03*
X30634Y28358D03*
X30959Y28586D03*
X34469Y34665D03*
X34499Y35064D03*
X34373Y35441D03*
X34109Y35739D03*
X33749Y35912D03*
D10*
X32645Y44804D03*
X39240Y44801D03*
X35936Y39083D03*
D11*
X32429Y45747D03*
X32065Y45578D03*
X31806Y45278D03*
X31676Y44902D03*
X31711Y44501D03*
X35219Y38426D03*
X35550Y38202D03*
X35941Y38116D03*
X36332Y38197D03*
X36657Y38425D03*
X40167Y44505D03*
X40197Y44903D03*
X40071Y45281D03*
X39807Y45579D03*
X39447Y45752D03*
D10*
X9943Y66273D03*
X16538Y66270D03*
X13234Y60552D03*
D11*
X9727Y67217D03*
X9363Y67047D03*
X9103Y66747D03*
X8973Y66372D03*
X9009Y65971D03*
X12516Y59895D03*
X12848Y59671D03*
X13238Y59585D03*
X13630Y59667D03*
X13954Y59894D03*
X17465Y65974D03*
X17495Y66372D03*
X17369Y66750D03*
X17105Y67048D03*
X16745Y67221D03*
D10*
X9936Y49354D03*
X13236Y55064D03*
X16536Y49344D03*
D11*
X9011Y49639D03*
X8976Y49239D03*
X9106Y48864D03*
X9366Y48564D03*
X9731Y48394D03*
X16746Y48394D03*
X17106Y48569D03*
X17376Y48864D03*
X17501Y49244D03*
X17466Y49639D03*
X13956Y55719D03*
X13626Y55944D03*
X13236Y56024D03*
X12846Y55944D03*
X12516Y55719D03*
D10*
X38330Y59193D03*
X41630Y64903D03*
X44930Y59183D03*
D11*
X37405Y59478D03*
X37370Y59078D03*
X37500Y58703D03*
X37760Y58403D03*
X38125Y58233D03*
X45140Y58233D03*
X45500Y58408D03*
X45770Y58703D03*
X45895Y59083D03*
X45860Y59478D03*
X42350Y65558D03*
X42020Y65783D03*
X41630Y65863D03*
X41240Y65783D03*
X40910Y65558D03*
D10*
X38340Y56444D03*
X44935Y56441D03*
X41632Y50724D03*
D11*
X38124Y57388D03*
X37761Y57218D03*
X37501Y56918D03*
X37371Y56543D03*
X37406Y56142D03*
X40914Y50067D03*
X41245Y49842D03*
X41636Y49756D03*
X42027Y49838D03*
X42352Y50066D03*
X45862Y56145D03*
X45892Y56544D03*
X45767Y56921D03*
X45502Y57219D03*
X45142Y57393D03*
D10*
X21283Y44807D03*
X27878Y44804D03*
X24574Y39086D03*
D11*
X21067Y45750D03*
X20703Y45580D03*
X20444Y45280D03*
X20314Y44905D03*
X20349Y44504D03*
X23857Y38429D03*
X24188Y38205D03*
X24579Y38118D03*
X24970Y38200D03*
X25295Y38428D03*
X28805Y44508D03*
X28835Y44906D03*
X28709Y45284D03*
X28445Y45581D03*
X28085Y45755D03*
D10*
X21277Y27888D03*
X24577Y33598D03*
X27877Y27878D03*
D11*
X20352Y28173D03*
X20317Y27773D03*
X20447Y27398D03*
X20707Y27098D03*
X21072Y26928D03*
X28087Y26928D03*
X28447Y27103D03*
X28717Y27398D03*
X28842Y27778D03*
X28807Y28173D03*
X25297Y34253D03*
X24967Y34478D03*
X24577Y34558D03*
X24187Y34478D03*
X23857Y34253D03*
D10*
X32673Y66281D03*
X39268Y66278D03*
X35964Y60560D03*
D11*
X32457Y67225D03*
X32093Y67055D03*
X31833Y66755D03*
X31704Y66380D03*
X31739Y65979D03*
X35246Y59903D03*
X35578Y59679D03*
X35968Y59593D03*
X36360Y59675D03*
X36685Y59902D03*
X40195Y65982D03*
X40225Y66380D03*
X40099Y66758D03*
X39835Y67056D03*
X39475Y67229D03*
D10*
X32667Y49362D03*
X35967Y55072D03*
X39267Y49352D03*
D11*
X31742Y49647D03*
X31707Y49247D03*
X31837Y48872D03*
X32097Y48572D03*
X32462Y48402D03*
X39477Y48402D03*
X39837Y48577D03*
X40107Y48872D03*
X40232Y49252D03*
X40197Y49647D03*
X36687Y55727D03*
X36357Y55952D03*
X35967Y56032D03*
X35577Y55952D03*
X35247Y55727D03*
D10*
X4237Y59187D03*
X7537Y64897D03*
X10837Y59177D03*
D11*
X3312Y59472D03*
X3277Y59072D03*
X3407Y58697D03*
X3667Y58397D03*
X4032Y58227D03*
X11047Y58227D03*
X11407Y58402D03*
X11677Y58697D03*
X11802Y59077D03*
X11767Y59472D03*
X8257Y65552D03*
X7927Y65777D03*
X7537Y65857D03*
X7147Y65777D03*
X6817Y65552D03*
D10*
X4248Y56438D03*
X10843Y56436D03*
X7539Y50718D03*
D11*
X4032Y57382D03*
X3668Y57212D03*
X3408Y56912D03*
X3278Y56537D03*
X3314Y56136D03*
X6821Y50061D03*
X7153Y49837D03*
X7543Y49750D03*
X7935Y49832D03*
X8259Y50060D03*
X11770Y56140D03*
X11800Y56538D03*
X11674Y56916D03*
X11410Y57213D03*
X11050Y57387D03*
D10*
X4384Y15303D03*
X4384Y23333D03*
X12424Y15313D03*
X12414Y23333D03*
D11*
X3701Y24035D03*
X4031Y24254D03*
X4416Y24325D03*
X3483Y23706D03*
X3407Y23320D03*
X12401Y24325D03*
X12786Y24254D03*
X13114Y24031D03*
X13332Y23710D03*
X13407Y23317D03*
X3407Y15333D03*
X3483Y14944D03*
X3697Y14621D03*
X4027Y14400D03*
X4418Y14325D03*
X12399Y14325D03*
X12784Y14400D03*
X13114Y14619D03*
X13332Y14948D03*
X13407Y15333D03*
D10*
X15179Y15301D03*
X15179Y23331D03*
X23219Y15311D03*
X23209Y23331D03*
D11*
X14497Y24033D03*
X14826Y24252D03*
X15211Y24323D03*
X14278Y23704D03*
X14203Y23319D03*
X23196Y24323D03*
X23582Y24252D03*
X23909Y24029D03*
X24128Y23708D03*
X24203Y23315D03*
X14203Y15331D03*
X14278Y14942D03*
X14493Y14619D03*
X14822Y14398D03*
X15213Y14323D03*
X23194Y14323D03*
X23580Y14398D03*
X23909Y14617D03*
X24128Y14946D03*
X24203Y15331D03*
D10*
X15179Y4511D03*
X15179Y12541D03*
X23219Y4521D03*
X23209Y12541D03*
D11*
X14497Y13244D03*
X14826Y13462D03*
X15211Y13534D03*
X14278Y12914D03*
X14203Y12529D03*
X23196Y13534D03*
X23582Y13462D03*
X23909Y13240D03*
X24128Y12918D03*
X24203Y12525D03*
X14203Y4542D03*
X14278Y4153D03*
X14493Y3829D03*
X14822Y3608D03*
X15213Y3533D03*
X23194Y3533D03*
X23580Y3608D03*
X23909Y3827D03*
X24128Y4156D03*
X24203Y4542D03*
D10*
X25978Y4508D03*
X25978Y12538D03*
X34018Y4518D03*
X34008Y12538D03*
D11*
X25296Y13240D03*
X25625Y13459D03*
X26010Y13530D03*
X25077Y12910D03*
X25002Y12525D03*
X33996Y13530D03*
X34381Y13459D03*
X34708Y13236D03*
X34927Y12914D03*
X35002Y12521D03*
X25002Y4538D03*
X25077Y4149D03*
X25292Y3825D03*
X25621Y3604D03*
X26012Y3529D03*
X33994Y3529D03*
X34379Y3604D03*
X34708Y3823D03*
X34927Y4153D03*
X35002Y4538D03*
D10*
X25968Y15299D03*
X25968Y23329D03*
X34008Y15309D03*
X33998Y23329D03*
D11*
X25286Y24031D03*
X25615Y24250D03*
X26001Y24321D03*
X25067Y23702D03*
X24992Y23317D03*
X33986Y24321D03*
X34371Y24250D03*
X34698Y24027D03*
X34917Y23706D03*
X34992Y23313D03*
X24992Y15329D03*
X25067Y14940D03*
X25282Y14617D03*
X25611Y14396D03*
X26002Y14321D03*
X33984Y14321D03*
X34369Y14396D03*
X34698Y14615D03*
X34917Y14944D03*
X34992Y15329D03*
D10*
X36763Y15297D03*
X36763Y23327D03*
X44803Y15307D03*
X44793Y23327D03*
D11*
X36081Y24029D03*
X36411Y24248D03*
X36796Y24319D03*
X35863Y23700D03*
X35787Y23315D03*
X44781Y24319D03*
X45166Y24248D03*
X45493Y24025D03*
X45712Y23704D03*
X45787Y23311D03*
X35787Y15327D03*
X35863Y14938D03*
X36077Y14615D03*
X36407Y14394D03*
X36798Y14319D03*
X44779Y14319D03*
X45164Y14394D03*
X45493Y14613D03*
X45712Y14942D03*
X45787Y15327D03*
D10*
X36763Y4508D03*
X36763Y12538D03*
X44803Y4518D03*
X44793Y12538D03*
D11*
X36081Y13240D03*
X36411Y13459D03*
X36796Y13530D03*
X35863Y12910D03*
X35787Y12525D03*
X44781Y13530D03*
X45166Y13459D03*
X45493Y13236D03*
X45712Y12914D03*
X45787Y12521D03*
X35787Y4538D03*
X35863Y4149D03*
X36077Y3825D03*
X36407Y3604D03*
X36798Y3529D03*
X44779Y3529D03*
X45164Y3604D03*
X45493Y3823D03*
X45712Y4153D03*
X45787Y4538D03*
D13*
X4520Y3142D03*
X3016Y4634D03*
X3020Y12433D03*
X4516Y13929D03*
X12307Y13933D03*
X13807Y12425D03*
X15315Y13925D03*
X13807Y15425D03*
X12311Y3146D03*
X13807Y4634D03*
X15303Y3142D03*
X23094Y3138D03*
X26094Y3138D03*
X24606Y4646D03*
X33894Y3138D03*
X35394Y4638D03*
X36878Y3134D03*
X44681Y3138D03*
X46185Y4642D03*
X46189Y12429D03*
X44685Y13929D03*
X36898Y13929D03*
X35390Y12433D03*
X33890Y13925D03*
X35394Y15429D03*
X46181Y15425D03*
X24602Y12425D03*
X23098Y13925D03*
X24598Y15433D03*
X26094Y13921D03*
X3016Y15429D03*
X3016Y23220D03*
X4524Y24717D03*
X12299Y24720D03*
X13811Y23217D03*
X15303Y24720D03*
X23102Y24709D03*
X26098Y24717D03*
X24602Y23209D03*
X33886Y24720D03*
X35390Y23217D03*
X36878Y24713D03*
X44685Y24713D03*
X46181Y23220D03*
X10961Y36343D03*
X12098Y38299D03*
X14354Y38303D03*
X15484Y36350D03*
X14350Y34402D03*
X12087Y34394D03*
X23461Y38303D03*
X25705Y38287D03*
X26831Y36331D03*
X25701Y34382D03*
X23457Y34386D03*
X22335Y36350D03*
X34815Y38280D03*
X37079Y38295D03*
X38197Y36339D03*
X37071Y34378D03*
X34815Y34370D03*
X33693Y36339D03*
X12094Y59772D03*
X10969Y57811D03*
X12098Y55858D03*
X14370Y55862D03*
X14740Y56780D03*
X14740Y58854D03*
X14378Y59764D03*
X34449Y58850D03*
X34846Y59764D03*
X37087Y59760D03*
X38201Y57815D03*
X37083Y55858D03*
X34839Y55866D03*
X34445Y56760D03*
X16650Y46193D03*
X17772Y44244D03*
X20028Y44236D03*
X21157Y46177D03*
X20567Y48748D03*
X18768Y49787D03*
X17799Y49925D03*
X16665Y47969D03*
X28630Y48752D03*
X30417Y49799D03*
X31413Y49925D03*
X32531Y47969D03*
X32512Y46177D03*
X31398Y44220D03*
X29142Y44232D03*
X28012Y46181D03*
X6406Y44236D03*
X8669Y44240D03*
X9791Y46193D03*
X9807Y47969D03*
X8673Y49921D03*
X6417Y49917D03*
X42772Y49921D03*
X40512Y49929D03*
X39386Y47969D03*
X39378Y46173D03*
X40504Y44228D03*
X42764Y44228D03*
X2988Y38307D03*
X4102Y36350D03*
X2972Y34390D03*
X6406Y28457D03*
X8661Y28453D03*
X9787Y26508D03*
X16650Y26508D03*
X17780Y28461D03*
X20035Y28457D03*
X21161Y26500D03*
X28008Y26504D03*
X29130Y28449D03*
X31390Y28457D03*
X32516Y26500D03*
X39370Y26500D03*
X40512Y28445D03*
X42768Y28445D03*
X46189Y34378D03*
X45063Y36339D03*
X46193Y38295D03*
X2988Y55858D03*
X4114Y57803D03*
X2988Y59760D03*
X6421Y65693D03*
X8677Y65697D03*
X9811Y67654D03*
X16665Y67642D03*
X17791Y65693D03*
X18768Y65831D03*
X20563Y66870D03*
X28626Y66862D03*
X30417Y65827D03*
X31413Y65705D03*
X32531Y67654D03*
X39394Y67654D03*
X40512Y65701D03*
X42764Y65697D03*
X46189Y59764D03*
X45059Y57815D03*
X46193Y55862D03*
D14*
X4528Y2362D03*
X4528Y1772D03*
X4528Y1181D03*
X4528Y591D03*
X2165Y4528D03*
X1575Y4528D03*
X984Y4528D03*
X394Y4528D03*
X44685Y2362D03*
X44685Y1772D03*
X44685Y1181D03*
X44685Y591D03*
X47047Y4528D03*
X47638Y4528D03*
X48228Y4528D03*
X48819Y4528D03*
X47047Y23228D03*
X47638Y23228D03*
X48228Y23228D03*
X48819Y23228D03*
X2165Y23228D03*
X1575Y23228D03*
X984Y23228D03*
X394Y23228D03*
X2165Y59646D03*
X1575Y59646D03*
X984Y59646D03*
X394Y59646D03*
X47047Y59646D03*
X47638Y59646D03*
X48228Y59646D03*
X48819Y59646D03*
X47047Y55906D03*
X47638Y55906D03*
X48228Y55906D03*
X48819Y55906D03*
X2165Y55906D03*
X1575Y55906D03*
X984Y55906D03*
X394Y55906D03*
X394Y38189D03*
X984Y38189D03*
X1575Y38189D03*
X2165Y38189D03*
X394Y34449D03*
X984Y34449D03*
X1575Y34449D03*
X2165Y34449D03*
X47047Y38189D03*
X47638Y38189D03*
X48228Y38189D03*
X48819Y38189D03*
X47047Y34449D03*
X47638Y34449D03*
X48228Y34449D03*
X48819Y34449D03*
X6398Y49163D03*
X6398Y48573D03*
X6398Y47982D03*
X6398Y47392D03*
X6398Y46801D03*
X6398Y46211D03*
X6398Y45620D03*
X6398Y45030D03*
X42815Y49163D03*
X42815Y48573D03*
X42815Y47982D03*
X42815Y47392D03*
X42815Y46801D03*
X42815Y46211D03*
X42815Y45620D03*
X42815Y45030D03*
X6102Y27756D03*
X5709Y27165D03*
X5315Y26575D03*
X4921Y25984D03*
X4528Y25394D03*
X43110Y27756D03*
X43504Y27165D03*
X43898Y26575D03*
X44291Y25984D03*
X44685Y25394D03*
D15*
X1969Y1969D03*
X47244Y1969D03*
X47244Y68898D03*
X1969Y68898D03*
D16*
G36*
X16805Y34765D02*
X17145Y34962D01*
X17421Y34485D01*
X17081Y34288D01*
X16805Y34765D01*
G37*
G36*
X16192Y34410D02*
X16532Y34607D01*
X16808Y34130D01*
X16468Y33933D01*
X16192Y34410D01*
G37*
D17*
G36*
X18903Y32309D02*
X19268Y31678D01*
X18859Y31441D01*
X18494Y32072D01*
X18903Y32309D01*
G37*
G36*
X17888Y34067D02*
X18253Y33436D01*
X17844Y33199D01*
X17479Y33830D01*
X17888Y34067D01*
G37*
G36*
X18979Y34697D02*
X19344Y34066D01*
X18935Y33829D01*
X18570Y34460D01*
X18979Y34697D01*
G37*
G36*
X19994Y32939D02*
X20359Y32308D01*
X19950Y32071D01*
X19585Y32702D01*
X19994Y32939D01*
G37*
D18*
G36*
X20320Y34441D02*
X20485Y34156D01*
X19984Y33867D01*
X19819Y34152D01*
X20320Y34441D01*
G37*
G36*
X20143Y34748D02*
X20308Y34463D01*
X19807Y34174D01*
X19642Y34459D01*
X20143Y34748D01*
G37*
G36*
X20307Y33308D02*
X20142Y33593D01*
X20643Y33882D01*
X20808Y33597D01*
X20307Y33308D01*
G37*
G36*
X20484Y33001D02*
X20319Y33286D01*
X20820Y33575D01*
X20985Y33290D01*
X20484Y33001D01*
G37*
D16*
G36*
X19055Y30868D02*
X19395Y31065D01*
X19671Y30588D01*
X19331Y30391D01*
X19055Y30868D01*
G37*
G36*
X18442Y30513D02*
X18782Y30710D01*
X19058Y30233D01*
X18718Y30036D01*
X18442Y30513D01*
G37*
D19*
X15736Y33541D02*
X15096Y33171D01*
X15596Y32305D02*
X16236Y32675D01*
X16736Y31809D02*
X16096Y31439D01*
X16596Y30573D02*
X17236Y30943D01*
X17736Y30077D02*
X17096Y29707D01*
X20115Y30057D02*
X20756Y29687D01*
X21256Y30553D02*
X20615Y30923D01*
X21115Y31789D02*
X21756Y31419D01*
X22256Y32285D02*
X21615Y32655D01*
X22115Y33521D02*
X22756Y33151D01*
X16914Y35568D02*
X16914Y36308D01*
X17914Y36308D02*
X17914Y35568D01*
X18914Y35568D02*
X18914Y36308D01*
X19914Y36308D02*
X19914Y35568D01*
X20914Y35568D02*
X20914Y36308D01*
D20*
X6413Y6886D03*
X6413Y6177D03*
D17*
X9428Y7902D03*
X7399Y7902D03*
X7399Y9161D03*
X9428Y9161D03*
D18*
X9736Y10531D03*
X10091Y10531D03*
D21*
X8413Y10854D03*
X8413Y11209D03*
D18*
X7091Y10531D03*
X6736Y10531D03*
D19*
X3783Y6531D02*
X3043Y6531D01*
X3043Y7531D02*
X3783Y7531D01*
X3783Y8531D02*
X3043Y8531D01*
X3043Y9531D02*
X3783Y9531D01*
X3783Y10531D02*
X3043Y10531D01*
X13043Y6531D02*
X13783Y6531D01*
X13783Y7531D02*
X13043Y7531D01*
X13043Y8531D02*
X13783Y8531D01*
X13783Y9531D02*
X13043Y9531D01*
X13043Y10531D02*
X13783Y10531D01*
X6413Y13161D02*
X6413Y13901D01*
X7413Y13901D02*
X7413Y13161D01*
X8413Y13161D02*
X8413Y13901D01*
X9413Y13901D02*
X9413Y13161D01*
X10413Y13161D02*
X10413Y13901D01*
X6413Y3901D02*
X6413Y3161D01*
X7413Y3161D02*
X7413Y3901D01*
X8413Y3901D02*
X8413Y3161D01*
X9413Y3161D02*
X9413Y3901D01*
X10413Y3901D02*
X10413Y3161D01*
D20*
X10413Y6886D03*
X10413Y6177D03*
D16*
X27736Y52892D03*
X28445Y52892D03*
D22*
X21142Y63142D03*
X20039Y63142D03*
D16*
X21736Y59642D03*
X22445Y59642D03*
X28445Y53892D03*
X27736Y53892D03*
D20*
X28091Y57496D03*
X28091Y56787D03*
D16*
X21445Y53892D03*
X20736Y53892D03*
D23*
X19341Y58642D03*
X19341Y56642D03*
D20*
X20841Y56537D03*
X20841Y57246D03*
X20841Y58746D03*
X20841Y58037D03*
X24091Y60996D03*
X24091Y60287D03*
X25341Y60287D03*
X25341Y60996D03*
X26091Y60287D03*
X26091Y60996D03*
D24*
X26165Y58175D03*
X25850Y58175D03*
X25535Y58175D03*
X25220Y58175D03*
X24906Y58175D03*
X24591Y58175D03*
X24276Y58175D03*
X23961Y58175D03*
X23646Y58175D03*
X23331Y58175D03*
X23016Y58175D03*
D25*
X22307Y57467D03*
X22307Y57152D03*
X22307Y56837D03*
X22307Y56522D03*
X22307Y56207D03*
X22307Y55892D03*
X22307Y55577D03*
X22307Y55262D03*
X22307Y54947D03*
X22307Y54632D03*
X22307Y54317D03*
D24*
X23016Y53608D03*
X23331Y53608D03*
X23646Y53608D03*
X23961Y53608D03*
X24276Y53608D03*
X24591Y53608D03*
X24906Y53608D03*
X25220Y53608D03*
X25535Y53608D03*
X25850Y53608D03*
X26165Y53608D03*
D25*
X26874Y54317D03*
X26874Y54632D03*
X26874Y54947D03*
X26874Y55262D03*
X26874Y55577D03*
X26874Y55892D03*
X26874Y56207D03*
X26874Y56522D03*
X26874Y56837D03*
X26874Y57152D03*
X26874Y57467D03*
D26*
X22957Y60642D03*
X21224Y60642D03*
D27*
X21280Y53128D02*
X21602Y53128D01*
X21602Y52656D01*
X21280Y52656D01*
X21280Y53128D01*
X21280Y52763D02*
X21602Y52763D01*
X21602Y52870D02*
X21280Y52870D01*
X21280Y52977D02*
X21602Y52977D01*
X21602Y53084D02*
X21280Y53084D01*
X20902Y53128D02*
X20580Y53128D01*
X20902Y53128D02*
X20902Y52656D01*
X20580Y52656D01*
X20580Y53128D01*
X20580Y52763D02*
X20902Y52763D01*
X20902Y52870D02*
X20580Y52870D01*
X20580Y52977D02*
X20902Y52977D01*
X20902Y53084D02*
X20580Y53084D01*
D28*
X29841Y58709D03*
X30841Y58709D03*
X29841Y57709D03*
X30841Y57709D03*
X29841Y56709D03*
X30841Y56709D03*
D20*
X24591Y51496D03*
X24591Y50787D03*
D29*
X24591Y63157D03*
X24906Y63157D03*
X23961Y63157D03*
X24276Y63157D03*
D30*
X22819Y65323D03*
X26362Y65323D03*
X22819Y63157D03*
X26362Y63157D03*
D29*
X25220Y63157D03*
D31*
X25457Y64142D03*
X23724Y64142D03*
D22*
X28039Y63142D03*
X29142Y63142D03*
X23142Y51392D03*
X22039Y51392D03*
X26039Y51392D03*
X27142Y51392D03*
D32*
X26591Y49142D03*
X25591Y49142D03*
X24591Y49142D03*
X23591Y49142D03*
X22591Y49142D03*
D19*
X26591Y49272D02*
X26591Y50012D01*
X25591Y50012D02*
X25591Y49272D01*
X24591Y49272D02*
X24591Y50012D01*
X23591Y50012D02*
X23591Y49272D01*
X22591Y49272D02*
X22591Y50012D01*
D32*
X31069Y51757D03*
X31569Y52623D03*
X32069Y53489D03*
X32569Y54355D03*
X33069Y55222D03*
D19*
X30956Y51822D02*
X30315Y52192D01*
X30815Y53058D02*
X31456Y52688D01*
X31956Y53554D02*
X31315Y53924D01*
X31815Y54790D02*
X32456Y54420D01*
X32956Y55287D02*
X32315Y55657D01*
D16*
G36*
X30062Y54330D02*
X29722Y54527D01*
X29998Y55004D01*
X30338Y54807D01*
X30062Y54330D01*
G37*
G36*
X30675Y53975D02*
X30335Y54172D01*
X30611Y54649D01*
X30951Y54452D01*
X30675Y53975D01*
G37*
D32*
X33069Y60395D03*
X32569Y61261D03*
X32069Y62127D03*
X31569Y62993D03*
X31069Y63859D03*
D19*
X32956Y60330D02*
X32315Y59960D01*
X31815Y60826D02*
X32456Y61196D01*
X31956Y62062D02*
X31315Y61692D01*
X30815Y62558D02*
X31456Y62928D01*
X30956Y63794D02*
X30315Y63424D01*
D16*
G36*
X30338Y60810D02*
X29998Y60613D01*
X29722Y61090D01*
X30062Y61287D01*
X30338Y60810D01*
G37*
G36*
X30951Y61164D02*
X30611Y60967D01*
X30335Y61444D01*
X30675Y61641D01*
X30951Y61164D01*
G37*
D32*
X18093Y63856D03*
X17593Y62990D03*
X17093Y62124D03*
X16593Y61258D03*
X16093Y60392D03*
D19*
X18205Y63791D02*
X18846Y63421D01*
X18346Y62555D02*
X17705Y62925D01*
X17205Y62059D02*
X17846Y61689D01*
X17346Y60823D02*
X16705Y61193D01*
X16205Y60327D02*
X16846Y59957D01*
D16*
G36*
X19099Y61284D02*
X19439Y61087D01*
X19163Y60610D01*
X18823Y60807D01*
X19099Y61284D01*
G37*
G36*
X18486Y61638D02*
X18826Y61441D01*
X18550Y60964D01*
X18210Y61161D01*
X18486Y61638D01*
G37*
D32*
X16107Y55207D03*
X16607Y54341D03*
X17107Y53475D03*
X17607Y52609D03*
X18107Y51743D03*
D19*
X16219Y55272D02*
X16860Y55642D01*
X17360Y54776D02*
X16719Y54406D01*
X17219Y53540D02*
X17860Y53910D01*
X18360Y53044D02*
X17719Y52674D01*
X18219Y51808D02*
X18860Y52178D01*
D16*
G36*
X18838Y54792D02*
X19178Y54989D01*
X19454Y54512D01*
X19114Y54315D01*
X18838Y54792D01*
G37*
G36*
X18224Y54438D02*
X18564Y54635D01*
X18840Y54158D01*
X18500Y53961D01*
X18224Y54438D01*
G37*
D20*
X10957Y29014D03*
X10957Y28305D03*
D17*
X14221Y29170D03*
X12192Y29170D03*
X12192Y30429D03*
X14221Y30429D03*
D18*
X12884Y31409D03*
X12530Y31409D03*
X13530Y31409D03*
X13884Y31409D03*
D20*
X15457Y29014D03*
X15457Y28305D03*
D19*
X11207Y27279D02*
X11207Y26539D01*
X12207Y26539D02*
X12207Y27279D01*
X13207Y27279D02*
X13207Y26539D01*
X14207Y26539D02*
X14207Y27279D01*
X15207Y27279D02*
X15207Y26539D01*
X16414Y29329D02*
X17055Y29699D01*
X16555Y30565D02*
X15914Y30195D01*
X15414Y31061D02*
X16055Y31431D01*
X15555Y32298D02*
X14914Y31928D01*
X14414Y32794D02*
X15055Y33164D01*
X10041Y29313D02*
X9400Y29683D01*
X9900Y30549D02*
X10541Y30179D01*
X11041Y31045D02*
X10400Y31415D01*
X10900Y32281D02*
X11541Y31911D01*
X12041Y32777D02*
X11400Y33147D01*
D20*
X5287Y38850D03*
X5287Y38142D03*
D17*
X8552Y39006D03*
X6523Y39006D03*
X6523Y40266D03*
X8552Y40266D03*
D18*
X7215Y41246D03*
X6860Y41246D03*
X7860Y41246D03*
X8215Y41246D03*
D20*
X9787Y38850D03*
X9787Y38142D03*
D19*
X5537Y37116D02*
X5537Y36376D01*
X6537Y36376D02*
X6537Y37116D01*
X7537Y37116D02*
X7537Y36376D01*
X8537Y36376D02*
X8537Y37116D01*
X9537Y37116D02*
X9537Y36376D01*
X10744Y39166D02*
X11385Y39536D01*
X10885Y40402D02*
X10244Y40032D01*
X9744Y40898D02*
X10385Y41268D01*
X9885Y42134D02*
X9244Y41764D01*
X8744Y42630D02*
X9385Y43000D01*
X4371Y39149D02*
X3731Y39519D01*
X4231Y40385D02*
X4871Y40015D01*
X5371Y40881D02*
X4731Y41251D01*
X5231Y42117D02*
X5871Y41747D01*
X6371Y42613D02*
X5731Y42983D01*
D20*
X16652Y38862D03*
X16652Y38154D03*
D17*
X19916Y39018D03*
X17887Y39018D03*
X17887Y40278D03*
X19916Y40278D03*
D18*
X18579Y41258D03*
X18224Y41258D03*
X19224Y41258D03*
X19579Y41258D03*
D20*
X21152Y38862D03*
X21152Y38154D03*
D19*
X16902Y37128D02*
X16902Y36388D01*
X17902Y36388D02*
X17902Y37128D01*
X18902Y37128D02*
X18902Y36388D01*
X19902Y36388D02*
X19902Y37128D01*
X20902Y37128D02*
X20902Y36388D01*
X22109Y39178D02*
X22749Y39548D01*
X22249Y40414D02*
X21609Y40044D01*
X21109Y40910D02*
X21749Y41280D01*
X21249Y42146D02*
X20609Y41776D01*
X20109Y42642D02*
X20749Y43012D01*
X15736Y39161D02*
X15095Y39531D01*
X15595Y40397D02*
X16236Y40027D01*
X16736Y40893D02*
X16095Y41263D01*
X16595Y42129D02*
X17236Y41759D01*
X17736Y42625D02*
X17095Y42995D01*
D16*
G36*
X5404Y34770D02*
X5744Y34967D01*
X6020Y34490D01*
X5680Y34293D01*
X5404Y34770D01*
G37*
G36*
X4791Y34415D02*
X5131Y34612D01*
X5407Y34135D01*
X5067Y33938D01*
X4791Y34415D01*
G37*
D17*
G36*
X7502Y32314D02*
X7867Y31683D01*
X7458Y31446D01*
X7093Y32077D01*
X7502Y32314D01*
G37*
G36*
X6487Y34072D02*
X6852Y33441D01*
X6443Y33204D01*
X6078Y33835D01*
X6487Y34072D01*
G37*
G36*
X7578Y34702D02*
X7943Y34071D01*
X7534Y33834D01*
X7169Y34465D01*
X7578Y34702D01*
G37*
G36*
X8593Y32944D02*
X8958Y32313D01*
X8549Y32076D01*
X8184Y32707D01*
X8593Y32944D01*
G37*
D18*
G36*
X8919Y34446D02*
X9084Y34161D01*
X8583Y33872D01*
X8418Y34157D01*
X8919Y34446D01*
G37*
G36*
X8742Y34752D02*
X8907Y34467D01*
X8406Y34178D01*
X8241Y34463D01*
X8742Y34752D01*
G37*
G36*
X8906Y33312D02*
X8741Y33597D01*
X9242Y33886D01*
X9407Y33601D01*
X8906Y33312D01*
G37*
G36*
X9083Y33006D02*
X8918Y33291D01*
X9419Y33580D01*
X9584Y33295D01*
X9083Y33006D01*
G37*
D16*
G36*
X7654Y30873D02*
X7994Y31070D01*
X8270Y30593D01*
X7930Y30396D01*
X7654Y30873D01*
G37*
G36*
X7041Y30518D02*
X7381Y30715D01*
X7657Y30238D01*
X7317Y30041D01*
X7041Y30518D01*
G37*
D19*
X4335Y33546D02*
X3695Y33176D01*
X4195Y32310D02*
X4835Y32680D01*
X5335Y31814D02*
X4695Y31444D01*
X5195Y30578D02*
X5835Y30948D01*
X6335Y30082D02*
X5695Y29712D01*
X8714Y30062D02*
X9355Y29692D01*
X9855Y30558D02*
X9214Y30928D01*
X9714Y31794D02*
X10355Y31424D01*
X10855Y32290D02*
X10214Y32660D01*
X10714Y33526D02*
X11355Y33156D01*
X5513Y35572D02*
X5513Y36312D01*
X6513Y36312D02*
X6513Y35572D01*
X7513Y35572D02*
X7513Y36312D01*
X8513Y36312D02*
X8513Y35572D01*
X9513Y35572D02*
X9513Y36312D01*
D16*
G36*
X11103Y44609D02*
X11443Y44806D01*
X11719Y44329D01*
X11379Y44132D01*
X11103Y44609D01*
G37*
G36*
X10489Y44255D02*
X10829Y44452D01*
X11105Y43975D01*
X10765Y43778D01*
X10489Y44255D01*
G37*
D17*
G36*
X13200Y42154D02*
X13565Y41523D01*
X13156Y41286D01*
X12791Y41917D01*
X13200Y42154D01*
G37*
G36*
X12185Y43911D02*
X12550Y43280D01*
X12141Y43043D01*
X11776Y43674D01*
X12185Y43911D01*
G37*
G36*
X13276Y44541D02*
X13641Y43910D01*
X13232Y43673D01*
X12867Y44304D01*
X13276Y44541D01*
G37*
G36*
X14291Y42784D02*
X14656Y42153D01*
X14247Y41916D01*
X13882Y42547D01*
X14291Y42784D01*
G37*
D18*
G36*
X14617Y44285D02*
X14782Y44000D01*
X14281Y43711D01*
X14116Y43996D01*
X14617Y44285D01*
G37*
G36*
X14440Y44592D02*
X14605Y44307D01*
X14104Y44018D01*
X13939Y44303D01*
X14440Y44592D01*
G37*
G36*
X14604Y43152D02*
X14439Y43437D01*
X14940Y43726D01*
X15105Y43441D01*
X14604Y43152D01*
G37*
G36*
X14781Y42845D02*
X14616Y43130D01*
X15117Y43419D01*
X15282Y43134D01*
X14781Y42845D01*
G37*
D16*
G36*
X13353Y40712D02*
X13693Y40909D01*
X13969Y40432D01*
X13629Y40235D01*
X13353Y40712D01*
G37*
G36*
X12739Y40358D02*
X13079Y40555D01*
X13355Y40078D01*
X13015Y39881D01*
X12739Y40358D01*
G37*
D19*
X10034Y43386D02*
X9393Y43016D01*
X9893Y42150D02*
X10534Y42520D01*
X11034Y41654D02*
X10393Y41284D01*
X10893Y40418D02*
X11534Y40788D01*
X12034Y39922D02*
X11393Y39552D01*
X14412Y39901D02*
X15053Y39531D01*
X15553Y40397D02*
X14912Y40767D01*
X15412Y41633D02*
X16053Y41263D01*
X16553Y42129D02*
X15912Y42499D01*
X16412Y43365D02*
X17053Y42995D01*
X11212Y45412D02*
X11212Y46152D01*
X12212Y46152D02*
X12212Y45412D01*
X13212Y45412D02*
X13212Y46152D01*
X14212Y46152D02*
X14212Y45412D01*
X15212Y45412D02*
X15212Y46152D01*
D16*
G36*
X39530Y34747D02*
X39870Y34944D01*
X40146Y34467D01*
X39806Y34270D01*
X39530Y34747D01*
G37*
G36*
X38916Y34393D02*
X39256Y34590D01*
X39532Y34113D01*
X39192Y33916D01*
X38916Y34393D01*
G37*
D17*
G36*
X41627Y32292D02*
X41992Y31661D01*
X41583Y31424D01*
X41218Y32055D01*
X41627Y32292D01*
G37*
G36*
X40612Y34049D02*
X40977Y33418D01*
X40568Y33181D01*
X40203Y33812D01*
X40612Y34049D01*
G37*
G36*
X41703Y34679D02*
X42068Y34048D01*
X41659Y33811D01*
X41294Y34442D01*
X41703Y34679D01*
G37*
G36*
X42718Y32922D02*
X43083Y32291D01*
X42674Y32054D01*
X42309Y32685D01*
X42718Y32922D01*
G37*
D18*
G36*
X43044Y34423D02*
X43209Y34138D01*
X42708Y33849D01*
X42543Y34134D01*
X43044Y34423D01*
G37*
G36*
X42867Y34730D02*
X43032Y34445D01*
X42531Y34156D01*
X42366Y34441D01*
X42867Y34730D01*
G37*
G36*
X43031Y33290D02*
X42866Y33575D01*
X43367Y33864D01*
X43532Y33579D01*
X43031Y33290D01*
G37*
G36*
X43208Y32983D02*
X43043Y33268D01*
X43544Y33557D01*
X43709Y33272D01*
X43208Y32983D01*
G37*
D16*
G36*
X41780Y30850D02*
X42120Y31047D01*
X42396Y30570D01*
X42056Y30373D01*
X41780Y30850D01*
G37*
G36*
X41166Y30496D02*
X41506Y30693D01*
X41782Y30216D01*
X41442Y30019D01*
X41166Y30496D01*
G37*
D19*
X38461Y33523D02*
X37820Y33153D01*
X38320Y32287D02*
X38961Y32657D01*
X39461Y31791D02*
X38820Y31421D01*
X39320Y30555D02*
X39961Y30925D01*
X40461Y30059D02*
X39820Y29689D01*
X42840Y30039D02*
X43481Y29669D01*
X43981Y30535D02*
X43340Y30905D01*
X43840Y31771D02*
X44481Y31401D01*
X44981Y32267D02*
X44340Y32637D01*
X44840Y33503D02*
X45481Y33133D01*
X39639Y35550D02*
X39639Y36290D01*
X40639Y36290D02*
X40639Y35550D01*
X41639Y35550D02*
X41639Y36290D01*
X42639Y36290D02*
X42639Y35550D01*
X43639Y35550D02*
X43639Y36290D01*
D20*
X33681Y28996D03*
X33681Y28287D03*
D17*
X36946Y29152D03*
X34917Y29152D03*
X34917Y30412D03*
X36946Y30412D03*
D18*
X35608Y31392D03*
X35254Y31392D03*
X36254Y31392D03*
X36608Y31392D03*
D20*
X38181Y28996D03*
X38181Y28287D03*
D19*
X33931Y27262D02*
X33931Y26522D01*
X34931Y26522D02*
X34931Y27262D01*
X35931Y27262D02*
X35931Y26522D01*
X36931Y26522D02*
X36931Y27262D01*
X37931Y27262D02*
X37931Y26522D01*
X39138Y29312D02*
X39779Y29682D01*
X39279Y30548D02*
X38638Y30178D01*
X38138Y31044D02*
X38779Y31414D01*
X38279Y32280D02*
X37638Y31910D01*
X37138Y32776D02*
X37779Y33146D01*
X32765Y29295D02*
X32124Y29665D01*
X32624Y30531D02*
X33265Y30161D01*
X33765Y31027D02*
X33124Y31397D01*
X33624Y32263D02*
X34265Y31893D01*
X34765Y32759D02*
X34124Y33129D01*
D20*
X28012Y38833D03*
X28012Y38124D03*
D17*
X31276Y38988D03*
X29247Y38988D03*
X29247Y40248D03*
X31276Y40248D03*
D18*
X29939Y41228D03*
X29585Y41228D03*
X30585Y41228D03*
X30939Y41228D03*
D20*
X32512Y38833D03*
X32512Y38124D03*
D19*
X28262Y37098D02*
X28262Y36358D01*
X29262Y36358D02*
X29262Y37098D01*
X30262Y37098D02*
X30262Y36358D01*
X31262Y36358D02*
X31262Y37098D01*
X32262Y37098D02*
X32262Y36358D01*
X33469Y39148D02*
X34110Y39518D01*
X33610Y40384D02*
X32969Y40014D01*
X32469Y40880D02*
X33110Y41250D01*
X32610Y42116D02*
X31969Y41746D01*
X31469Y42612D02*
X32110Y42982D01*
X27096Y39132D02*
X26455Y39502D01*
X26955Y40368D02*
X27596Y39998D01*
X28096Y40864D02*
X27455Y41234D01*
X27955Y42100D02*
X28596Y41730D01*
X29096Y42596D02*
X28455Y42966D01*
D20*
X39376Y38844D03*
X39376Y38136D03*
D17*
X42641Y39000D03*
X40611Y39000D03*
X40611Y40260D03*
X42641Y40260D03*
D18*
X41303Y41240D03*
X40949Y41240D03*
X41949Y41240D03*
X42303Y41240D03*
D20*
X43876Y38844D03*
X43876Y38136D03*
D19*
X39626Y37110D02*
X39626Y36370D01*
X40626Y36370D02*
X40626Y37110D01*
X41626Y37110D02*
X41626Y36370D01*
X42626Y36370D02*
X42626Y37110D01*
X43626Y37110D02*
X43626Y36370D01*
X44833Y39160D02*
X45474Y39530D01*
X44974Y40396D02*
X44333Y40026D01*
X43833Y40892D02*
X44474Y41262D01*
X43974Y42128D02*
X43333Y41758D01*
X42833Y42624D02*
X43474Y42994D01*
X38460Y39143D02*
X37819Y39513D01*
X38319Y40379D02*
X38960Y40009D01*
X39460Y40876D02*
X38819Y41246D01*
X39319Y42112D02*
X39960Y41742D01*
X40460Y42608D02*
X39819Y42978D01*
D16*
G36*
X28129Y34752D02*
X28469Y34949D01*
X28745Y34472D01*
X28405Y34275D01*
X28129Y34752D01*
G37*
G36*
X27515Y34398D02*
X27855Y34595D01*
X28131Y34118D01*
X27791Y33921D01*
X27515Y34398D01*
G37*
D17*
G36*
X30226Y32297D02*
X30591Y31666D01*
X30182Y31429D01*
X29817Y32060D01*
X30226Y32297D01*
G37*
G36*
X29211Y34054D02*
X29576Y33423D01*
X29167Y33186D01*
X28802Y33817D01*
X29211Y34054D01*
G37*
G36*
X30302Y34684D02*
X30667Y34053D01*
X30258Y33816D01*
X29893Y34447D01*
X30302Y34684D01*
G37*
G36*
X31317Y32927D02*
X31682Y32296D01*
X31273Y32059D01*
X30908Y32690D01*
X31317Y32927D01*
G37*
D18*
G36*
X31643Y34428D02*
X31808Y34143D01*
X31307Y33854D01*
X31142Y34139D01*
X31643Y34428D01*
G37*
G36*
X31466Y34735D02*
X31631Y34450D01*
X31130Y34161D01*
X30965Y34446D01*
X31466Y34735D01*
G37*
G36*
X31630Y33295D02*
X31465Y33580D01*
X31966Y33869D01*
X32131Y33584D01*
X31630Y33295D01*
G37*
G36*
X31807Y32988D02*
X31642Y33273D01*
X32143Y33562D01*
X32308Y33277D01*
X31807Y32988D01*
G37*
D16*
G36*
X30379Y30855D02*
X30719Y31052D01*
X30995Y30575D01*
X30655Y30378D01*
X30379Y30855D01*
G37*
G36*
X29765Y30501D02*
X30105Y30698D01*
X30381Y30221D01*
X30041Y30024D01*
X29765Y30501D01*
G37*
D19*
X27060Y33528D02*
X26419Y33158D01*
X26919Y32292D02*
X27560Y32662D01*
X28060Y31796D02*
X27419Y31426D01*
X27919Y30560D02*
X28560Y30930D01*
X29060Y30064D02*
X28419Y29694D01*
X31439Y30044D02*
X32080Y29674D01*
X32580Y30540D02*
X31939Y30910D01*
X32439Y31776D02*
X33080Y31406D01*
X33580Y32272D02*
X32939Y32642D01*
X33439Y33508D02*
X34080Y33138D01*
X28238Y35555D02*
X28238Y36295D01*
X29238Y36295D02*
X29238Y35555D01*
X30238Y35555D02*
X30238Y36295D01*
X31238Y36295D02*
X31238Y35555D01*
X32238Y35555D02*
X32238Y36295D01*
D16*
G36*
X33827Y44592D02*
X34167Y44789D01*
X34443Y44312D01*
X34103Y44115D01*
X33827Y44592D01*
G37*
G36*
X33213Y44237D02*
X33553Y44434D01*
X33829Y43957D01*
X33489Y43760D01*
X33213Y44237D01*
G37*
D17*
G36*
X35924Y42136D02*
X36289Y41505D01*
X35880Y41268D01*
X35515Y41899D01*
X35924Y42136D01*
G37*
G36*
X34910Y43894D02*
X35275Y43263D01*
X34866Y43026D01*
X34501Y43657D01*
X34910Y43894D01*
G37*
G36*
X36001Y44523D02*
X36366Y43892D01*
X35957Y43655D01*
X35592Y44286D01*
X36001Y44523D01*
G37*
G36*
X37015Y42766D02*
X37380Y42135D01*
X36971Y41898D01*
X36606Y42529D01*
X37015Y42766D01*
G37*
D18*
G36*
X37341Y44267D02*
X37506Y43982D01*
X37005Y43693D01*
X36840Y43978D01*
X37341Y44267D01*
G37*
G36*
X37164Y44574D02*
X37329Y44289D01*
X36828Y44000D01*
X36663Y44285D01*
X37164Y44574D01*
G37*
G36*
X37328Y43134D02*
X37163Y43419D01*
X37664Y43708D01*
X37829Y43423D01*
X37328Y43134D01*
G37*
G36*
X37505Y42827D02*
X37340Y43112D01*
X37841Y43401D01*
X38006Y43116D01*
X37505Y42827D01*
G37*
D16*
G36*
X36077Y40694D02*
X36417Y40891D01*
X36693Y40414D01*
X36353Y40217D01*
X36077Y40694D01*
G37*
G36*
X35463Y40340D02*
X35803Y40537D01*
X36079Y40060D01*
X35739Y39863D01*
X35463Y40340D01*
G37*
D19*
X32758Y43368D02*
X32117Y42998D01*
X32617Y42132D02*
X33258Y42502D01*
X33758Y41636D02*
X33117Y41266D01*
X33617Y40400D02*
X34258Y40770D01*
X34758Y39904D02*
X34117Y39534D01*
X37137Y39884D02*
X37778Y39514D01*
X38278Y40380D02*
X37637Y40750D01*
X38137Y41616D02*
X38778Y41246D01*
X39278Y42112D02*
X38637Y42482D01*
X39137Y43348D02*
X39778Y42978D01*
X33936Y45394D02*
X33936Y46134D01*
X34936Y46134D02*
X34936Y45394D01*
X35936Y45394D02*
X35936Y46134D01*
X36936Y46134D02*
X36936Y45394D01*
X37936Y45394D02*
X37936Y46134D01*
D16*
G36*
X11125Y66061D02*
X11465Y66258D01*
X11741Y65781D01*
X11401Y65584D01*
X11125Y66061D01*
G37*
G36*
X10511Y65707D02*
X10851Y65904D01*
X11127Y65427D01*
X10787Y65230D01*
X10511Y65707D01*
G37*
D17*
G36*
X13222Y63606D02*
X13587Y62975D01*
X13178Y62738D01*
X12813Y63369D01*
X13222Y63606D01*
G37*
G36*
X12207Y65363D02*
X12572Y64732D01*
X12163Y64495D01*
X11798Y65126D01*
X12207Y65363D01*
G37*
G36*
X13298Y65993D02*
X13663Y65362D01*
X13254Y65125D01*
X12889Y65756D01*
X13298Y65993D01*
G37*
G36*
X14313Y64236D02*
X14678Y63605D01*
X14269Y63368D01*
X13904Y63999D01*
X14313Y64236D01*
G37*
D18*
G36*
X14639Y65737D02*
X14804Y65452D01*
X14303Y65163D01*
X14138Y65448D01*
X14639Y65737D01*
G37*
G36*
X14462Y66044D02*
X14627Y65759D01*
X14126Y65470D01*
X13961Y65755D01*
X14462Y66044D01*
G37*
G36*
X14626Y64604D02*
X14461Y64889D01*
X14962Y65178D01*
X15127Y64893D01*
X14626Y64604D01*
G37*
G36*
X14803Y64297D02*
X14638Y64582D01*
X15139Y64871D01*
X15304Y64586D01*
X14803Y64297D01*
G37*
D16*
G36*
X13375Y62164D02*
X13715Y62361D01*
X13991Y61884D01*
X13651Y61687D01*
X13375Y62164D01*
G37*
G36*
X12761Y61810D02*
X13101Y62007D01*
X13377Y61530D01*
X13037Y61333D01*
X12761Y61810D01*
G37*
D19*
X10056Y64837D02*
X9415Y64467D01*
X9915Y63601D02*
X10556Y63971D01*
X11056Y63105D02*
X10415Y62735D01*
X10915Y61869D02*
X11556Y62239D01*
X12056Y61373D02*
X11415Y61003D01*
X14434Y61353D02*
X15075Y60983D01*
X15575Y61849D02*
X14934Y62219D01*
X15434Y63085D02*
X16075Y62715D01*
X16575Y63581D02*
X15934Y63951D01*
X16434Y64817D02*
X17075Y64447D01*
X11234Y66864D02*
X11234Y67604D01*
X12234Y67604D02*
X12234Y66864D01*
X13234Y66864D02*
X13234Y67604D01*
X14234Y67604D02*
X14234Y66864D01*
X15234Y66864D02*
X15234Y67604D01*
D20*
X10986Y50469D03*
X10986Y49760D03*
D17*
X14251Y50624D03*
X12222Y50624D03*
X12222Y51884D03*
X14251Y51884D03*
D18*
X12913Y52864D03*
X12559Y52864D03*
X13559Y52864D03*
X13913Y52864D03*
D20*
X15486Y50469D03*
X15486Y49760D03*
D19*
X11236Y48734D02*
X11236Y47994D01*
X12236Y47994D02*
X12236Y48734D01*
X13236Y48734D02*
X13236Y47994D01*
X14236Y47994D02*
X14236Y48734D01*
X15236Y48734D02*
X15236Y47994D01*
X16443Y50784D02*
X17084Y51154D01*
X16584Y52020D02*
X15943Y51650D01*
X15443Y52516D02*
X16084Y52886D01*
X15584Y53752D02*
X14943Y53382D01*
X14443Y54248D02*
X15084Y54618D01*
X10070Y50767D02*
X9429Y51137D01*
X9929Y52003D02*
X10570Y51634D01*
X11070Y52500D02*
X10429Y52870D01*
X10929Y53736D02*
X11570Y53366D01*
X12070Y54232D02*
X11429Y54602D01*
D20*
X39380Y60307D03*
X39380Y59598D03*
D17*
X42644Y60463D03*
X40615Y60463D03*
X40615Y61723D03*
X42644Y61723D03*
D18*
X41307Y62703D03*
X40953Y62703D03*
X41953Y62703D03*
X42307Y62703D03*
D20*
X43880Y60307D03*
X43880Y59598D03*
D19*
X39630Y58573D02*
X39630Y57833D01*
X40630Y57833D02*
X40630Y58573D01*
X41630Y58573D02*
X41630Y57833D01*
X42630Y57833D02*
X42630Y58573D01*
X43630Y58573D02*
X43630Y57833D01*
X44837Y60623D02*
X45478Y60993D01*
X44978Y61859D02*
X44337Y61489D01*
X43837Y62355D02*
X44478Y62725D01*
X43978Y63591D02*
X43337Y63221D01*
X42837Y64087D02*
X43478Y64457D01*
X38464Y60606D02*
X37823Y60976D01*
X38323Y61842D02*
X38964Y61472D01*
X39464Y62338D02*
X38823Y62708D01*
X39323Y63574D02*
X39964Y63204D01*
X40464Y64070D02*
X39823Y64440D01*
D16*
G36*
X39522Y56232D02*
X39862Y56429D01*
X40138Y55952D01*
X39798Y55755D01*
X39522Y56232D01*
G37*
G36*
X38908Y55878D02*
X39248Y56075D01*
X39524Y55598D01*
X39184Y55401D01*
X38908Y55878D01*
G37*
D17*
G36*
X41619Y53777D02*
X41984Y53146D01*
X41575Y52909D01*
X41210Y53540D01*
X41619Y53777D01*
G37*
G36*
X40605Y55534D02*
X40970Y54903D01*
X40561Y54666D01*
X40196Y55297D01*
X40605Y55534D01*
G37*
G36*
X41696Y56164D02*
X42061Y55533D01*
X41652Y55296D01*
X41287Y55927D01*
X41696Y56164D01*
G37*
G36*
X42710Y54407D02*
X43075Y53776D01*
X42666Y53539D01*
X42301Y54170D01*
X42710Y54407D01*
G37*
D18*
G36*
X43037Y55908D02*
X43202Y55623D01*
X42701Y55334D01*
X42536Y55619D01*
X43037Y55908D01*
G37*
G36*
X42859Y56215D02*
X43024Y55930D01*
X42523Y55641D01*
X42358Y55926D01*
X42859Y56215D01*
G37*
G36*
X43023Y54775D02*
X42858Y55060D01*
X43359Y55349D01*
X43524Y55064D01*
X43023Y54775D01*
G37*
G36*
X43201Y54468D02*
X43036Y54753D01*
X43537Y55042D01*
X43702Y54757D01*
X43201Y54468D01*
G37*
D16*
G36*
X41772Y52335D02*
X42112Y52532D01*
X42388Y52055D01*
X42048Y51858D01*
X41772Y52335D01*
G37*
G36*
X41158Y51981D02*
X41498Y52178D01*
X41774Y51701D01*
X41434Y51504D01*
X41158Y51981D01*
G37*
D19*
X38453Y55009D02*
X37812Y54639D01*
X38312Y53773D02*
X38953Y54143D01*
X39453Y53276D02*
X38812Y52907D01*
X39312Y52040D02*
X39953Y52410D01*
X40453Y51544D02*
X39812Y51174D01*
X42832Y51524D02*
X43473Y51154D01*
X43973Y52020D02*
X43332Y52390D01*
X43832Y53256D02*
X44473Y52886D01*
X44973Y53752D02*
X44332Y54122D01*
X44832Y54988D02*
X45473Y54618D01*
X39631Y57035D02*
X39631Y57775D01*
X40631Y57775D02*
X40631Y57035D01*
X41631Y57035D02*
X41631Y57775D01*
X42631Y57775D02*
X42631Y57035D01*
X43631Y57035D02*
X43631Y57775D01*
D16*
G36*
X22465Y44594D02*
X22805Y44791D01*
X23081Y44314D01*
X22741Y44117D01*
X22465Y44594D01*
G37*
G36*
X21851Y44240D02*
X22191Y44437D01*
X22467Y43960D01*
X22127Y43763D01*
X21851Y44240D01*
G37*
D17*
G36*
X24562Y42139D02*
X24927Y41508D01*
X24518Y41271D01*
X24153Y41902D01*
X24562Y42139D01*
G37*
G36*
X23548Y43896D02*
X23913Y43265D01*
X23504Y43028D01*
X23139Y43659D01*
X23548Y43896D01*
G37*
G36*
X24639Y44526D02*
X25004Y43895D01*
X24595Y43658D01*
X24230Y44289D01*
X24639Y44526D01*
G37*
G36*
X25653Y42769D02*
X26018Y42138D01*
X25609Y41901D01*
X25244Y42532D01*
X25653Y42769D01*
G37*
D18*
G36*
X25979Y44270D02*
X26144Y43985D01*
X25643Y43696D01*
X25478Y43981D01*
X25979Y44270D01*
G37*
G36*
X25802Y44577D02*
X25967Y44292D01*
X25466Y44003D01*
X25301Y44288D01*
X25802Y44577D01*
G37*
G36*
X25966Y43137D02*
X25801Y43422D01*
X26302Y43711D01*
X26467Y43426D01*
X25966Y43137D01*
G37*
G36*
X26143Y42830D02*
X25978Y43115D01*
X26479Y43404D01*
X26644Y43119D01*
X26143Y42830D01*
G37*
D16*
G36*
X24715Y40697D02*
X25055Y40894D01*
X25331Y40417D01*
X24991Y40220D01*
X24715Y40697D01*
G37*
G36*
X24101Y40343D02*
X24441Y40540D01*
X24717Y40063D01*
X24377Y39866D01*
X24101Y40343D01*
G37*
D19*
X21396Y43371D02*
X20755Y43001D01*
X21255Y42135D02*
X21896Y42505D01*
X22396Y41639D02*
X21755Y41269D01*
X22255Y40403D02*
X22896Y40773D01*
X23396Y39907D02*
X22755Y39537D01*
X25775Y39886D02*
X26416Y39516D01*
X26916Y40382D02*
X26275Y40752D01*
X26775Y41618D02*
X27416Y41248D01*
X27916Y42114D02*
X27275Y42484D01*
X27775Y43350D02*
X28416Y42980D01*
X22574Y45397D02*
X22574Y46137D01*
X23574Y46137D02*
X23574Y45397D01*
X24574Y45397D02*
X24574Y46137D01*
X25574Y46137D02*
X25574Y45397D01*
X26574Y45397D02*
X26574Y46137D01*
D20*
X22327Y29002D03*
X22327Y28293D03*
D17*
X25591Y29158D03*
X23562Y29158D03*
X23562Y30418D03*
X25591Y30418D03*
D18*
X24254Y31398D03*
X23900Y31398D03*
X24900Y31398D03*
X25254Y31398D03*
D20*
X26827Y29002D03*
X26827Y28293D03*
D19*
X22577Y27268D02*
X22577Y26528D01*
X23577Y26528D02*
X23577Y27268D01*
X24577Y27268D02*
X24577Y26528D01*
X25577Y26528D02*
X25577Y27268D01*
X26577Y27268D02*
X26577Y26528D01*
X27784Y29318D02*
X28425Y29688D01*
X27925Y30554D02*
X27284Y30184D01*
X26784Y31050D02*
X27425Y31420D01*
X26925Y32286D02*
X26284Y31916D01*
X25784Y32782D02*
X26425Y33152D01*
X21411Y29301D02*
X20770Y29671D01*
X21270Y30537D02*
X21911Y30167D01*
X22411Y31033D02*
X21770Y31403D01*
X22270Y32269D02*
X22911Y31899D01*
X23411Y32765D02*
X22770Y33135D01*
D16*
G36*
X33855Y66069D02*
X34195Y66266D01*
X34471Y65789D01*
X34131Y65592D01*
X33855Y66069D01*
G37*
G36*
X33241Y65715D02*
X33581Y65912D01*
X33857Y65435D01*
X33517Y65238D01*
X33241Y65715D01*
G37*
D17*
G36*
X35952Y63614D02*
X36317Y62983D01*
X35908Y62746D01*
X35543Y63377D01*
X35952Y63614D01*
G37*
G36*
X34937Y65371D02*
X35302Y64740D01*
X34893Y64503D01*
X34528Y65134D01*
X34937Y65371D01*
G37*
G36*
X36029Y66001D02*
X36394Y65370D01*
X35985Y65133D01*
X35620Y65764D01*
X36029Y66001D01*
G37*
G36*
X37043Y64243D02*
X37408Y63612D01*
X36999Y63375D01*
X36634Y64006D01*
X37043Y64243D01*
G37*
D18*
G36*
X37369Y65745D02*
X37534Y65460D01*
X37033Y65171D01*
X36868Y65456D01*
X37369Y65745D01*
G37*
G36*
X37192Y66052D02*
X37357Y65767D01*
X36856Y65478D01*
X36691Y65763D01*
X37192Y66052D01*
G37*
G36*
X37356Y64612D02*
X37191Y64897D01*
X37692Y65186D01*
X37857Y64901D01*
X37356Y64612D01*
G37*
G36*
X37533Y64305D02*
X37368Y64590D01*
X37869Y64879D01*
X38034Y64594D01*
X37533Y64305D01*
G37*
D16*
G36*
X36105Y62172D02*
X36445Y62369D01*
X36721Y61892D01*
X36381Y61695D01*
X36105Y62172D01*
G37*
G36*
X35491Y61817D02*
X35831Y62014D01*
X36107Y61537D01*
X35767Y61340D01*
X35491Y61817D01*
G37*
D19*
X32786Y64845D02*
X32145Y64475D01*
X32645Y63609D02*
X33286Y63979D01*
X33786Y63113D02*
X33145Y62743D01*
X33645Y61877D02*
X34286Y62247D01*
X34786Y61381D02*
X34145Y61011D01*
X37165Y61361D02*
X37806Y60991D01*
X38306Y61857D02*
X37665Y62227D01*
X38165Y63093D02*
X38806Y62723D01*
X39306Y63589D02*
X38665Y63959D01*
X39165Y64825D02*
X39806Y64455D01*
X33964Y66872D02*
X33964Y67612D01*
X34964Y67612D02*
X34964Y66872D01*
X35964Y66872D02*
X35964Y67612D01*
X36964Y67612D02*
X36964Y66872D01*
X37964Y66872D02*
X37964Y67612D01*
D20*
X33717Y50476D03*
X33717Y49768D03*
D17*
X36981Y50632D03*
X34952Y50632D03*
X34952Y51892D03*
X36981Y51892D03*
D18*
X35644Y52872D03*
X35289Y52872D03*
X36289Y52872D03*
X36644Y52872D03*
D20*
X38217Y50476D03*
X38217Y49768D03*
D19*
X33967Y48742D02*
X33967Y48002D01*
X34967Y48002D02*
X34967Y48742D01*
X35967Y48742D02*
X35967Y48002D01*
X36967Y48002D02*
X36967Y48742D01*
X37967Y48742D02*
X37967Y48002D01*
X39174Y50792D02*
X39814Y51162D01*
X39314Y52028D02*
X38674Y51658D01*
X38174Y52524D02*
X38814Y52894D01*
X38314Y53760D02*
X37674Y53390D01*
X37174Y54256D02*
X37814Y54626D01*
X32801Y50775D02*
X32160Y51145D01*
X32660Y52011D02*
X33301Y51641D01*
X33801Y52507D02*
X33160Y52877D01*
X33660Y53743D02*
X34301Y53373D01*
X34801Y54239D02*
X34160Y54609D01*
D20*
X5287Y60301D03*
X5287Y59593D03*
D17*
X8552Y60457D03*
X6523Y60457D03*
X6523Y61717D03*
X8552Y61717D03*
D18*
X7215Y62697D03*
X6860Y62697D03*
X7860Y62697D03*
X8215Y62697D03*
D20*
X9787Y60301D03*
X9787Y59593D03*
D19*
X5537Y58567D02*
X5537Y57827D01*
X6537Y57827D02*
X6537Y58567D01*
X7537Y58567D02*
X7537Y57827D01*
X8537Y57827D02*
X8537Y58567D01*
X9537Y58567D02*
X9537Y57827D01*
X10744Y60617D02*
X11385Y60987D01*
X10885Y61853D02*
X10244Y61483D01*
X9744Y62349D02*
X10385Y62719D01*
X9885Y63585D02*
X9244Y63215D01*
X8744Y64081D02*
X9385Y64451D01*
X4371Y60600D02*
X3731Y60970D01*
X4231Y61836D02*
X4871Y61466D01*
X5371Y62332D02*
X4731Y62702D01*
X5231Y63568D02*
X5871Y63198D01*
X6371Y64064D02*
X5731Y64434D01*
D16*
G36*
X5430Y56226D02*
X5770Y56423D01*
X6046Y55946D01*
X5706Y55749D01*
X5430Y56226D01*
G37*
G36*
X4816Y55872D02*
X5156Y56069D01*
X5432Y55592D01*
X5092Y55395D01*
X4816Y55872D01*
G37*
D17*
G36*
X7527Y53771D02*
X7892Y53140D01*
X7483Y52903D01*
X7118Y53534D01*
X7527Y53771D01*
G37*
G36*
X6512Y55528D02*
X6877Y54897D01*
X6468Y54660D01*
X6103Y55291D01*
X6512Y55528D01*
G37*
G36*
X7603Y56158D02*
X7968Y55527D01*
X7559Y55290D01*
X7194Y55921D01*
X7603Y56158D01*
G37*
G36*
X8618Y54401D02*
X8983Y53770D01*
X8574Y53533D01*
X8209Y54164D01*
X8618Y54401D01*
G37*
D18*
G36*
X8944Y55902D02*
X9109Y55617D01*
X8608Y55328D01*
X8443Y55613D01*
X8944Y55902D01*
G37*
G36*
X8767Y56209D02*
X8932Y55924D01*
X8431Y55635D01*
X8266Y55920D01*
X8767Y56209D01*
G37*
G36*
X8931Y54769D02*
X8766Y55054D01*
X9267Y55343D01*
X9432Y55058D01*
X8931Y54769D01*
G37*
G36*
X9108Y54462D02*
X8943Y54747D01*
X9444Y55036D01*
X9609Y54751D01*
X9108Y54462D01*
G37*
D16*
G36*
X7680Y52329D02*
X8020Y52526D01*
X8296Y52049D01*
X7956Y51852D01*
X7680Y52329D01*
G37*
G36*
X7066Y51975D02*
X7406Y52172D01*
X7682Y51695D01*
X7342Y51498D01*
X7066Y51975D01*
G37*
D19*
X4361Y55003D02*
X3720Y54633D01*
X4220Y53767D02*
X4861Y54137D01*
X5361Y53271D02*
X4720Y52901D01*
X5220Y52035D02*
X5861Y52405D01*
X6361Y51539D02*
X5720Y51169D01*
X8740Y51518D02*
X9380Y51148D01*
X9880Y52014D02*
X9240Y52384D01*
X9740Y53250D02*
X10380Y52880D01*
X10880Y53746D02*
X10240Y54116D01*
X10740Y54982D02*
X11380Y54612D01*
X5539Y57029D02*
X5539Y57769D01*
X6539Y57769D02*
X6539Y57029D01*
X7539Y57029D02*
X7539Y57769D01*
X8539Y57769D02*
X8539Y57029D01*
X9539Y57029D02*
X9539Y57769D01*
D20*
X6404Y17677D03*
X6404Y16969D03*
D17*
X9418Y18693D03*
X7389Y18693D03*
X7389Y19953D03*
X9418Y19953D03*
D18*
X9726Y21323D03*
X10081Y21323D03*
D21*
X8404Y21646D03*
X8404Y22000D03*
D18*
X7081Y21323D03*
X6726Y21323D03*
D19*
X3774Y17323D02*
X3034Y17323D01*
X3034Y18323D02*
X3774Y18323D01*
X3774Y19323D02*
X3034Y19323D01*
X3034Y20323D02*
X3774Y20323D01*
X3774Y21323D02*
X3034Y21323D01*
X13034Y17323D02*
X13774Y17323D01*
X13774Y18323D02*
X13034Y18323D01*
X13034Y19323D02*
X13774Y19323D01*
X13774Y20323D02*
X13034Y20323D01*
X13034Y21323D02*
X13774Y21323D01*
X6404Y23953D02*
X6404Y24693D01*
X7404Y24693D02*
X7404Y23953D01*
X8404Y23953D02*
X8404Y24693D01*
X9404Y24693D02*
X9404Y23953D01*
X10404Y23953D02*
X10404Y24693D01*
X6404Y14693D02*
X6404Y13953D01*
X7404Y13953D02*
X7404Y14693D01*
X8404Y14693D02*
X8404Y13953D01*
X9404Y13953D02*
X9404Y14693D01*
X10404Y14693D02*
X10404Y13953D01*
D20*
X10404Y17677D03*
X10404Y16969D03*
X17199Y17675D03*
X17199Y16967D03*
D17*
X20213Y18691D03*
X18184Y18691D03*
X18184Y19951D03*
X20213Y19951D03*
D18*
X20522Y21321D03*
X20876Y21321D03*
D21*
X19199Y21644D03*
X19199Y21998D03*
D18*
X17876Y21321D03*
X17522Y21321D03*
D19*
X14569Y17321D02*
X13829Y17321D01*
X13829Y18321D02*
X14569Y18321D01*
X14569Y19321D02*
X13829Y19321D01*
X13829Y20321D02*
X14569Y20321D01*
X14569Y21321D02*
X13829Y21321D01*
X23829Y17321D02*
X24569Y17321D01*
X24569Y18321D02*
X23829Y18321D01*
X23829Y19321D02*
X24569Y19321D01*
X24569Y20321D02*
X23829Y20321D01*
X23829Y21321D02*
X24569Y21321D01*
X17199Y23951D02*
X17199Y24691D01*
X18199Y24691D02*
X18199Y23951D01*
X19199Y23951D02*
X19199Y24691D01*
X20199Y24691D02*
X20199Y23951D01*
X21199Y23951D02*
X21199Y24691D01*
X17199Y14691D02*
X17199Y13951D01*
X18199Y13951D02*
X18199Y14691D01*
X19199Y14691D02*
X19199Y13951D01*
X20199Y13951D02*
X20199Y14691D01*
X21199Y14691D02*
X21199Y13951D01*
D20*
X21199Y17675D03*
X21199Y16967D03*
X17199Y6886D03*
X17199Y6177D03*
D17*
X20213Y7902D03*
X18184Y7902D03*
X18184Y9161D03*
X20213Y9161D03*
D18*
X20522Y10531D03*
X20876Y10531D03*
D21*
X19199Y10854D03*
X19199Y11209D03*
D18*
X17876Y10531D03*
X17522Y10531D03*
D19*
X14569Y6531D02*
X13829Y6531D01*
X13829Y7531D02*
X14569Y7531D01*
X14569Y8531D02*
X13829Y8531D01*
X13829Y9531D02*
X14569Y9531D01*
X14569Y10531D02*
X13829Y10531D01*
X23829Y6531D02*
X24569Y6531D01*
X24569Y7531D02*
X23829Y7531D01*
X23829Y8531D02*
X24569Y8531D01*
X24569Y9531D02*
X23829Y9531D01*
X23829Y10531D02*
X24569Y10531D01*
X17199Y13161D02*
X17199Y13901D01*
X18199Y13901D02*
X18199Y13161D01*
X19199Y13161D02*
X19199Y13901D01*
X20199Y13901D02*
X20199Y13161D01*
X21199Y13161D02*
X21199Y13901D01*
X17199Y3901D02*
X17199Y3161D01*
X18199Y3161D02*
X18199Y3901D01*
X19199Y3901D02*
X19199Y3161D01*
X20199Y3161D02*
X20199Y3901D01*
X21199Y3901D02*
X21199Y3161D01*
D20*
X21199Y6886D03*
X21199Y6177D03*
X27998Y6882D03*
X27998Y6173D03*
D17*
X31013Y7898D03*
X28983Y7898D03*
X28983Y9157D03*
X31013Y9157D03*
D18*
X31321Y10528D03*
X31675Y10528D03*
D21*
X29998Y10850D03*
X29998Y11205D03*
D18*
X28675Y10528D03*
X28321Y10528D03*
D19*
X25368Y6528D02*
X24628Y6528D01*
X24628Y7528D02*
X25368Y7528D01*
X25368Y8528D02*
X24628Y8528D01*
X24628Y9528D02*
X25368Y9528D01*
X25368Y10528D02*
X24628Y10528D01*
X34628Y6528D02*
X35368Y6528D01*
X35368Y7528D02*
X34628Y7528D01*
X34628Y8528D02*
X35368Y8528D01*
X35368Y9528D02*
X34628Y9528D01*
X34628Y10528D02*
X35368Y10528D01*
X27998Y13158D02*
X27998Y13898D01*
X28998Y13898D02*
X28998Y13158D01*
X29998Y13158D02*
X29998Y13898D01*
X30998Y13898D02*
X30998Y13158D01*
X31998Y13158D02*
X31998Y13898D01*
X27998Y3898D02*
X27998Y3158D01*
X28998Y3158D02*
X28998Y3898D01*
X29998Y3898D02*
X29998Y3158D01*
X30998Y3158D02*
X30998Y3898D01*
X31998Y3898D02*
X31998Y3158D01*
D20*
X31998Y6882D03*
X31998Y6173D03*
X27988Y17673D03*
X27988Y16965D03*
D17*
X31003Y18689D03*
X28974Y18689D03*
X28974Y19949D03*
X31003Y19949D03*
D18*
X31311Y21319D03*
X31665Y21319D03*
D21*
X29988Y21642D03*
X29988Y21996D03*
D18*
X28665Y21319D03*
X28311Y21319D03*
D19*
X25358Y17319D02*
X24618Y17319D01*
X24618Y18319D02*
X25358Y18319D01*
X25358Y19319D02*
X24618Y19319D01*
X24618Y20319D02*
X25358Y20319D01*
X25358Y21319D02*
X24618Y21319D01*
X34618Y17319D02*
X35358Y17319D01*
X35358Y18319D02*
X34618Y18319D01*
X34618Y19319D02*
X35358Y19319D01*
X35358Y20319D02*
X34618Y20319D01*
X34618Y21319D02*
X35358Y21319D01*
X27988Y23949D02*
X27988Y24689D01*
X28988Y24689D02*
X28988Y23949D01*
X29988Y23949D02*
X29988Y24689D01*
X30988Y24689D02*
X30988Y23949D01*
X31988Y23949D02*
X31988Y24689D01*
X27988Y14689D02*
X27988Y13949D01*
X28988Y13949D02*
X28988Y14689D01*
X29988Y14689D02*
X29988Y13949D01*
X30988Y13949D02*
X30988Y14689D01*
X31988Y14689D02*
X31988Y13949D01*
D20*
X31988Y17673D03*
X31988Y16965D03*
X38783Y17671D03*
X38783Y16963D03*
D17*
X41798Y18687D03*
X39769Y18687D03*
X39769Y19947D03*
X41798Y19947D03*
D18*
X42106Y21317D03*
X42461Y21317D03*
D21*
X40783Y21640D03*
X40783Y21994D03*
D18*
X39461Y21317D03*
X39106Y21317D03*
D19*
X36153Y17317D02*
X35413Y17317D01*
X35413Y18317D02*
X36153Y18317D01*
X36153Y19317D02*
X35413Y19317D01*
X35413Y20317D02*
X36153Y20317D01*
X36153Y21317D02*
X35413Y21317D01*
X45413Y17317D02*
X46153Y17317D01*
X46153Y18317D02*
X45413Y18317D01*
X45413Y19317D02*
X46153Y19317D01*
X46153Y20317D02*
X45413Y20317D01*
X45413Y21317D02*
X46153Y21317D01*
X38783Y23947D02*
X38783Y24687D01*
X39783Y24687D02*
X39783Y23947D01*
X40783Y23947D02*
X40783Y24687D01*
X41783Y24687D02*
X41783Y23947D01*
X42783Y23947D02*
X42783Y24687D01*
X38783Y14687D02*
X38783Y13947D01*
X39783Y13947D02*
X39783Y14687D01*
X40783Y14687D02*
X40783Y13947D01*
X41783Y13947D02*
X41783Y14687D01*
X42783Y14687D02*
X42783Y13947D01*
D20*
X42783Y17671D03*
X42783Y16963D03*
X38783Y6882D03*
X38783Y6173D03*
D17*
X41798Y7898D03*
X39769Y7898D03*
X39769Y9157D03*
X41798Y9157D03*
D18*
X42106Y10528D03*
X42461Y10528D03*
D21*
X40783Y10850D03*
X40783Y11205D03*
D18*
X39461Y10528D03*
X39106Y10528D03*
D19*
X36153Y6528D02*
X35413Y6528D01*
X35413Y7528D02*
X36153Y7528D01*
X36153Y8528D02*
X35413Y8528D01*
X35413Y9528D02*
X36153Y9528D01*
X36153Y10528D02*
X35413Y10528D01*
X45413Y6528D02*
X46153Y6528D01*
X46153Y7528D02*
X45413Y7528D01*
X45413Y8528D02*
X46153Y8528D01*
X46153Y9528D02*
X45413Y9528D01*
X45413Y10528D02*
X46153Y10528D01*
X38783Y13158D02*
X38783Y13898D01*
X39783Y13898D02*
X39783Y13158D01*
X40783Y13158D02*
X40783Y13898D01*
X41783Y13898D02*
X41783Y13158D01*
X42783Y13158D02*
X42783Y13898D01*
X38783Y3898D02*
X38783Y3158D01*
X39783Y3158D02*
X39783Y3898D01*
X40783Y3898D02*
X40783Y3158D01*
X41783Y3158D02*
X41783Y3898D01*
X42783Y3898D02*
X42783Y3158D01*
D20*
X42783Y6882D03*
X42783Y6173D03*
M02*
