0
SECTION
2
HEADER
9
$INSUNITS
70
4
9
$ACADVER
1
AC1014
9
$HANDSEED
5
FFFF
0
ENDSEC
0
SECTION
2
TABLES
0
TABLE
2
VPORT
5
8
100
AcDbSymbolTable
0
ENDTAB
0
TABLE
2
LTYPE
5
5
100
AcDbSymbolTable
0
LTYPE
5
14
100
AcDbSymbolTableRecord
100
AcDbLinetypeTableRecord
2
BYBLOCK
70
0
0
LTYPE
5
15
100
AcDbSymbolTableRecord
100
AcDbLinetypeTableRecord
2
BYLAYER
70
0
0
ENDTAB
0
TABLE
2
LAYER
5
2
100
AcDbSymbolTable
70
2
0
LAYER
5
50
100
AcDbSymbolTableRecord
100
AcDbLayerTableRecord
2
0
70
0
6
CONTINUOUS
0
ENDTAB
0
TABLE
2
STYLE
5
3
100
AcDbSymbolTable
70
1
0
STYLE
5
11
100
AcDbSymbolTableRecord
100
AcDbTextStyleTableRecord
2
STANDARD
70
0
0
ENDTAB
0
TABLE
2
VIEW
5
6
100
AcDbSymbolTable
70
0
0
ENDTAB
0
TABLE
2
UCS
5
7
100
AcDbSymbolTable
70
0
0
ENDTAB
0
TABLE
2
APPID
5
9
100
AcDbSymbolTable
70
2
0
APPID
5
12
100
AcDbSymbolTableRecord
100
AcDbRegAppTableRecord
2
ACAD
70
0
0
ENDTAB
0
TABLE
2
DIMSTYLE
5
A
100
AcDbSymbolTable
70
1
0
ENDTAB
0
TABLE
2
BLOCK_RECORD
5
1
100
AcDbSymbolTable
70
1
0
BLOCK_RECORD
5
1F
100
AcDbSymbolTableRecord
100
AcDbBlockTableRecord
2
*MODEL_SPACE
0
BLOCK_RECORD
5
1B
100
AcDbSymbolTableRecord
100
AcDbBlockTableRecord
2
*PAPER_SPACE
0
ENDTAB
0
ENDSEC
0
SECTION
2
BLOCKS
0
BLOCK
5
20
100
AcDbEntity
100
AcDbBlockBegin
2
*MODEL_SPACE
0
ENDBLK
5
21
100
AcDbEntity
100
AcDbBlockEnd
0
BLOCK
5
1C
100
AcDbEntity
100
AcDbBlockBegin
2
*PAPER_SPACE
0
ENDBLK
5
1D
100
AcDbEntity
100
AcDbBlockEnd
0
ENDSEC
0
SECTION
2
ENTITIES
0
LWPOLYLINE
5
100
100
AcDbEntity
8
0
100
AcDbPolyline
90
4
70
1
43
0.0
10
-2.0000000000000062
20
28.330135267779273
42
-0.99999999999999989
10
-3.9968028886505635e-14
20
28.330135267779262
10
-4.4408920985006262e-15
20
11.069864732220713
42
-0.99999999999999989
10
-2.0000000000000018
20
11.069864732220696
0
LWPOLYLINE
5
101
100
AcDbEntity
8
0
100
AcDbPolyline
90
4
70
1
43
0.0
10
21.330126774900414
20
34.400000000000006
42
-0.99999999999999989
10
21.330126774900414
20
32.399999999999999
10
4.0698732250995899
20
32.400000000000006
42
-0.99999999999999989
10
4.0698732250995846
20
34.400000000000006
0
LWPOLYLINE
5
102
100
AcDbEntity
8
0
100
AcDbPolyline
90
4
70
1
43
0.0
10
31.46987322509959
20
32.399999999999999
42
-0.99999999999999989
10
31.46987322509959
20
34.400000000000006
10
48.730126774900413
20
34.400000000000013
42
-0.99999999999999989
10
48.730126774900413
20
32.399999999999991
0
LWPOLYLINE
5
103
100
AcDbEntity
8
0
100
AcDbPolyline
90
4
70
1
43
0.0
10
8.3316278998294191
20
-29.548015646695376
10
0.878606121133225
20
-42.446404739649033
42
1.0000043640976708
10
2.6103037730397172
20
-43.447016173958524
10
10.063313274884209
20
-30.548648327546243
42
1.0000001660995084
0
LWPOLYLINE
5
104
100
AcDbEntity
8
0
100
AcDbPolyline
90
4
70
1
43
0.0
10
-2.0000000000000018
20
55.730135267779303
42
-0.99999999999999989
10
-4.4408920985006262e-15
20
55.730135267779303
10
0
20
38.469864732220735
42
-0.99999999999999989
10
-2.0000000000000462
20
38.469864732220742
0
LWPOLYLINE
5
105
100
AcDbEntity
8
0
100
AcDbPolyline
90
4
70
1
43
0.0
10
51.636684229451035
20
-4.5664235061144867
42
-1.0000001655974431
10
53.368387125284784
20
-5.5670258650596001
10
45.915365346338248
20
-18.465414958313954
42
-1.0000043641103906
10
44.183674727341291
20
-17.4647913526723
0
LWPOLYLINE
5
106
100
AcDbEntity
8
0
100
AcDbPolyline
90
4
70
1
43
0.0
10
10.067982818971171
20
-17.452626088222996
42
-1.0000001660995084
10
8.3355843096107094
20
-18.452023609198051
10
0.89176257658766922
20
-5.5483228669533169
42
-1.0000043640849507
10
2.6241733481850216
20
-4.5489466022047349
0
LWPOLYLINE
5
107
100
AcDbEntity
8
0
100
AcDbPolyline
90
4
70
1
43
0.0
10
4.0698732250995997
20
5.0000000000000044
42
-0.99999999999999989
10
4.0698732250996006
20
7.000000000000024
10
21.330126774900414
20
6.9999999999999929
42
-0.99999999999999989
10
21.330126774900432
20
5
0
LWPOLYLINE
5
108
100
AcDbEntity
8
0
100
AcDbPolyline
90
4
70
1
43
0.0
10
20.14911914838828
20
1.992815715831938
42
-1.0000059340390595
10
20.148417887875816
20
-0.0071841612845055525
10
5.251582112237613
20
-0.0018725148097463019
42
-1.0000045576225569
10
5.2523043470086677
20
1.9981273548569503
0
LWPOLYLINE
5
109
100
AcDbEntity
8
0
100
AcDbPolyline
90
4
70
1
43
0.0
10
24.491124976765178
20
-42.45482480354859
42
-0.99999812688074552
10
22.758719590026963
20
-43.45421040102061
10
15.314895309782049
20
-30.550505244726285
42
-0.99999545706805848
10
17.047307109418472
20
-29.551130761976747
0
LWPOLYLINE
5
110
100
AcDbEntity
8
0
100
AcDbPolyline
90
4
70
1
43
0.0
10
25.399999999999999
20
28.330135267779283
42
-0.99999999999999989
10
27.400000000000002
20
28.330135267779283
10
27.399999999999977
20
11.069864732220713
42
-0.99999999999999989
10
25.400000000000009
20
11.069864732220713
0
LWPOLYLINE
5
111
100
AcDbEntity
8
0
100
AcDbPolyline
90
4
70
1
43
0.0
10
48.730126774900398
20
61.799999999999997
42
-0.99999999999999989
10
48.730126774900398
20
59.799999999999983
10
31.46987322509958
20
59.800000000000011
42
-0.99999999999999989
10
31.46987322509958
20
61.800000000000004
0
LWPOLYLINE
5
112
100
AcDbEntity
8
0
100
AcDbPolyline
90
4
70
1
43
0.0
10
21.330126774900421
20
61.800000000000011
42
-0.99999999999999989
10
21.330126774900432
20
59.800000000000004
10
4.0698732250995988
20
59.799999999999997
42
-0.99999999999999989
10
4.0698732250995828
20
61.79999999999999
0
LWPOLYLINE
5
113
100
AcDbEntity
8
0
100
AcDbPolyline
90
4
70
1
43
0.0
10
49.013241494756201
20
1.9825238655069921
42
-0.99999545705583937
10
49.012519284892392
20
-0.017476004168833492
10
34.115683508543725
20
-0.012164357644968314
42
-0.99999812691038126
10
34.116392886385647
20
1.9878355156593277
0
ARC
5
114
100
AcDbEntity
8
0
100
AcDbCircle
10
19.675076375708763
20
-24.004063565493343
30
0
40
1.0000000000206897
100
AcDbArc
50
89.979570593581343
51
269.97907838528801
0
LINE
5
115
100
AcDbEntity
8
0
100
AcDbLine
10
19.67544185867412
20
-23.004063632261552
30
0
11
34.572260831898419
21
-23.009375272486736
31
0
0
ARC
5
116
100
AcDbEntity
8
0
100
AcDbCircle
10
34.571912148235739
20
-24.009375211717273
30
0
40
1.0000000000206895
100
AcDbArc
50
-90.020478190325576
51
89.980021897338929
0
LINE
5
117
100
AcDbEntity
8
0
100
AcDbLine
10
34.57155473639731
20
-25.009375147866351
30
0
11
19.674711224655312
21
-25.004063498846385
31
0
0
LWPOLYLINE
5
118
100
AcDbEntity
8
0
100
AcDbPolyline
90
4
70
1
43
0.0
10
38.932084120367712
20
-17.462917768841464
42
-1.0000045576225569
10
37.199681413379906
20
-18.462308013496266
10
29.75586354603038
20
-5.55861397273791
42
-1.0000059340390595
10
31.488276733640816
20
-4.5592418960690084
0
LWPOLYLINE
5
119
100
AcDbEntity
8
0
100
AcDbPolyline
90
4
70
1
43
0.0
10
17.051263524322103
20
-18.455123854338879
42
-0.99999545705583937
10
15.319564843080473
20
-17.454514201339073
10
22.772589171942297
20
-4.5561206955766114
42
-0.99999812688074552
10
24.504281433165968
20
-5.5567414591876663
0
LWPOLYLINE
5
120
100
AcDbEntity
8
0
100
AcDbPolyline
90
4
70
1
43
0.0
10
31.46987322509958
20
4.9999999999999911
42
-0.99999999999999989
10
31.46987322509958
20
7.0000000000000018
10
48.730126774900398
20
7.0000000000000107
42
-0.99999999999999989
10
48.730126774900398
20
5.0000000000000178
0
LWPOLYLINE
5
121
100
AcDbEntity
8
0
100
AcDbPolyline
90
4
70
1
43
0.0
10
54.800000000000004
20
11.069864732220704
42
-0.99999999999999989
10
52.800000000000011
20
11.069864732220704
10
52.800000000000004
20
28.330135267779273
42
-0.99999999999999989
10
54.800000000000047
20
28.330135267779273
0
LWPOLYLINE
5
122
100
AcDbEntity
8
0
100
AcDbPolyline
90
4
70
1
43
0.0
10
48.995406414006403
20
-48.011566262820359
42
-0.99999545707416826
10
48.994702375772896
20
-50.011566138088128
10
34.097853767404388
20
-50.006254487599946
42
-0.99999812688074552
10
34.098570637633266
20
-48.006254616037822
0
LWPOLYLINE
5
123
100
AcDbEntity
8
0
100
AcDbPolyline
90
4
70
1
43
0.0
10
27.399999999999984
20
38.469864732220728
42
-0.99999999999999989
10
25.40000000000002
20
38.469864732220728
10
25.400000000000027
20
55.730135267779289
42
-0.99999999999999989
10
27.399999999999991
20
55.730135267779289
0
LWPOLYLINE
5
124
100
AcDbEntity
8
0
100
AcDbPolyline
90
4
70
1
43
0.0
10
31.474407160949248
20
-43.457304567453086
42
-1.0000059340390595
10
29.742707090044298
20
-42.456697319498183
10
37.195724998484387
20
-29.558314924934344
42
-1.0000045576225569
10
38.927414575808356
20
-30.558940333405161
0
LWPOLYLINE
5
125
100
AcDbEntity
8
0
100
AcDbPolyline
90
4
70
1
43
0.0
10
5.2337652280549909
20
-49.99596264957362
42
-1.0000045576225569
10
5.2344692413583571
20
-47.995962773409829
10
20.131305016991803
20
-48.001274419332617
42
-1.0000059340484142
10
20.130580029421079
20
-50.001274287988878
0
LWPOLYLINE
5
126
100
AcDbEntity
8
0
100
AcDbPolyline
90
4
70
1
43
0.0
10
53.355230663664877
20
-42.465124085884469
42
-1.0000001660995084
10
51.622814654771275
20
-43.464491271804917
10
44.179005183525824
20
-30.560811785304413
42
-1.0000043641103906
10
45.911408930933241
20
-29.561423344277546
0
LWPOLYLINE
5
127
100
AcDbEntity
8
0
100
AcDbPolyline
90
4
70
1
43
0.0
10
54.800000000000004
20
38.469864732220735
42
-0.99999999999999989
10
52.800000000000047
20
38.469864732220742
10
52.800000000000004
20
55.730135267779303
42
-0.99999999999999989
10
54.800000000000011
20
55.730135267779303
0
LWPOLYLINE
5
128
100
AcDbEntity
8
0
100
AcDbPolyline
90
4
70
1
43
0.0
10
60.800000000000011
20
67.800000000000011
10
60.800000000000011
20
-55.995962773324059
10
-7.9999999999999982
20
-55.995962773324059
10
-8.000000000000016
20
67.800000000000011
0
LWPOLYLINE
5
129
100
AcDbEntity
8
0
100
AcDbPolyline
90
4
70
1
43
0.0
10
-2.0000000000000062
20
28.330135267779273
42
-0.99999999999999989
10
-3.9968028886505635e-14
20
28.330135267779262
10
-4.4408920985006262e-15
20
11.069864732220713
42
-0.99999999999999989
10
-2.0000000000000018
20
11.069864732220696
0
LWPOLYLINE
5
130
100
AcDbEntity
8
0
100
AcDbPolyline
90
4
70
1
43
0.0
10
21.330126774900414
20
34.400000000000006
42
-0.99999999999999989
10
21.330126774900414
20
32.399999999999999
10
4.0698732250995899
20
32.400000000000006
42
-0.99999999999999989
10
4.0698732250995846
20
34.400000000000006
0
LWPOLYLINE
5
131
100
AcDbEntity
8
0
100
AcDbPolyline
90
4
70
1
43
0.0
10
31.46987322509959
20
32.399999999999999
42
-0.99999999999999989
10
31.46987322509959
20
34.400000000000006
10
48.730126774900398
20
34.400000000000013
42
-0.99999999999999989
10
48.73012677490042
20
32.399999999999991
0
LWPOLYLINE
5
132
100
AcDbEntity
8
0
100
AcDbPolyline
90
4
70
1
43
0.0
10
0.87860612113322523
20
-42.446404739649033
10
8.3316278999968816
20
-29.548015646405574
42
-1.0000001657649673
10
10.063313274884209
20
-30.548648327546239
10
2.6103037730524448
20
-43.447016173936476
42
-1.0000043641103906
0
LWPOLYLINE
5
133
100
AcDbEntity
8
0
100
AcDbPolyline
90
4
70
1
43
0.0
10
-2.0000000000000018
20
55.730135267779303
42
-0.99999999999999989
10
-4.4408920985006262e-15
20
55.730135267779303
10
0
20
38.469864732220735
42
-0.99999999999999989
10
-2.0000000000000462
20
38.469864732220742
0
LWPOLYLINE
5
134
100
AcDbEntity
8
0
100
AcDbPolyline
90
4
70
1
43
0.0
10
51.636684229451035
20
-4.5664235061144867
42
-1.0000001655974431
10
53.368387125284784
20
-5.5670258650596001
10
45.915365346338248
20
-18.46541495831395
42
-1.0000043641103906
10
44.183674727341291
20
-17.4647913526723
0
LWPOLYLINE
5
135
100
AcDbEntity
8
0
100
AcDbPolyline
90
4
70
1
43
0.0
10
10.067982818971171
20
-17.452626088222996
42
-1.0000001660995084
10
8.3355843096107094
20
-18.452023609198051
10
0.89176257658766933
20
-5.5483228669533187
42
-1.0000043640849507
10
2.6241733481850216
20
-4.5489466022047331
0
LWPOLYLINE
5
136
100
AcDbEntity
8
0
100
AcDbPolyline
90
4
70
1
43
0.0
10
4.0698732250995997
20
5.0000000000000044
42
-0.99999999999999989
10
4.0698732250996006
20
7.000000000000024
10
21.330126774900414
20
6.9999999999999929
42
-0.99999999999999989
10
21.330126774900432
20
5
0
LWPOLYLINE
5
137
100
AcDbEntity
8
0
100
AcDbPolyline
90
4
70
1
43
0.0
10
20.14911914838828
20
1.992815715831938
42
-1.0000059340390595
10
20.148417887875816
20
-0.0071841612845055525
10
5.251582112237613
20
-0.0018725148097472734
42
-1.0000045576225569
10
5.2523043470086677
20
1.9981273548569511
0
LWPOLYLINE
5
138
100
AcDbEntity
8
0
100
AcDbPolyline
90
4
70
1
43
0.0
10
24.491124976765178
20
-42.45482480354859
42
-0.99999812688074552
10
22.758719590026963
20
-43.45421040102061
10
15.314895309782049
20
-30.550505244726285
42
-0.99999545706805848
10
17.047307109418472
20
-29.551130761976747
0
LWPOLYLINE
5
139
100
AcDbEntity
8
0
100
AcDbPolyline
90
4
70
1
43
0.0
10
25.399999999999999
20
28.330135267779283
42
-0.99999999999999989
10
27.400000000000002
20
28.330135267779283
10
27.399999999999977
20
11.069864732220713
42
-0.99999999999999989
10
25.400000000000009
20
11.069864732220713
0
LWPOLYLINE
5
140
100
AcDbEntity
8
0
100
AcDbPolyline
90
4
70
1
43
0.0
10
48.730126774900398
20
61.799999999999997
42
-0.99999999999999989
10
48.730126774900398
20
59.799999999999983
10
31.46987322509958
20
59.800000000000011
42
-0.99999999999999989
10
31.46987322509958
20
61.800000000000004
0
LWPOLYLINE
5
141
100
AcDbEntity
8
0
100
AcDbPolyline
90
4
70
1
43
0.0
10
21.330126774900421
20
61.800000000000011
42
-0.99999999999999989
10
21.330126774900432
20
59.800000000000004
10
4.0698732250995988
20
59.799999999999997
42
-0.99999999999999989
10
4.0698732250995828
20
61.79999999999999
0
LWPOLYLINE
5
142
100
AcDbEntity
8
0
100
AcDbPolyline
90
4
70
1
43
0.0
10
49.013241494756201
20
1.9825238655069921
42
-0.99999545705583937
10
49.012519284892392
20
-0.017476004168833492
10
34.115683508573362
20
-0.012164357644977381
42
-0.9999981269251994
10
34.116392886385647
20
1.9878355156593264
0
ARC
5
143
100
AcDbEntity
8
0
100
AcDbCircle
10
19.675076375708763
20
-24.004063565493343
30
0
40
1.0000000000206897
100
AcDbArc
50
89.979570593581343
51
269.97907838528801
0
LINE
5
144
100
AcDbEntity
8
0
100
AcDbLine
10
19.674711224655312
20
-25.004063498846385
30
0
11
34.57155473639731
21
-25.009375147866351
31
0
0
ARC
5
145
100
AcDbEntity
8
0
100
AcDbCircle
10
34.571912148235739
20
-24.009375211717273
30
0
40
1.0000000000206895
100
AcDbArc
50
-90.020478190325576
51
89.980021897338929
0
LINE
5
146
100
AcDbEntity
8
0
100
AcDbLine
10
34.572260831898419
20
-23.009375272486736
30
0
11
19.67544185867412
21
-23.004063632261552
31
0
0
LWPOLYLINE
5
147
100
AcDbEntity
8
0
100
AcDbPolyline
90
4
70
1
43
0.0
10
38.932084120367712
20
-17.462917768841464
42
-1.0000045576225569
10
37.199681413379906
20
-18.462308013496269
10
29.75586354603038
20
-5.5586139727379056
42
-1.0000059340390595
10
31.488276733640816
20
-4.5592418960690129
0
LWPOLYLINE
5
148
100
AcDbEntity
8
0
100
AcDbPolyline
90
4
70
1
43
0.0
10
17.051263524322103
20
-18.455123854338879
42
-0.99999545705583937
10
15.319564843080473
20
-17.454514201339073
10
22.772589171957126
20
-4.5561206955509519
42
-0.99999812686592782
10
24.504281433165968
20
-5.5567414591876663
0
LWPOLYLINE
5
149
100
AcDbEntity
8
0
100
AcDbPolyline
90
4
70
1
43
0.0
10
31.46987322509958
20
4.9999999999999911
42
-0.99999999999999989
10
31.46987322509958
20
7.0000000000000018
10
48.730126774900398
20
7.0000000000000107
42
-0.99999999999999989
10
48.730126774900398
20
5.0000000000000178
0
LWPOLYLINE
5
150
100
AcDbEntity
8
0
100
AcDbPolyline
90
4
70
1
43
0.0
10
54.800000000000004
20
11.069864732220704
42
-0.99999999999999989
10
52.800000000000011
20
11.069864732220704
10
52.799999999999997
20
28.330135267779273
42
-0.99999999999999989
10
54.800000000000054
20
28.330135267779273
0
LWPOLYLINE
5
151
100
AcDbEntity
8
0
100
AcDbPolyline
90
4
70
1
43
0.0
10
48.995406414006403
20
-48.011566262820359
42
-0.99999545707416826
10
48.994702375772896
20
-50.011566138088128
10
34.097853767404388
20
-50.006254487599946
42
-0.99999812688074552
10
34.098570637633266
20
-48.006254616037822
0
LWPOLYLINE
5
152
100
AcDbEntity
8
0
100
AcDbPolyline
90
4
70
1
43
0.0
10
27.399999999999984
20
38.469864732220728
42
-0.99999999999999989
10
25.40000000000002
20
38.469864732220728
10
25.400000000000027
20
55.730135267779289
42
-0.99999999999999989
10
27.399999999999991
20
55.730135267779289
0
LWPOLYLINE
5
153
100
AcDbEntity
8
0
100
AcDbPolyline
90
4
70
1
43
0.0
10
31.474407160949248
20
-43.457304567453086
42
-1.0000059340390595
10
29.742707090044298
20
-42.456697319498183
10
37.195724998484387
20
-29.558314924934347
42
-1.0000045576225569
10
38.927414575808356
20
-30.558940333405154
0
LWPOLYLINE
5
154
100
AcDbEntity
8
0
100
AcDbPolyline
90
4
70
1
43
0.0
10
5.2337652280549909
20
-49.99596264957362
42
-1.0000045576225569
10
5.2344692413583571
20
-47.995962773409829
10
20.131305016991803
20
-48.001274419332617
42
-1.0000059340484142
10
20.130580029421079
20
-50.001274287988878
0
LWPOLYLINE
5
155
100
AcDbEntity
8
0
100
AcDbPolyline
90
4
70
1
43
0.0
10
53.355230663664877
20
-42.465124085884469
42
-1.0000001660995084
10
51.622814654771275
20
-43.464491271804917
10
44.179005183532176
20
-30.56081178531543
42
-1.0000043641167506
10
45.911408930933248
20
-29.561423344277546
0
LWPOLYLINE
5
156
100
AcDbEntity
8
0
100
AcDbPolyline
90
4
70
1
43
0.0
10
54.800000000000004
20
38.469864732220735
42
-0.99999999999999989
10
52.800000000000047
20
38.469864732220742
10
52.799999999999997
20
55.730135267779303
42
-0.99999999999999989
10
54.800000000000026
20
55.730135267779303
0
LWPOLYLINE
5
157
100
AcDbEntity
8
0
100
AcDbPolyline
90
4
70
1
43
0.0
10
60.800000000000018
20
-55.995962773324059
10
60.800000000000018
20
67.800000000000011
10
-8.0000000000000213
20
67.800000000000026
10
-7.9999999999999982
20
-55.995962773324052
0
CIRCLE
5
158
100
AcDbEntity
8
0
100
AcDbCircle
10
57.050000000000011
20
-52.245962773324052
30
0
40
1.5000000000000036
0
CIRCLE
5
159
100
AcDbEntity
8
0
100
AcDbCircle
10
-4.2499999999999982
20
-52.245962773324052
30
0
40
1.5000000000000002
0
CIRCLE
5
160
100
AcDbEntity
8
0
100
AcDbCircle
10
-4.2500000000000053
20
64.050000000000011
30
0
40
1.5000000000000002
0
CIRCLE
5
161
100
AcDbEntity
8
0
100
AcDbCircle
10
57.050000000000026
20
64.050000000000011
30
0
40
1.5000000000000036
0
CIRCLE
5
162
100
AcDbEntity
8
0
100
AcDbCircle
10
57.050000000000011
20
-52.245962773324052
30
0
40
1.5000000000000036
0
CIRCLE
5
163
100
AcDbEntity
8
0
100
AcDbCircle
10
-4.2499999999999982
20
-52.245962773324052
30
0
40
1.5000000000000002
0
CIRCLE
5
164
100
AcDbEntity
8
0
100
AcDbCircle
10
-4.2500000000000053
20
64.050000000000011
30
0
40
1.5000000000000002
0
CIRCLE
5
165
100
AcDbEntity
8
0
100
AcDbCircle
10
57.050000000000026
20
64.050000000000011
30
0
40
1.5000000000000036
0
ENDSEC
0
SECTION
2
OBJECTS
0
DICTIONARY
5
C
100
AcDbDictionary
3
ACAD_GROUP
350
D
3
ACAD_MLINESTYLE
350
17
0
DICTIONARY
5
D
100
AcDbDictionary
0
DICTIONARY
5
1A
330
C
100
AcDbDictionary
0
DICTIONARY
5
17
100
AcDbDictionary
0
ENDSEC
0
EOF
