0
SECTION
2
HEADER
9
$INSUNITS
70
4
9
$ACADVER
1
AC1014
9
$HANDSEED
5
FFFF
0
ENDSEC
0
SECTION
2
TABLES
0
TABLE
2
VPORT
5
8
100
AcDbSymbolTable
0
ENDTAB
0
TABLE
2
LTYPE
5
5
100
AcDbSymbolTable
0
LTYPE
5
14
100
AcDbSymbolTableRecord
100
AcDbLinetypeTableRecord
2
BYBLOCK
70
0
0
LTYPE
5
15
100
AcDbSymbolTableRecord
100
AcDbLinetypeTableRecord
2
BYLAYER
70
0
0
ENDTAB
0
TABLE
2
LAYER
5
2
100
AcDbSymbolTable
70
2
0
LAYER
5
50
100
AcDbSymbolTableRecord
100
AcDbLayerTableRecord
2
0
70
0
6
CONTINUOUS
0
ENDTAB
0
TABLE
2
STYLE
5
3
100
AcDbSymbolTable
70
1
0
STYLE
5
11
100
AcDbSymbolTableRecord
100
AcDbTextStyleTableRecord
2
STANDARD
70
0
0
ENDTAB
0
TABLE
2
VIEW
5
6
100
AcDbSymbolTable
70
0
0
ENDTAB
0
TABLE
2
UCS
5
7
100
AcDbSymbolTable
70
0
0
ENDTAB
0
TABLE
2
APPID
5
9
100
AcDbSymbolTable
70
2
0
APPID
5
12
100
AcDbSymbolTableRecord
100
AcDbRegAppTableRecord
2
ACAD
70
0
0
ENDTAB
0
TABLE
2
DIMSTYLE
5
A
100
AcDbSymbolTable
70
1
0
ENDTAB
0
TABLE
2
BLOCK_RECORD
5
1
100
AcDbSymbolTable
70
1
0
BLOCK_RECORD
5
1F
100
AcDbSymbolTableRecord
100
AcDbBlockTableRecord
2
*MODEL_SPACE
0
BLOCK_RECORD
5
1B
100
AcDbSymbolTableRecord
100
AcDbBlockTableRecord
2
*PAPER_SPACE
0
ENDTAB
0
ENDSEC
0
SECTION
2
BLOCKS
0
BLOCK
5
20
100
AcDbEntity
100
AcDbBlockBegin
2
*MODEL_SPACE
0
ENDBLK
5
21
100
AcDbEntity
100
AcDbBlockEnd
0
BLOCK
5
1C
100
AcDbEntity
100
AcDbBlockBegin
2
*PAPER_SPACE
0
ENDBLK
5
1D
100
AcDbEntity
100
AcDbBlockEnd
0
ENDSEC
0
SECTION
2
ENTITIES
0
LINE
5
100
100
AcDbEntity
8
0
100
AcDbLine
10
38.100000000000001
20
0
30
0
11
50.799999999999983
21
21.997045256124736
31
0
0
LINE
5
101
100
AcDbEntity
8
0
100
AcDbLine
10
50.799999999999983
20
21.997045256124736
30
0
11
38.099999999999994
21
43.994090512249464
31
0
0
LINE
5
102
100
AcDbEntity
8
0
100
AcDbLine
10
38.099999999999994
20
43.994090512249464
30
0
11
12.700000000000005
21
43.994090512249464
31
0
0
LINE
5
103
100
AcDbEntity
8
0
100
AcDbLine
10
12.700000000000005
20
43.994090512249464
30
0
11
4.4408920985006262e-15
21
21.997045256124732
31
0
0
LINE
5
104
100
AcDbEntity
8
0
100
AcDbLine
10
4.4408920985006262e-15
20
21.997045256124732
30
0
11
12.699999999999999
21
0
31
0
0
LINE
5
105
100
AcDbEntity
8
0
100
AcDbLine
10
12.699999999999999
20
0
30
0
11
38.100000000000001
21
0
31
0
0
LINE
5
106
100
AcDbEntity
8
0
100
AcDbLine
10
12.699999999999999
20
0
30
0
11
25.399999999999999
21
21.997045256124728
31
0
0
LINE
5
107
100
AcDbEntity
8
0
100
AcDbLine
10
25.399999999999999
20
21.997045256124728
30
0
11
38.100000000000001
21
0
31
0
0
LINE
5
108
100
AcDbEntity
8
0
100
AcDbLine
10
50.799999999999983
20
21.997045256124736
30
0
11
25.399999999999999
21
21.997045256124728
31
0
0
LINE
5
109
100
AcDbEntity
8
0
100
AcDbLine
10
38.099999999999994
20
43.994090512249464
30
0
11
25.399999999999999
21
21.997045256124728
31
0
0
LINE
5
110
100
AcDbEntity
8
0
100
AcDbLine
10
12.700000000000005
20
43.994090512249464
30
0
11
25.399999999999999
21
21.997045256124728
31
0
0
LINE
5
111
100
AcDbEntity
8
0
100
AcDbLine
10
4.4408920985006262e-15
20
21.997045256124732
30
0
11
25.399999999999999
21
21.997045256124728
31
0
0
CIRCLE
5
112
100
AcDbEntity
8
0
100
AcDbCircle
10
14.8650635094611
20
3.7499999999999982
30
0
40
1.25
0
CIRCLE
5
113
100
AcDbEntity
8
0
100
AcDbCircle
10
25.399999999999999
20
0
30
0
40
1
0
CIRCLE
5
114
100
AcDbEntity
8
0
100
AcDbCircle
10
25.399999999999999
20
21.997045256124728
30
0
40
2.5399999999999978
0
LINE
5
115
100
AcDbEntity
8
0
100
AcDbLine
10
27.940000000000001
20
24.537045256124721
30
0
11
22.859999999999999
21
24.537045256124721
31
0
0
LINE
5
116
100
AcDbEntity
8
0
100
AcDbLine
10
22.859999999999999
20
24.537045256124721
30
0
11
22.859999999999999
21
19.457045256124722
31
0
0
LINE
5
117
100
AcDbEntity
8
0
100
AcDbLine
10
22.859999999999999
20
19.457045256124722
30
0
11
27.940000000000001
21
19.457045256124722
31
0
0
LINE
5
118
100
AcDbEntity
8
0
100
AcDbLine
10
27.940000000000001
20
19.457045256124722
30
0
11
27.940000000000001
21
24.537045256124721
31
0
0
LINE
5
119
100
AcDbEntity
8
0
100
AcDbLine
10
27.940000000000001
20
24.537045256124721
30
0
11
22.859999999999999
21
19.457045256124722
31
0
0
LINE
5
120
100
AcDbEntity
8
0
100
AcDbLine
10
22.859999999999999
20
24.537045256124721
30
0
11
27.940000000000001
21
19.457045256124722
31
0
0
ARC
5
121
100
AcDbEntity
8
0
100
AcDbCircle
10
14.8650635094611
20
3.7499999999999982
30
0
40
3.75
100
AcDbArc
50
209.99999999999997
51
270
0
ARC
5
122
100
AcDbEntity
8
0
100
AcDbCircle
10
35.934936490538895
20
3.7499999999999933
30
0
40
3.75
100
AcDbArc
50
270
51
330.00000000000006
0
CIRCLE
5
123
100
AcDbEntity
8
0
100
AcDbCircle
10
35.934936490538895
20
3.7499999999999933
30
0
40
1.25
0
CIRCLE
5
124
100
AcDbEntity
8
0
100
AcDbCircle
10
44.449999999999989
20
10.998522628062361
30
0
40
1
0
ARC
5
125
100
AcDbEntity
8
0
100
AcDbCircle
10
46.469872981077799
20
21.997045256124721
30
0
40
3.7499999999999951
100
AcDbArc
50
-30.000000000000171
51
30.000000000000057
0
CIRCLE
5
126
100
AcDbEntity
8
0
100
AcDbCircle
10
46.469872981077799
20
21.997045256124721
30
0
40
1.25
0
CIRCLE
5
127
100
AcDbEntity
8
0
100
AcDbCircle
10
44.449999999999989
20
32.995567884187089
30
0
40
1
0
ARC
5
128
100
AcDbEntity
8
0
100
AcDbCircle
10
35.934936490538902
20
40.244090512249443
30
0
40
3.75
100
AcDbArc
50
29.999999999999993
51
90
0
CIRCLE
5
129
100
AcDbEntity
8
0
100
AcDbCircle
10
35.934936490538902
20
40.244090512249443
30
0
40
1.25
0
CIRCLE
5
130
100
AcDbEntity
8
0
100
AcDbCircle
10
25.399999999999999
20
43.994090512249443
30
0
40
1
0
ARC
5
131
100
AcDbEntity
8
0
100
AcDbCircle
10
14.865063509461114
20
40.244090512249464
30
0
40
3.75
100
AcDbArc
50
89.999999999999972
51
150.00000000000003
0
CIRCLE
5
132
100
AcDbEntity
8
0
100
AcDbCircle
10
14.865063509461114
20
40.244090512249464
30
0
40
1.25
0
CIRCLE
5
133
100
AcDbEntity
8
0
100
AcDbCircle
10
6.3500000000000174
20
32.995567884187103
30
0
40
1
0
ARC
5
134
100
AcDbEntity
8
0
100
AcDbCircle
10
4.3301270189222052
20
21.997045256124746
30
0
40
3.7500000000000018
100
AcDbArc
50
149.99999999999997
51
209.99999999999994
0
CIRCLE
5
135
100
AcDbEntity
8
0
100
AcDbCircle
10
4.3301270189222052
20
21.997045256124746
30
0
40
1.25
0
CIRCLE
5
136
100
AcDbEntity
8
0
100
AcDbCircle
10
6.3500000000000023
20
10.998522628062378
30
0
40
1
0
ENDSEC
0
SECTION
2
OBJECTS
0
DICTIONARY
5
C
100
AcDbDictionary
3
ACAD_GROUP
350
D
3
ACAD_MLINESTYLE
350
17
0
DICTIONARY
5
D
100
AcDbDictionary
0
DICTIONARY
5
1A
330
C
100
AcDbDictionary
0
DICTIONARY
5
17
100
AcDbDictionary
0
ENDSEC
0
EOF
