0
SECTION
2
HEADER
9
$INSUNITS
70
4
9
$ACADVER
1
AC1014
9
$HANDSEED
5
FFFF
0
ENDSEC
0
SECTION
2
TABLES
0
TABLE
2
VPORT
5
8
100
AcDbSymbolTable
0
ENDTAB
0
TABLE
2
LTYPE
5
5
100
AcDbSymbolTable
0
LTYPE
5
14
100
AcDbSymbolTableRecord
100
AcDbLinetypeTableRecord
2
BYBLOCK
70
0
0
LTYPE
5
15
100
AcDbSymbolTableRecord
100
AcDbLinetypeTableRecord
2
BYLAYER
70
0
0
ENDTAB
0
TABLE
2
LAYER
5
2
100
AcDbSymbolTable
70
2
0
LAYER
5
50
100
AcDbSymbolTableRecord
100
AcDbLayerTableRecord
2
0
70
0
6
CONTINUOUS
0
ENDTAB
0
TABLE
2
STYLE
5
3
100
AcDbSymbolTable
70
1
0
STYLE
5
11
100
AcDbSymbolTableRecord
100
AcDbTextStyleTableRecord
2
STANDARD
70
0
0
ENDTAB
0
TABLE
2
VIEW
5
6
100
AcDbSymbolTable
70
0
0
ENDTAB
0
TABLE
2
UCS
5
7
100
AcDbSymbolTable
70
0
0
ENDTAB
0
TABLE
2
APPID
5
9
100
AcDbSymbolTable
70
2
0
APPID
5
12
100
AcDbSymbolTableRecord
100
AcDbRegAppTableRecord
2
ACAD
70
0
0
ENDTAB
0
TABLE
2
DIMSTYLE
5
A
100
AcDbSymbolTable
70
1
0
ENDTAB
0
TABLE
2
BLOCK_RECORD
5
1
100
AcDbSymbolTable
70
1
0
BLOCK_RECORD
5
1F
100
AcDbSymbolTableRecord
100
AcDbBlockTableRecord
2
*MODEL_SPACE
0
BLOCK_RECORD
5
1B
100
AcDbSymbolTableRecord
100
AcDbBlockTableRecord
2
*PAPER_SPACE
0
ENDTAB
0
ENDSEC
0
SECTION
2
BLOCKS
0
BLOCK
5
20
100
AcDbEntity
100
AcDbBlockBegin
2
*MODEL_SPACE
0
ENDBLK
5
21
100
AcDbEntity
100
AcDbBlockEnd
0
BLOCK
5
1C
100
AcDbEntity
100
AcDbBlockBegin
2
*PAPER_SPACE
0
ENDBLK
5
1D
100
AcDbEntity
100
AcDbBlockEnd
0
ENDSEC
0
SECTION
2
ENTITIES
0
LWPOLYLINE
5
100
100
AcDbEntity
8
0
100
AcDbPolyline
90
4
70
1
43
0.0
10
-75.200000000000003
20
68.340000000000003
10
49.799999999999997
20
68.340000000000003
10
49.799999999999997
20
-111.66
10
-75.200000000000003
20
-111.66
0
LWPOLYLINE
5
101
100
AcDbEntity
8
0
100
AcDbPolyline
90
8
70
1
43
0.0
10
13.259690846673394
20
-76.282717972988507
10
14.22410627259088
20
-73.95313449032858
42
0.23311614065396605
10
14.166177891211973
20
-73.070630368935468
10
5.4620253389953834
20
-57.994595911674551
42
0.2331161406573401
10
4.7267185416010253
20
-57.503176401102436
10
2.2270323524486311
20
-57.173592918455796
42
0.62190724300614031
10
1.2302883422742328
20
-58.665012429028138
10
11.469711657725735
20
-76.400213851595581
42
0.62190724301073685
0
LWPOLYLINE
5
102
100
AcDbEntity
8
0
100
AcDbPolyline
90
8
70
1
43
0.0
10
-38.659690846659956
20
-80.779553563757119
10
-39.624106272577443
20
-83.109137046417032
42
0.23311614065350406
10
-39.566177891197214
20
-83.991641167807899
10
-30.862025338983003
20
-99.067675625070208
42
0.23311614065778483
10
-30.126718541587593
20
-99.55909513564319
10
-27.627032352435791
20
-99.888678618294279
42
0.62190724300164368
10
-26.630288342274238
20
-98.397259107720259
10
-36.869711657725766
20
-80.66205768515286
42
0.62190724300804878
0
LWPOLYLINE
5
103
100
AcDbEntity
8
0
100
AcDbPolyline
90
4
70
1
43
0.0
10
-52.266177891194722
20
-99.067675625076262
42
-0.99999999999999989
10
-53.998228698763839
20
-98.067675625076646
10
-45.294076146554644
20
-82.991641167811494
42
-0.99999999999999989
10
-43.562025338985507
20
-83.991641167811053
0
LWPOLYLINE
5
104
100
AcDbEntity
8
0
100
AcDbPolyline
90
4
70
1
43
0.0
10
-50.268254167301137
20
-104.52818102450513
10
-32.859949062875359
20
-104.52818102450279
42
0.99999999999999989
10
-32.859949062875828
20
-102.52818102450279
10
-50.26825416730162
20
-102.52818102450691
42
0.99999999999999989
0
CIRCLE
5
105
100
AcDbEntity
8
0
100
AcDbCircle
10
-41.564101615093293
20
-78.531135768379883
30
0
40
1.0000000000000009
0
LINE
5
106
100
AcDbEntity
8
0
100
AcDbLine
10
43.030279506351846
20
-83.9916411677913
30
0
11
34.326126954140989
21
-99.0676756250555
31
0
0
ARC
5
107
100
AcDbEntity
8
0
100
AcDbCircle
10
33.460101550358694
20
-98.567675625055358
30
0
40
0.99999999999999689
100
AcDbArc
50
150.00000000009672
51
329.99999999993156
0
LINE
5
108
100
AcDbEntity
8
0
100
AcDbLine
10
32.594076146573414
20
-98.067675625056822
30
0
11
41.298228698782737
21
-82.991641167791698
31
0
0
ARC
5
109
100
AcDbEntity
8
0
100
AcDbCircle
10
42.164254102567341
20
-83.491641167791414
30
0
40
0.99999999999999889
100
AcDbArc
50
-29.999999999992436
51
150.00000000001887
0
LWPOLYLINE
5
110
100
AcDbEntity
8
0
100
AcDbPolyline
90
4
70
1
43
0.0
10
39.300304974888107
20
-77.531135768360159
42
-0.99999999999999989
10
39.300304974888583
20
-79.531135768360159
10
21.891999870462815
20
-79.531135768364422
42
-0.99999999999999989
10
21.8919998704623
20
-77.531135768364422
0
LWPOLYLINE
5
111
100
AcDbEntity
8
0
100
AcDbPolyline
90
4
70
1
43
0.0
10
43.030279506348819
20
-73.070630368930267
10
34.326126954133898
20
-57.994595911668384
42
0.99999999999999989
10
32.59407614656525
20
-58.994595911668803
10
41.29822869878172
20
-74.07063036892977
42
0.99999999999999989
0
ARC
5
112
100
AcDbEntity
8
0
100
AcDbCircle
10
27.732203294992701
20
-58.494595911669187
30
0
40
1.0000000000000044
100
AcDbArc
50
-29.99999999998623
51
150.00000085378753
0
LINE
5
113
100
AcDbEntity
8
0
100
AcDbLine
10
28.598228698777262
20
-58.994595911668981
30
0
11
19.894076146568057
21
-74.070630368934161
31
0
0
ARC
5
114
100
AcDbEntity
8
0
100
AcDbCircle
10
19.028050742783492
20
-73.570630368934374
30
0
40
0.99999999999999623
100
AcDbArc
50
150.00000000001401
51
330.00000000001421
0
LINE
5
115
100
AcDbEntity
8
0
100
AcDbLine
10
18.162025338998934
20
-73.070630368934587
30
0
11
26.866177891208132
21
-57.994595911669393
31
0
0
LWPOLYLINE
5
116
100
AcDbEntity
8
0
100
AcDbPolyline
90
4
70
1
43
0.0
10
24.868254167314564
20
-52.53409051224051
10
7.459949062888775
20
-52.534090512242841
42
0.99999999999999989
10
7.4599490628892484
20
-54.534090512242841
10
24.86825416731504
20
-54.53409051223872
42
0.99999999999999989
0
LWPOLYLINE
5
117
100
AcDbEntity
8
0
100
AcDbPolyline
90
8
70
1
43
0.0
10
2.2270323524638496
20
-99.888678618284374
10
4.7267185416427022
20
-99.559095135600529
42
0.23311614064793745
10
5.462025339005292
20
-99.067675625062094
10
14.166177891214502
20
-83.991641167796899
42
0.23311614066329464
10
14.224106272606967
20
-83.109137046359635
10
13.259690846666359
20
-80.779553563742951
42
0.62190724300436528
10
11.469711657725743
20
-80.662057685152874
10
1.2302883422742013
20
-98.397259107720288
42
0.62190724301176359
0
LWPOLYLINE
5
118
100
AcDbEntity
8
0
100
AcDbPolyline
90
4
70
1
43
0.0
10
7.4599490628988585
20
-104.52818102449099
10
24.868254167324647
20
-104.52818102448865
42
0.99999999999999989
10
24.868254167324174
20
-102.52818102448865
10
7.4599490628983833
20
-102.52818102449277
42
0.99999999999999989
0
ARC
5
119
100
AcDbEntity
8
0
100
AcDbCircle
10
19.028050742786341
20
-83.491641167795777
30
0
40
0.99999999999999589
100
AcDbArc
50
30.000000000095266
51
210.00000000009598
0
LINE
5
120
100
AcDbEntity
8
0
100
AcDbLine
10
19.89407614656994
20
-82.991641167794342
30
0
11
28.598228698786478
21
-98.067675625055273
31
0
0
ARC
5
121
100
AcDbEntity
8
0
100
AcDbCircle
10
27.732203295001998
20
-98.567675625057021
30
0
40
0.99999999999999933
100
AcDbArc
50
-150.00000000006401
51
30.000000000085535
0
LINE
5
122
100
AcDbEntity
8
0
100
AcDbLine
10
26.866177891216999
20
-99.067675625056054
30
0
11
18.162025339002742
21
-83.991641167797226
31
0
0
CIRCLE
5
123
100
AcDbEntity
8
0
100
AcDbCircle
10
16.164101615106713
20
-78.531135768365743
30
0
40
1.0000000000000009
0
LWPOLYLINE
5
124
100
AcDbEntity
8
0
100
AcDbPolyline
90
4
70
1
43
0.0
10
43.100000000000009
20
36.74822310026321
42
-0.99999999999999989
10
41.099999999999994
20
36.748223100263225
10
41.099999999999994
20
56.531776899736776
42
-0.99999999999999989
10
43.100000000000009
20
56.531776899736776
0
LWPOLYLINE
5
125
100
AcDbEntity
8
0
100
AcDbPolyline
90
4
70
1
43
0.0
10
38.291776899736774
20
61.339999999999996
10
18.508223100263244
20
61.339999999999989
42
0.99999999999999989
10
18.508223100263233
20
59.339999999999989
10
38.291776899736789
20
59.339999999999989
42
0.99999999999999989
0
LWPOLYLINE
5
126
100
AcDbEntity
8
0
100
AcDbPolyline
90
4
70
1
43
0.0
10
18.508223100263233
20
4.5400000000000009
10
38.291776899736782
20
4.5400000000000009
42
0.99999999999999989
10
38.291776899736782
20
6.54
10
18.508223100263233
20
6.5400000000000009
42
0.99999999999999989
0
LWPOLYLINE
5
127
100
AcDbEntity
8
0
100
AcDbPolyline
90
4
70
1
43
0.0
10
43.100000000000009
20
9.3482231002632137
42
-0.99999999999999989
10
41.099999999999994
20
9.348223100263219
10
41.099999999999994
20
29.131776899736774
42
-0.99999999999999989
10
43.100000000000009
20
29.131776899736774
0
LWPOLYLINE
5
128
100
AcDbEntity
8
0
100
AcDbPolyline
90
4
70
1
43
0.0
10
38.291776899736774
20
33.939999999999991
10
18.508223100263244
20
33.939999999999976
42
0.99999999999999989
10
18.508223100263233
20
31.939999999999994
10
38.291776899736789
20
31.939999999999991
42
0.99999999999999989
0
LWPOLYLINE
5
129
100
AcDbEntity
8
0
100
AcDbPolyline
90
4
70
1
43
0.0
10
-66.499999999999986
20
36.748223100263225
10
-66.5
20
56.531776899736776
42
0.99999999999999989
10
-68.499999999999986
20
56.531776899736769
10
-68.499999999999972
20
36.748223100263225
42
0.99999999999999989
0
LWPOLYLINE
5
130
100
AcDbEntity
8
0
100
AcDbPolyline
90
4
70
1
43
0.0
10
-43.908223100263228
20
61.339999999999996
10
-63.691776899736759
20
61.339999999999989
42
0.99999999999999989
10
-63.691776899736766
20
59.339999999999989
10
-43.908223100263221
20
59.339999999999989
42
0.99999999999999989
0
LWPOLYLINE
5
131
100
AcDbEntity
8
0
100
AcDbPolyline
90
4
70
1
43
0.0
10
-63.691776899736766
20
4.5400000000000009
10
-43.908223100263228
20
4.5400000000000009
42
0.99999999999999989
10
-43.908223100263228
20
6.54
10
-63.691776899736766
20
6.5400000000000009
42
0.99999999999999989
0
LWPOLYLINE
5
132
100
AcDbEntity
8
0
100
AcDbPolyline
90
4
70
1
43
0.0
10
-66.499999999999986
20
9.348223100263219
10
-66.5
20
29.131776899736771
42
0.99999999999999989
10
-68.499999999999986
20
29.131776899736764
10
-68.499999999999972
20
9.3482231002632208
42
0.99999999999999989
0
LWPOLYLINE
5
133
100
AcDbEntity
8
0
100
AcDbPolyline
90
4
70
1
43
0.0
10
-43.908223100263228
20
33.939999999999991
10
-63.691776899736759
20
33.939999999999976
42
0.99999999999999989
10
-63.691776899736766
20
31.939999999999994
10
-43.908223100263221
20
31.939999999999991
42
0.99999999999999989
0
LWPOLYLINE
5
134
100
AcDbEntity
8
0
100
AcDbPolyline
90
4
70
1
43
0.0
10
-50.268254167349298
20
-49.994090512249763
10
-32.859949062923505
20
-49.994090512247823
42
0.99999999999999989
10
-32.859949062923519
20
-47.994090512251397
10
-50.268254167349312
20
-47.994090512249763
42
0.99999999999999989
0
LWPOLYLINE
5
135
100
AcDbEntity
8
0
100
AcDbPolyline
90
4
70
1
43
0.0
10
-52.266177891244034
20
-44.533585112818542
42
-0.99999999999999989
10
-53.998228698812902
20
-43.533585112818528
10
-45.294076146600013
20
-28.457550655555487
42
-0.99999999999999989
10
-43.562025339031123
20
-29.45755065555549
0
LINE
5
136
100
AcDbEntity
8
0
100
AcDbLine
10
-59.726126954166958
20
-44.53358511281894
30
0
11
-68.430279506381524
21
-29.457550655556858
31
0
0
ARC
5
137
100
AcDbEntity
8
0
100
AcDbCircle
10
-67.564254102597133
20
-28.957550655556773
30
0
40
1.000000000000008
100
AcDbArc
50
29.999999999995143
51
210.00000000000554
0
LINE
5
138
100
AcDbEntity
8
0
100
AcDbLine
10
-66.698228698812642
20
-28.45755065555684
30
0
11
-57.994076146601181
21
-43.53358511282071
31
0
0
ARC
5
139
100
AcDbEntity
8
0
100
AcDbCircle
10
-58.860101550384783
20
-44.033585112818585
30
0
40
0.99999999999821121
100
AcDbArc
50
-149.99999999991752
51
29.999999999918529
0
LWPOLYLINE
5
140
100
AcDbEntity
8
0
100
AcDbPolyline
90
4
70
1
43
0.0
10
-64.700304974919334
20
-24.99704525612481
42
-0.99999999999999989
10
-64.700304974919348
20
-22.997045256124807
10
-47.291999870493562
20
-22.997045256124803
42
-0.99999999999999989
10
-47.291999870493562
20
-24.997045256124807
0
LWPOLYLINE
5
141
100
AcDbEntity
8
0
100
AcDbPolyline
90
4
70
1
43
0.0
10
-59.726126954169949
20
-3.4605053994318236
10
-68.430279506381169
20
-18.536539856695839
42
0.99999999999999989
10
-66.69822869881537
20
-19.536539856694045
10
-57.994076146601074
20
-4.4605053994318116
42
0.99999999999999989
0
LWPOLYLINE
5
142
100
AcDbEntity
8
0
100
AcDbPolyline
90
4
70
1
43
0.0
10
-53.998228698813058
20
-4.4605053994310087
42
-0.99999999999999989
10
-52.266177891244176
20
-3.4605053994309931
10
-43.56202533903128
20
-18.536539856694041
42
-0.99999999999999989
10
-45.294076146600162
20
-19.536539856694041
0
LWPOLYLINE
5
143
100
AcDbEntity
8
0
100
AcDbPolyline
90
4
70
1
43
0.0
10
-32.859949062926162
20
2.0000000000003175
10
-50.268254167351941
20
1.9999999999983822
42
0.99999999999999989
10
-50.268254167351934
20
1.9500996963949128e-12
10
-32.859949062926141
20
3.1613600626201332e-13
42
0.99999999999999989
0
CIRCLE
5
144
100
AcDbEntity
8
0
100
AcDbCircle
10
-41.564101615137723
20
-23.997045256124721
30
0
40
1.0000000000000009
0
LWPOLYLINE
5
145
100
AcDbEntity
8
0
100
AcDbPolyline
90
4
70
1
43
0.0
10
43.030279506381575
20
-18.536539856692595
10
34.326126954167023
20
-3.4605053994305091
42
0.99999999999999989
10
32.594076146601239
20
-4.4605053994287358
10
41.2982286988127
20
-19.53653985669261
42
0.99999999999999989
0
LWPOLYLINE
5
146
100
AcDbEntity
8
0
100
AcDbPolyline
90
4
70
1
43
0.0
10
39.300304974919406
20
-22.99704525612464
42
-0.99999999999999989
10
39.300304974919406
20
-24.997045256124643
10
21.891999870493617
20
-24.997045256124636
42
-0.99999999999999989
10
21.891999870493617
20
-22.997045256124636
0
LWPOLYLINE
5
147
100
AcDbEntity
8
0
100
AcDbPolyline
90
4
70
1
43
0.0
10
34.32612695417
20
-44.533585112817626
10
43.03027950638122
20
-29.457550655553611
42
0.99999999999999989
10
41.298228698815429
20
-28.457550655555405
10
32.594076146601111
20
-43.533585112817633
42
0.99999999999999989
0
LWPOLYLINE
5
148
100
AcDbEntity
8
0
100
AcDbPolyline
90
4
70
1
43
0.0
10
28.598228698813099
20
-43.533585112818415
42
-0.99999999999999989
10
26.866177891244241
20
-44.53358511281845
10
18.162025339031334
20
-29.457550655555398
42
-0.99999999999999989
10
19.894076146600217
20
-28.457550655555401
0
LWPOLYLINE
5
149
100
AcDbEntity
8
0
100
AcDbPolyline
90
4
70
1
43
0.0
10
7.4599490629262144
20
-49.994090512249763
10
24.868254167352003
20
-49.994090512247823
42
0.99999999999999989
10
24.868254167351989
20
-47.994090512251397
10
7.4599490629261966
20
-47.994090512249763
42
0.99999999999999989
0
LWPOLYLINE
5
150
100
AcDbEntity
8
0
100
AcDbPolyline
90
4
70
1
43
0.0
10
24.868254167349345
20
2.0000000000003175
10
7.4599490629235587
20
1.9999999999983822
42
0.99999999999999989
10
7.4599490629235721
20
1.9500996963949128e-12
10
24.868254167349363
20
3.1613600626201332e-13
42
0.99999999999999989
0
ARC
5
151
100
AcDbEntity
8
0
100
AcDbCircle
10
19.028050742816195
20
-19.036539856693977
30
0
40
1.0000000000000018
100
AcDbArc
50
150.00000000008873
51
330.00000000008862
0
LINE
5
152
100
AcDbEntity
8
0
100
AcDbLine
10
18.162025339030979
20
-18.536539856695317
30
0
11
26.866177891242256
21
-3.460505399431324
31
0
0
ARC
5
153
100
AcDbEntity
8
0
100
AcDbCircle
10
27.73220329502815
20
-3.9605053994306143
30
0
40
1.0000000000000004
100
AcDbArc
50
-30.000000000070752
51
150.00000000007691
0
LINE
5
154
100
AcDbEntity
8
0
100
AcDbLine
10
28.598228698811972
20
-4.4605053994316846
30
0
11
19.894076146601407
21
-19.536539856692638
31
0
0
CIRCLE
5
155
100
AcDbEntity
8
0
100
AcDbCircle
10
16.164101615137781
20
-23.997045256124721
30
0
40
1.0000000000000009
0
LWPOLYLINE
5
156
100
AcDbEntity
8
0
100
AcDbPolyline
90
4
70
1
43
0.0
10
15.700000000000001
20
36.74822310026321
42
-0.99999999999999989
10
13.699999999999999
20
36.748223100263225
10
13.699999999999996
20
56.531776899736776
42
-0.99999999999999989
10
15.699999999999999
20
56.531776899736776
0
LWPOLYLINE
5
157
100
AcDbEntity
8
0
100
AcDbPolyline
90
4
70
1
43
0.0
10
10.891776899736776
20
61.339999999999996
10
-8.8917768997367563
20
61.339999999999989
42
0.99999999999999989
10
-8.8917768997367688
20
59.339999999999989
10
10.891776899736783
20
59.339999999999989
42
0.99999999999999989
0
LWPOLYLINE
5
158
100
AcDbEntity
8
0
100
AcDbPolyline
90
4
70
1
43
0.0
10
-8.8917768997367688
20
4.5400000000000009
10
10.891776899736779
20
4.5400000000000009
42
0.99999999999999989
10
10.891776899736779
20
6.54
10
-8.8917768997367688
20
6.5400000000000009
42
0.99999999999999989
0
LWPOLYLINE
5
159
100
AcDbEntity
8
0
100
AcDbPolyline
90
4
70
1
43
0.0
10
15.700000000000001
20
9.3482231002632137
42
-0.99999999999999989
10
13.699999999999999
20
9.348223100263219
10
13.699999999999996
20
29.131776899736774
42
-0.99999999999999989
10
15.699999999999999
20
29.131776899736774
0
LWPOLYLINE
5
160
100
AcDbEntity
8
0
100
AcDbPolyline
90
4
70
1
43
0.0
10
10.891776899736776
20
33.939999999999991
10
-8.8917768997367563
20
33.939999999999976
42
0.99999999999999989
10
-8.8917768997367688
20
31.939999999999994
10
10.891776899736783
20
31.939999999999991
42
0.99999999999999989
0
LWPOLYLINE
5
161
100
AcDbEntity
8
0
100
AcDbPolyline
90
4
70
1
43
0.0
10
-39.09999999999998
20
36.748223100263225
10
-39.099999999999994
20
56.531776899736776
42
0.99999999999999989
10
-41.099999999999987
20
56.531776899736769
10
-41.09999999999998
20
36.748223100263225
42
0.99999999999999989
0
LWPOLYLINE
5
162
100
AcDbEntity
8
0
100
AcDbPolyline
90
4
70
1
43
0.0
10
-11.700000000000001
20
36.74822310026321
42
-0.99999999999999989
10
-13.700000000000003
20
36.748223100263225
10
-13.700000000000006
20
56.531776899736776
42
-0.99999999999999989
10
-11.700000000000003
20
56.531776899736776
0
LWPOLYLINE
5
163
100
AcDbEntity
8
0
100
AcDbPolyline
90
4
70
1
43
0.0
10
-16.508223100263226
20
61.339999999999996
10
-36.29177689973676
20
61.339999999999989
42
0.99999999999999989
10
-36.291776899736774
20
59.339999999999989
10
-16.508223100263219
20
59.339999999999989
42
0.99999999999999989
0
LINE
5
164
100
AcDbEntity
8
0
100
AcDbLine
10
5.4620253390292719
20
-3.4605053994305091
30
0
11
14.16617789124383
21
-18.536539856692595
31
0
0
ARC
5
165
100
AcDbEntity
8
0
100
AcDbCircle
10
13.300152487459441
20
-19.036539856692684
30
0
40
1.0000000000000018
100
AcDbArc
50
-150.00000000000486
51
30.000000853768746
0
LINE
5
166
100
AcDbEntity
8
0
100
AcDbLine
10
12.434127083674957
20
-19.536539856692613
30
0
11
3.7299745314634913
21
-4.4605053994287358
31
0
0
ARC
5
167
100
AcDbEntity
8
0
100
AcDbCircle
10
4.5959999352470966
20
-3.9605053994308625
30
0
40
0.99999999999821654
100
AcDbArc
50
30.00000000008237
51
209.99999999991834
0
LWPOLYLINE
5
168
100
AcDbEntity
8
0
100
AcDbPolyline
90
4
70
1
43
0.0
10
10.436203359781647
20
-22.99704525612464
42
-0.99999999999999989
10
10.436203359781654
20
-24.997045256124643
10
-6.9721017446441405
20
-24.997045256124636
42
-0.99999999999999989
10
-6.9721017446441369
20
-22.997045256124636
0
LINE
5
169
100
AcDbEntity
8
0
100
AcDbLine
10
14.166177891243468
20
-29.457550655553611
30
0
11
5.4620253390322429
21
-44.533585112817626
31
0
0
ARC
5
170
100
AcDbEntity
8
0
100
AcDbCircle
10
4.5959999352477503
20
-44.033585112817704
30
0
40
0.99999999999999589
100
AcDbArc
50
149.9999999999952
51
330.0000000000054
0
LINE
5
171
100
AcDbEntity
8
0
100
AcDbLine
10
3.7299745314633559
20
-43.533585112817633
30
0
11
12.434127083677675
21
-28.457550655555405
31
0
0
ARC
5
172
100
AcDbEntity
8
0
100
AcDbCircle
10
13.300152487459854
20
-28.957550655555746
30
0
40
0.99999999999821776
100
AcDbArc
50
-29.99999999991773
51
149.99999999991834
0
LWPOLYLINE
5
173
100
AcDbEntity
8
0
100
AcDbPolyline
90
4
70
1
43
0.0
10
-0.26587291632463594
20
-43.533585112818443
42
-0.99999999999999989
10
-1.9979237238935177
20
-44.533585112818443
10
-10.702076276106421
20
-29.457550655555398
42
-0.99999999999999989
10
-8.9700254685375373
20
-28.457550655555401
0
LWPOLYLINE
5
174
100
AcDbEntity
8
0
100
AcDbPolyline
90
4
70
1
43
0.0
10
-21.404152552211539
20
-49.994090512249763
10
-3.995847447785752
20
-49.994090512247823
42
0.99999999999999989
10
-3.9958474477857653
20
-47.994090512251397
10
-21.404152552211556
20
-47.994090512249763
42
0.99999999999999989
0
LWPOLYLINE
5
175
100
AcDbEntity
8
0
100
AcDbPolyline
90
4
70
1
43
0.0
10
-23.402076276106271
20
-44.533585112818528
42
-0.99999999999999989
10
-25.134127083675153
20
-43.533585112818535
10
-16.429974531462253
20
-28.45755065555548
42
-0.99999999999999989
10
-14.697923723893375
20
-29.457550655555487
0
LWPOLYLINE
5
176
100
AcDbEntity
8
0
100
AcDbPolyline
90
4
70
1
43
0.0
10
-39.566177891243768
20
-29.457550655556858
10
-30.862025339029202
20
-44.53358511281894
42
0.99999999999999989
10
-29.129974531463425
20
-43.53358511282071
10
-37.8341270836749
20
-28.45755065555684
42
0.99999999999999989
0
LWPOLYLINE
5
177
100
AcDbEntity
8
0
100
AcDbPolyline
90
4
70
1
43
0.0
10
-35.836203359781592
20
-24.99704525612481
42
-0.99999999999999989
10
-35.836203359781599
20
-22.997045256124807
10
-18.427898255355807
20
-22.997045256124803
42
-0.99999999999999989
10
-18.42789825535581
20
-24.997045256124807
0
LWPOLYLINE
5
178
100
AcDbEntity
8
0
100
AcDbPolyline
90
4
70
1
43
0.0
10
-30.862025339032201
20
-3.4605053994318236
10
-39.566177891243413
20
-18.536539856695839
42
0.99999999999999989
10
-37.834127083677622
20
-19.536539856694045
10
-29.129974531463311
20
-4.4605053994318089
42
0.99999999999999989
0
LWPOLYLINE
5
179
100
AcDbEntity
8
0
100
AcDbPolyline
90
4
70
1
43
0.0
10
-22.939423315451538
20
-56.53409051224947
10
-2.4605766845484718
20
-56.534090512249477
42
0.99999999999999989
10
-2.46057668454847
20
-54.534090512249485
10
-22.939423315451542
20
-54.534090512249463
42
0.99999999999999989
0
LWPOLYLINE
5
180
100
AcDbEntity
8
0
100
AcDbPolyline
90
4
70
1
43
0.0
10
-22.939423315451588
20
-102.52818102449891
42
-0.99999999999999989
10
-22.939423315451553
20
-100.52818102449891
10
-2.4605766845448787
20
-100.52818102449896
42
-1.0000000849496924
10
-2.460576854451455
20
-102.52818102449893
0
LWPOLYLINE
5
181
100
AcDbEntity
8
0
100
AcDbPolyline
90
8
70
1
43
0.0
10
-39.624106272593522
20
-73.95313449038602
10
-38.659690846657078
20
-76.282717973004438
42
0.62190724300343914
10
-36.869711657725773
20
-76.400213851595538
10
-26.630288342274216
20
-58.665012429028138
42
0.62190724300700095
10
-27.627032352450421
20
-57.173592918461253
10
-30.126718541633139
20
-57.503176401115738
42
0.23311614064792091
10
-30.86202533899187
20
-57.994595911683533
10
-39.566177891201072
20
-73.070630368948727
42
0.23311614066330369
0
LWPOLYLINE
5
182
100
AcDbEntity
8
0
100
AcDbPolyline
90
4
70
1
43
0.0
10
-36.291776899736774
20
4.5400000000000009
10
-16.508223100263223
20
4.5400000000000009
42
0.99999999999999989
10
-16.508223100263223
20
6.54
10
-36.291776899736774
20
6.5400000000000009
42
0.99999999999999989
0
LWPOLYLINE
5
183
100
AcDbEntity
8
0
100
AcDbPolyline
90
4
70
1
43
0.0
10
-39.09999999999998
20
9.348223100263219
10
-39.099999999999994
20
29.131776899736771
42
0.99999999999999989
10
-41.099999999999987
20
29.131776899736764
10
-41.09999999999998
20
9.3482231002632208
42
0.99999999999999989
0
LWPOLYLINE
5
184
100
AcDbEntity
8
0
100
AcDbPolyline
90
4
70
1
43
0.0
10
-11.700000000000001
20
9.3482231002632137
42
-0.99999999999999989
10
-13.700000000000003
20
9.348223100263219
10
-13.700000000000006
20
29.131776899736774
42
-0.99999999999999989
10
-11.700000000000003
20
29.131776899736774
0
LWPOLYLINE
5
185
100
AcDbEntity
8
0
100
AcDbPolyline
90
4
70
1
43
0.0
10
-16.508223100263226
20
33.939999999999991
10
-36.29177689973676
20
33.939999999999976
42
0.99999999999999989
10
-36.291776899736774
20
31.939999999999994
10
-16.508223100263219
20
31.939999999999991
42
0.99999999999999989
0
LWPOLYLINE
5
186
100
AcDbEntity
8
0
100
AcDbPolyline
90
4
70
1
43
0.0
10
-25.134127083675306
20
-4.4605053994309953
42
-0.99999999999999989
10
-23.402076276106428
20
-3.4605053994309953
10
-14.697923723893528
20
-18.536539856694045
42
-0.99999999999999989
10
-16.429974531462406
20
-19.536539856694041
0
LWPOLYLINE
5
187
100
AcDbEntity
8
0
100
AcDbPolyline
90
4
70
1
43
0.0
10
-3.9958474477884076
20
2.0000000000003175
10
-21.404152552214196
20
1.9999999999983822
42
0.99999999999999989
10
-21.404152552214182
20
1.9500996963949128e-12
10
-3.9958474477883894
20
3.1627478414009147e-13
42
0.99999999999999989
0
ARC
5
188
100
AcDbEntity
8
0
100
AcDbCircle
10
-9.8360508723215609
20
-19.036539856693977
30
0
40
1.0000000000000018
100
AcDbArc
50
150.00000000008865
51
330.00000000008868
0
LINE
5
189
100
AcDbEntity
8
0
100
AcDbLine
10
-10.702076276106773
20
-18.536539856695317
30
0
11
-1.9979237238955005
21
-3.460505399431324
31
0
0
ARC
5
190
100
AcDbEntity
8
0
100
AcDbCircle
10
-1.1318983201096036
20
-3.9605053994306139
30
0
40
0.99999999999999978
100
AcDbArc
50
-30.000000000070802
51
150.00000000007702
0
LINE
5
191
100
AcDbEntity
8
0
100
AcDbLine
10
-0.26587291632578269
20
-4.4605053994316837
30
0
11
-8.9700254685363472
21
-19.536539856692638
31
0
0
CIRCLE
5
192
100
AcDbEntity
8
0
100
AcDbCircle
10
-12.699999999999974
20
-23.997045256124721
30
0
40
1.0000000000000009
0
LINE
5
193
100
AcDbEntity
8
0
100
AcDbLine
10
-59.726126954120488
20
-99.067675625077243
30
0
11
-68.430279506335395
21
-83.991641167815359
31
0
0
ARC
5
194
100
AcDbEntity
8
0
100
AcDbCircle
10
-67.564254102551914
20
-83.491641167817278
30
0
40
0.99999999999998579
100
AcDbArc
50
30.00000000009425
51
209.99999999993219
0
LINE
5
195
100
AcDbEntity
8
0
100
AcDbLine
10
-66.698228698768304
20
-82.991641167815857
30
0
11
-57.994076146551848
21
-98.067675625076816
31
0
0
ARC
5
196
100
AcDbEntity
8
0
100
AcDbCircle
10
-58.860101550336111
20
-98.567675625077101
30
0
40
1.0000000000000167
100
AcDbArc
50
-149.99999999999122
51
30.000000000019114
0
LWPOLYLINE
5
197
100
AcDbEntity
8
0
100
AcDbPolyline
90
4
70
1
43
0.0
10
-64.700304974874683
20
-79.531135768385482
42
-0.99999999999999989
10
-64.700304974875166
20
-77.531135768385468
10
-47.291999870449366
20
-77.531135768381205
42
-0.99999999999999989
10
-47.29199987044889
20
-79.531135768381219
0
LINE
5
198
100
AcDbEntity
8
0
100
AcDbLine
10
-68.430279506338422
20
-73.070630368954326
30
0
11
-59.726126954127558
21
-57.994595911690112
31
0
0
ARC
5
199
100
AcDbEntity
8
0
100
AcDbCircle
10
-58.86010155034527
20
-58.494595911690254
30
0
40
1.0000000000000051
100
AcDbArc
50
-29.999999999903075
51
149.99999999993133
0
LINE
5
200
100
AcDbEntity
8
0
100
AcDbLine
10
-57.994076146559983
20
-58.994595911688791
30
0
11
-66.698228698769313
21
-74.070630368953914
31
0
0
ARC
5
201
100
AcDbEntity
8
0
100
AcDbCircle
10
-67.564254102553917
20
-73.570630368954198
30
0
40
0.9999999999999899
100
AcDbArc
50
150.00000000000824
51
330.00000000001887
0
LWPOLYLINE
5
202
100
AcDbEntity
8
0
100
AcDbPolyline
90
4
70
1
43
0.0
10
-53.998228698773261
20
-58.994595911689117
42
-0.99999999999999989
10
-52.26617789120462
20
-57.994595911688691
10
-43.562025338988029
20
-73.070630368949608
42
-0.99999999999999989
10
-45.294076146556669
20
-74.07063036895002
0
LWPOLYLINE
5
203
100
AcDbEntity
8
0
100
AcDbPolyline
90
4
70
1
43
0.0
10
-32.859949062885441
20
-52.53409051225465
10
-50.268254167311227
20
-52.534090512256981
42
0.99999999999999989
10
-50.268254167310751
20
-54.534090512256981
10
-32.859949062884965
20
-54.53409051225286
42
0.99999999999999989
0
LWPOLYLINE
5
204
100
AcDbEntity
8
0
100
AcDbPolyline
90
4
70
1
43
0.0
10
49.799999999999997
20
68.340000000000003
10
-75.200000000000003
20
68.340000000000003
10
-75.200000000000003
20
-111.66
10
49.799999999999997
20
-111.66
0
LWPOLYLINE
5
205
100
AcDbEntity
8
0
100
AcDbPolyline
90
8
70
1
43
0.0
10
-38.659690846657078
20
-76.282717973004438
10
-39.624106272565996
20
-73.953134490374623
42
-0.23311614066330555
10
-39.566177891201079
20
-73.070630368948713
10
-30.86202533896622
20
-57.99459591169834
42
-0.23311614065396088
10
-30.126718541606543
20
-57.503176401142085
10
-27.627032352451092
20
-57.173592918456151
42
-0.62190724300699896
10
-26.630288342274223
20
-58.665012429028131
10
-36.869711657733546
20
-76.400213851591062
42
-0.62190724300343714
0
LWPOLYLINE
5
206
100
AcDbEntity
8
0
100
AcDbPolyline
90
8
70
1
43
0.0
10
4.7267185416427022
20
-99.559095135600529
10
2.22703235246466
20
-99.888678618290513
42
-0.62190724301176425
10
1.2302883422741928
20
-98.397259107720288
10
11.469711657721833
20
-80.662057685150614
42
-0.62190724300436218
10
13.259690846670509
20
-80.779553563741217
10
14.224106272579412
20
-83.109137046371032
42
-0.2331161406632983
10
14.166177891214502
20
-83.991641167796899
10
5.4620253389796405
20
-99.067675625047286
42
-0.23311614064791533
0
LWPOLYLINE
5
207
100
AcDbEntity
8
0
100
AcDbPolyline
90
4
70
1
43
0.0
10
-50.268254167311227
20
-52.534090512256981
10
-32.859949062888305
20
-52.534090512254643
42
-0.99999999999999989
10
-32.859949062884965
20
-54.534090512251083
10
-50.268254167310943
20
-54.534090512256988
42
-0.99999999999999989
0
LWPOLYLINE
5
208
100
AcDbEntity
8
0
100
AcDbPolyline
90
4
70
1
43
0.0
10
-53.998228698773261
20
-58.994595911689117
42
-0.99999999999999989
10
-52.26617789120462
20
-57.994595911688691
10
-43.562025338988022
20
-73.070630368949594
42
-0.99999999999999989
10
-45.294076146556677
20
-74.070630368950034
0
LWPOLYLINE
5
209
100
AcDbEntity
8
0
100
AcDbPolyline
90
4
70
1
43
0.0
10
-68.430279506338422
20
-73.070630368954326
10
-59.726126954128993
20
-57.994595911692585
42
-0.99999999999999989
10
-57.994076146561532
20
-58.99459591168791
10
-66.698228698769398
20
-74.07063036895407
42
-0.99999999999999989
0
LWPOLYLINE
5
210
100
AcDbEntity
8
0
100
AcDbPolyline
90
4
70
1
43
0.0
10
-64.700304974874683
20
-79.531135768385482
42
-0.99999999999999989
10
-64.700304974875166
20
-77.531135768385468
10
-47.291999870449366
20
-77.531135768381191
42
-0.99999999999999989
10
-47.29199987044889
20
-79.531135768381219
0
LWPOLYLINE
5
211
100
AcDbEntity
8
0
100
AcDbPolyline
90
4
70
1
43
0.0
10
-59.726126954120488
20
-99.067675625077243
10
-68.430279506333974
20
-83.991641167817846
42
-0.99999999999999989
10
-66.698228698769853
20
-82.991641167816738
10
-57.994076146551741
20
-98.067675625076987
42
-0.99999999999999989
0
LWPOLYLINE
5
212
100
AcDbEntity
8
0
100
AcDbPolyline
90
8
70
1
43
0.0
10
-39.62410627257735
20
-83.109137046416805
10
-38.659690846670465
20
-80.779553563752771
42
-0.62190724300804445
10
-36.869711657725766
20
-80.662057685152831
10
-26.630288342278142
20
-98.397259107722519
42
-0.62190724300163813
10
-27.627032352435204
20
-99.888678618289816
10
-30.126718541587749
20
-99.559095135644426
42
-0.23311614065777619
10
-30.862025338983784
20
-99.067675625070649
10
-39.566177891199196
20
-83.991641167809064
42
-0.2331161406535574
0
LWPOLYLINE
5
213
100
AcDbEntity
8
0
100
AcDbPolyline
90
4
70
1
43
0.0
10
-52.266177891194715
20
-99.06767562507622
42
-0.99999999999999989
10
-53.998228698763846
20
-98.06767562507666
10
-45.294076146554652
20
-82.991641167811494
42
-0.99999999999999989
10
-43.562025338985499
20
-83.991641167811053
0
LWPOLYLINE
5
214
100
AcDbEntity
8
0
100
AcDbPolyline
90
4
70
1
43
0.0
10
-32.859949062875359
20
-104.52818102450279
10
-50.268254167298281
20
-104.52818102450513
42
-0.99999999999999989
10
-50.26825416730162
20
-102.52818102450868
10
-32.859949062875636
20
-102.52818102450279
42
-0.99999999999999989
0
CIRCLE
5
215
100
AcDbEntity
8
0
100
AcDbCircle
10
-41.564101615093293
20
-78.531135768379883
30
0
40
1.0000000000000009
0
LINE
5
216
100
AcDbEntity
8
0
100
AcDbLine
10
34.326126954140989
20
-99.0676756250555
30
0
11
43.030279506351846
21
-83.9916411677913
31
0
0
ARC
5
217
100
AcDbEntity
8
0
100
AcDbCircle
10
42.164254102567341
20
-83.491641167791414
30
0
40
0.99999999999999889
100
AcDbArc
50
-29.999999999992436
51
150.00000000001887
0
LINE
5
218
100
AcDbEntity
8
0
100
AcDbLine
10
41.298228698782737
20
-82.991641167791698
30
0
11
32.594076146574963
21
-98.067675625057703
31
0
0
ARC
5
219
100
AcDbEntity
8
0
100
AcDbCircle
10
33.460101550358694
20
-98.567675625055372
30
0
40
0.99999999999821565
100
AcDbArc
50
150.00000000009538
51
329.99999999993224
0
LWPOLYLINE
5
220
100
AcDbEntity
8
0
100
AcDbPolyline
90
4
70
1
43
0.0
10
39.300304974888085
20
-77.531135768360159
42
-0.99999999999999989
10
39.300304974888583
20
-79.531135768360159
10
21.891999870462797
20
-79.531135768364422
42
-0.99999999999999989
10
21.8919998704623
20
-77.531135768364422
0
LINE
5
221
100
AcDbEntity
8
0
100
AcDbLine
10
43.030279506348819
20
-73.070630368930267
30
0
11
34.326126954133898
21
-57.994595911668384
31
0
0
ARC
5
222
100
AcDbEntity
8
0
100
AcDbCircle
10
33.460101550349528
20
-58.494595911668512
30
0
40
1.0000000000000033
100
AcDbArc
50
30.000000000008313
51
210.00000000001904
0
LINE
5
223
100
AcDbEntity
8
0
100
AcDbLine
10
32.59407614656525
20
-58.994595911668803
30
0
11
41.298228698783262
21
-74.070630368928903
31
0
0
ARC
5
224
100
AcDbEntity
8
0
100
AcDbCircle
10
42.16425410256533
20
-73.570630368928335
30
0
40
0.9999999999982212
100
AcDbArc
50
-149.99999999990388
51
29.999999999931319
0
ARC
5
225
100
AcDbEntity
8
0
100
AcDbCircle
10
27.732203294992701
20
-58.494595911669187
30
0
40
1
100
AcDbArc
50
-29.999999999985512
51
150.00000000001424
0
LINE
5
226
100
AcDbEntity
8
0
100
AcDbLine
10
26.866177891208135
20
-57.9945959116694
30
0
11
18.162025338998923
21
-73.070630368934573
31
0
0
ARC
5
227
100
AcDbEntity
8
0
100
AcDbCircle
10
19.028050742783492
20
-73.570630368934374
30
0
40
1.0000000000000102
100
AcDbArc
50
150.00000000001361
51
330.00000000001489
0
LINE
5
228
100
AcDbEntity
8
0
100
AcDbLine
10
19.894076146568057
20
-74.070630368934147
30
0
11
28.598228698777262
21
-58.994595911668966
31
0
0
LWPOLYLINE
5
229
100
AcDbEntity
8
0
100
AcDbPolyline
90
4
70
1
43
0.0
10
7.459949062888775
20
-52.534090512242841
10
24.868254167311701
20
-52.534090512240503
42
-0.99999999999999989
10
24.86825416731504
20
-54.534090512236943
10
7.4599490628890557
20
-54.534090512242848
42
-0.99999999999999989
0
LWPOLYLINE
5
230
100
AcDbEntity
8
0
100
AcDbPolyline
90
4
70
1
43
0.0
10
24.868254167324647
20
-104.52818102448865
10
7.4599490629017229
20
-104.52818102449099
42
-0.99999999999999989
10
7.4599490628983833
20
-102.52818102449454
10
24.86825416732437
20
-102.52818102448865
42
-0.99999999999999989
0
ARC
5
231
100
AcDbEntity
8
0
100
AcDbCircle
10
19.028050742786341
20
-83.491641167795777
30
0
40
0.99999999999999978
100
AcDbArc
50
30.000000000095167
51
209.99999999992562
0
LINE
5
232
100
AcDbEntity
8
0
100
AcDbLine
10
18.16202533900125
20
-83.991641167794654
30
0
11
26.866177891216218
21
-99.067675625056509
31
0
0
ARC
5
233
100
AcDbEntity
8
0
100
AcDbCircle
10
27.732203295001987
20
-98.567675625057021
30
0
40
1.0000000000008997
100
AcDbArc
50
-150.00000000006355
51
30.000000000086182
0
LINE
5
234
100
AcDbEntity
8
0
100
AcDbLine
10
28.598228698785682
20
-98.067675625055713
30
0
11
19.894076146569944
21
-82.991641167794342
31
0
0
CIRCLE
5
235
100
AcDbEntity
8
0
100
AcDbCircle
10
16.164101615106713
20
-78.531135768365743
30
0
40
1.0000000000000009
0
LWPOLYLINE
5
236
100
AcDbEntity
8
0
100
AcDbPolyline
90
4
70
1
43
0.0
10
43.100000000000009
20
36.74822310026321
42
-0.99999999999999989
10
41.099999999999994
20
36.748223100263225
10
41.099999999999994
20
56.531776899736776
42
-0.99999999999999989
10
43.100000000000009
20
56.531776899736776
0
LWPOLYLINE
5
237
100
AcDbEntity
8
0
100
AcDbPolyline
90
4
70
1
43
0.0
10
18.508223100263244
20
61.339999999999989
10
38.291776899736774
20
61.339999999999989
42
-0.99999999999999989
10
38.291776899736789
20
59.339999999999989
10
18.508223100263244
20
59.339999999999975
42
-0.99999999999999989
0
LWPOLYLINE
5
238
100
AcDbEntity
8
0
100
AcDbPolyline
90
4
70
1
43
0.0
10
38.291776899736782
20
4.5400000000000009
10
18.508223100263233
20
4.5400000000000009
42
-0.99999999999999989
10
18.508223100263233
20
6.54
10
38.291776899736782
20
6.54
42
-0.99999999999999989
0
LWPOLYLINE
5
239
100
AcDbEntity
8
0
100
AcDbPolyline
90
4
70
1
43
0.0
10
43.100000000000009
20
9.3482231002632137
42
-0.99999999999999989
10
41.099999999999994
20
9.348223100263219
10
41.099999999999994
20
29.131776899736774
42
-0.99999999999999989
10
43.100000000000009
20
29.131776899736774
0
LWPOLYLINE
5
240
100
AcDbEntity
8
0
100
AcDbPolyline
90
4
70
1
43
0.0
10
18.508223100263244
20
33.939999999999976
10
38.291776899736774
20
33.939999999999991
42
-0.99999999999999989
10
38.291776899736789
20
31.939999999999994
10
18.508223100263244
20
31.939999999999976
42
-0.99999999999999989
0
LWPOLYLINE
5
241
100
AcDbEntity
8
0
100
AcDbPolyline
90
4
70
1
43
0.0
10
-66.5
20
56.531776899736776
10
-66.499999999999986
20
36.748223100263225
42
-0.99999999999999989
10
-68.499999999999972
20
36.748223100263225
10
-68.499999999999972
20
56.531776899736755
42
-0.99999999999999989
0
LWPOLYLINE
5
242
100
AcDbEntity
8
0
100
AcDbPolyline
90
4
70
1
43
0.0
10
-63.691776899736759
20
61.339999999999989
10
-43.908223100263235
20
61.339999999999989
42
-0.99999999999999989
10
-43.908223100263221
20
59.339999999999989
10
-63.691776899736759
20
59.339999999999975
42
-0.99999999999999989
0
LWPOLYLINE
5
243
100
AcDbEntity
8
0
100
AcDbPolyline
90
4
70
1
43
0.0
10
-43.908223100263228
20
4.5400000000000009
10
-63.691776899736766
20
4.5400000000000009
42
-0.99999999999999989
10
-63.691776899736766
20
6.54
10
-43.908223100263228
20
6.54
42
-0.99999999999999989
0
LWPOLYLINE
5
244
100
AcDbEntity
8
0
100
AcDbPolyline
90
4
70
1
43
0.0
10
-66.5
20
29.131776899736771
10
-66.499999999999986
20
9.3482231002632226
42
-0.99999999999999989
10
-68.499999999999972
20
9.348223100263219
10
-68.499999999999972
20
29.13177689973676
42
-0.99999999999999989
0
LWPOLYLINE
5
245
100
AcDbEntity
8
0
100
AcDbPolyline
90
4
70
1
43
0.0
10
-63.691776899736759
20
33.939999999999976
10
-43.908223100263235
20
33.939999999999991
42
-0.99999999999999989
10
-43.908223100263221
20
31.939999999999994
10
-63.691776899736759
20
31.939999999999976
42
-0.99999999999999989
0
LWPOLYLINE
5
246
100
AcDbEntity
8
0
100
AcDbPolyline
90
4
70
1
43
0.0
10
-32.859949062923505
20
-49.994090512247823
10
-50.268254167349475
20
-49.994090512249755
42
-0.99999999999999989
10
-50.268254167349312
20
-47.994090512249763
10
-32.859949062926383
20
-47.99409051225139
42
-0.99999999999999989
0
ARC
5
247
100
AcDbEntity
8
0
100
AcDbCircle
10
-53.132203295028468
20
-44.033585112818528
30
0
40
1.0000000000000027
100
AcDbArc
50
150.00000000000043
51
329.99999999999937
0
LINE
5
248
100
AcDbEntity
8
0
100
AcDbLine
10
-52.266177891244027
20
-44.533585112818542
30
0
11
-43.562025339031138
21
-29.457550655555487
31
0
0
ARC
5
249
100
AcDbEntity
8
0
100
AcDbCircle
10
-44.428050742815572
20
-28.957550655555483
30
0
40
0.99999999999999734
100
AcDbArc
50
-30.00000000000027
51
149.99999999999972
0
LINE
5
250
100
AcDbEntity
8
0
100
AcDbLine
10
-45.294076146600005
20
-28.45755065555548
30
0
11
-53.998228698812909
21
-43.533585112818535
31
0
0
LWPOLYLINE
5
251
100
AcDbEntity
8
0
100
AcDbPolyline
90
4
70
1
43
0.0
10
-59.726126954166958
20
-44.53358511281894
10
-68.430279506381609
20
-29.457550655556691
42
-0.99999999999999989
10
-66.698228698812656
20
-28.457550655556844
10
-57.994076146602616
20
-43.53358511281823
42
-0.99999999999999989
0
LWPOLYLINE
5
252
100
AcDbEntity
8
0
100
AcDbPolyline
90
4
70
1
43
0.0
10
-64.700304974919348
20
-24.99704525612481
42
-0.99999999999999989
10
-64.700304974919348
20
-22.997045256124807
10
-47.291999870493562
20
-22.997045256124803
42
-0.99999999999999989
10
-47.291999870493562
20
-24.997045256124807
0
LINE
5
253
100
AcDbEntity
8
0
100
AcDbLine
10
-59.726126954169949
20
-3.4605053994318249
30
0
11
-68.430279506381169
21
-18.536539856695843
31
0
0
ARC
5
254
100
AcDbEntity
8
0
100
AcDbCircle
10
-67.564254102597559
20
-19.0365398566937
30
0
40
0.99999999999821054
100
AcDbArc
50
150.00000000008257
51
329.99999999991832
0
LINE
5
255
100
AcDbEntity
8
0
100
AcDbLine
10
-66.698228698813836
20
-19.536539856694933
30
0
11
-57.99407614660106
21
-4.4605053994318116
31
0
0
ARC
5
256
100
AcDbEntity
8
0
100
AcDbCircle
10
-58.860101550385465
20
-3.9605053994317343
30
0
40
1.0000000000000038
100
AcDbArc
50
-30.000000000004746
51
150.0000000000058
0
ARC
5
257
100
AcDbEntity
8
0
100
AcDbCircle
10
-53.132203295028617
20
-3.9605053994309976
30
0
40
0.99999999999999922
100
AcDbArc
50
30.000000000000476
51
210.00000000000011
0
LINE
5
258
100
AcDbEntity
8
0
100
AcDbLine
10
-53.998228698813051
20
-4.4605053994309971
30
0
11
-45.294076146600162
21
-19.536539856694045
31
0
0
ARC
5
259
100
AcDbEntity
8
0
100
AcDbCircle
10
-44.428050742815721
20
-19.036539856694045
30
0
40
1.0000000000000038
100
AcDbArc
50
-150.00000000000009
51
29.999999999999929
0
LINE
5
260
100
AcDbEntity
8
0
100
AcDbLine
10
-43.56202533903128
20
-18.536539856694045
30
0
11
-52.266177891244183
21
-3.4605053994309909
31
0
0
LWPOLYLINE
5
261
100
AcDbEntity
8
0
100
AcDbPolyline
90
4
70
1
43
0.0
10
-50.268254167351941
20
1.9999999999983822
10
-32.859949062925963
20
2.0000000000003166
42
-0.99999999999999989
10
-32.859949062926141
20
3.1610194779190613e-13
10
-50.26825416734907
20
1.9495516312417749e-12
42
-0.99999999999999989
0
CIRCLE
5
262
100
AcDbEntity
8
0
100
AcDbCircle
10
-41.564101615137723
20
-23.997045256124721
30
0
40
1.0000000000000009
0
LWPOLYLINE
5
263
100
AcDbEntity
8
0
100
AcDbPolyline
90
4
70
1
43
0.0
10
34.326126954167023
20
-3.4605053994305091
10
43.030279506381667
20
-18.536539856692762
42
-0.99999999999999989
10
41.298228698812707
20
-19.53653985669261
10
32.594076146602674
20
-4.4605053994312165
42
-0.99999999999999989
0
LWPOLYLINE
5
264
100
AcDbEntity
8
0
100
AcDbPolyline
90
4
70
1
43
0.0
10
39.300304974919399
20
-22.99704525612464
42
-0.99999999999999989
10
39.300304974919406
20
-24.997045256124643
10
21.891999870493617
20
-24.997045256124636
42
-0.99999999999999989
10
21.891999870493617
20
-22.997045256124636
0
LWPOLYLINE
5
265
100
AcDbEntity
8
0
100
AcDbPolyline
90
4
70
1
43
0.0
10
43.03027950638122
20
-29.457550655553611
10
34.326126954169908
20
-44.533585112817789
42
-0.99999999999999989
10
32.594076146601111
20
-43.533585112817633
10
41.298228698814007
20
-28.457550655557881
42
-0.99999999999999989
0
LWPOLYLINE
5
266
100
AcDbEntity
8
0
100
AcDbPolyline
90
4
70
1
43
0.0
10
28.598228698813113
20
-43.533585112818436
42
-0.99999999999999989
10
26.866177891244234
20
-44.53358511281845
10
18.162025339031334
20
-29.457550655555398
42
-0.99999999999999989
10
19.894076146600217
20
-28.457550655555401
0
LWPOLYLINE
5
267
100
AcDbEntity
8
0
100
AcDbPolyline
90
4
70
1
43
0.0
10
24.868254167352003
20
-49.994090512247823
10
7.459949062926019
20
-49.994090512249755
42
-0.99999999999999989
10
7.4599490629261966
20
-47.994090512249763
10
24.868254167349125
20
-47.99409051225139
42
-0.99999999999999989
0
LWPOLYLINE
5
268
100
AcDbEntity
8
0
100
AcDbPolyline
90
4
70
1
43
0.0
10
7.4599490629235587
20
1.9999999999983822
10
24.868254167349541
20
2.0000000000003166
42
-0.99999999999999989
10
24.868254167349363
20
3.1610194779190613e-13
10
7.4599490629264364
20
1.9495516312417749e-12
42
-0.99999999999999989
0
ARC
5
269
100
AcDbEntity
8
0
100
AcDbCircle
10
19.028050742816195
20
-19.036539856693974
30
0
40
1.0000000000000018
100
AcDbArc
50
150.00000000008873
51
329.9999999999178
0
LINE
5
270
100
AcDbEntity
8
0
100
AcDbLine
10
19.894076146599918
20
-19.536539856695217
30
0
11
28.598228698812758
21
-4.4605053994321375
31
0
0
ARC
5
271
100
AcDbEntity
8
0
100
AcDbCircle
10
27.73220329502815
20
-3.9605053994306139
30
0
40
1.0000000000009077
100
AcDbArc
50
-30.000000000070752
51
150.00000000007694
0
LINE
5
272
100
AcDbEntity
8
0
100
AcDbLine
10
26.866177891243041
20
-3.4605053994317774
30
0
11
18.162025339030979
21
-18.536539856695313
31
0
0
CIRCLE
5
273
100
AcDbEntity
8
0
100
AcDbCircle
10
16.164101615137781
20
-23.997045256124721
30
0
40
1.0000000000000009
0
LWPOLYLINE
5
274
100
AcDbEntity
8
0
100
AcDbPolyline
90
4
70
1
43
0.0
10
15.700000000000001
20
36.74822310026321
42
-0.99999999999999989
10
13.699999999999999
20
36.748223100263225
10
13.699999999999996
20
56.531776899736776
42
-0.99999999999999989
10
15.699999999999999
20
56.531776899736776
0
LWPOLYLINE
5
275
100
AcDbEntity
8
0
100
AcDbPolyline
90
4
70
1
43
0.0
10
-8.8917768997367563
20
61.339999999999989
10
10.891776899736778
20
61.339999999999989
42
-0.99999999999999989
10
10.891776899736783
20
59.339999999999989
10
-8.8917768997367563
20
59.339999999999975
42
-0.99999999999999989
0
LWPOLYLINE
5
276
100
AcDbEntity
8
0
100
AcDbPolyline
90
4
70
1
43
0.0
10
10.891776899736779
20
4.5400000000000009
10
-8.8917768997367688
20
4.5400000000000009
42
-0.99999999999999989
10
-8.8917768997367688
20
6.54
10
10.891776899736779
20
6.54
42
-0.99999999999999989
0
LWPOLYLINE
5
277
100
AcDbEntity
8
0
100
AcDbPolyline
90
4
70
1
43
0.0
10
15.700000000000001
20
9.3482231002632137
42
-0.99999999999999989
10
13.699999999999999
20
9.348223100263219
10
13.699999999999996
20
29.131776899736774
42
-0.99999999999999989
10
15.699999999999999
20
29.131776899736774
0
LWPOLYLINE
5
278
100
AcDbEntity
8
0
100
AcDbPolyline
90
4
70
1
43
0.0
10
-8.8917768997367563
20
33.939999999999976
10
10.891776899736778
20
33.939999999999991
42
-0.99999999999999989
10
10.891776899736783
20
31.939999999999994
10
-8.8917768997367563
20
31.939999999999976
42
-0.99999999999999989
0
LWPOLYLINE
5
279
100
AcDbEntity
8
0
100
AcDbPolyline
90
4
70
1
43
0.0
10
-39.099999999999994
20
56.531776899736776
10
-39.09999999999998
20
36.748223100263225
42
-0.99999999999999989
10
-41.09999999999998
20
36.748223100263225
10
-41.09999999999998
20
56.531776899736755
42
-0.99999999999999989
0
LWPOLYLINE
5
280
100
AcDbEntity
8
0
100
AcDbPolyline
90
4
70
1
43
0.0
10
-11.700000000000001
20
36.74822310026321
42
-0.99999999999999989
10
-13.700000000000003
20
36.748223100263225
10
-13.700000000000006
20
56.531776899736776
42
-0.99999999999999989
10
-11.700000000000003
20
56.531776899736776
0
LWPOLYLINE
5
281
100
AcDbEntity
8
0
100
AcDbPolyline
90
4
70
1
43
0.0
10
-36.29177689973676
20
61.339999999999989
10
-16.508223100263223
20
61.339999999999989
42
-0.99999999999999989
10
-16.508223100263219
20
59.339999999999989
10
-36.29177689973676
20
59.339999999999975
42
-0.99999999999999989
0
LWPOLYLINE
5
282
100
AcDbEntity
8
0
100
AcDbPolyline
90
4
70
1
43
0.0
10
5.4620253390292719
20
-3.4605053994305091
10
14.166177891243926
20
-18.536539856692762
42
-0.99999999999999989
10
12.434127083674959
20
-19.53653985669261
10
3.7299745314649222
20
-4.4605053994312165
42
-0.99999999999999989
0
LWPOLYLINE
5
283
100
AcDbEntity
8
0
100
AcDbPolyline
90
4
70
1
43
0.0
10
10.436203359781651
20
-22.99704525612464
42
-0.99999999999999989
10
10.436203359781654
20
-24.997045256124643
10
-6.9721017446441413
20
-24.997045256124636
42
-0.99999999999999989
10
-6.9721017446441351
20
-22.997045256124636
0
LINE
5
284
100
AcDbEntity
8
0
100
AcDbLine
10
5.4620253390322429
20
-44.533585112817626
30
0
11
14.166177891243468
21
-29.457550655553611
31
0
0
ARC
5
285
100
AcDbEntity
8
0
100
AcDbCircle
10
13.300152487459854
20
-28.957550655555746
30
0
40
0.99999999999821776
100
AcDbArc
50
-29.99999999991773
51
149.99999999991846
0
LINE
5
286
100
AcDbEntity
8
0
100
AcDbLine
10
12.434127083676128
20
-28.457550655554513
30
0
11
3.7299745314633559
21
-43.533585112817633
31
0
0
ARC
5
287
100
AcDbEntity
8
0
100
AcDbCircle
10
4.5959999352477503
20
-44.033585112817718
30
0
40
1.0000000000000009
100
AcDbArc
50
149.99999999999451
51
330.00000000000614
0
ARC
5
288
100
AcDbEntity
8
0
100
AcDbCircle
10
-1.1318983201090793
20
-44.033585112818443
30
0
40
1.0000000000000013
100
AcDbArc
50
-149.9999999999996
51
30.000000000000345
0
LINE
5
289
100
AcDbEntity
8
0
100
AcDbLine
10
-0.26587291632464066
20
-43.533585112818436
30
0
11
-8.9700254685375373
21
-28.457550655555401
31
0
0
ARC
5
290
100
AcDbEntity
8
0
100
AcDbCircle
10
-9.8360508723219766
20
-28.957550655555401
30
0
40
1.0000000000000007
100
AcDbArc
50
29.999999999999964
51
209.99999999999974
0
LINE
5
291
100
AcDbEntity
8
0
100
AcDbLine
10
-10.702076276106418
20
-29.457550655555398
30
0
11
-1.9979237238935155
21
-44.53358511281845
31
0
0
LWPOLYLINE
5
292
100
AcDbEntity
8
0
100
AcDbPolyline
90
4
70
1
43
0.0
10
-3.995847447785752
20
-49.994090512247823
10
-21.404152552211734
20
-49.994090512249755
42
-0.99999999999999989
10
-21.404152552211556
20
-47.994090512249763
10
-3.9958474477886297
20
-47.99409051225139
42
-0.99999999999999989
0
LWPOLYLINE
5
293
100
AcDbEntity
8
0
100
AcDbPolyline
90
4
70
1
43
0.0
10
-23.402076276106271
20
-44.533585112818528
42
-0.99999999999999989
10
-25.134127083675153
20
-43.533585112818535
10
-16.429974531462253
20
-28.45755065555548
42
-0.99999999999999989
10
-14.697923723893375
20
-29.457550655555487
0
LINE
5
294
100
AcDbEntity
8
0
100
AcDbLine
10
-39.566177891243768
20
-29.457550655556858
30
0
11
-30.862025339029202
21
-44.53358511281894
31
0
0
ARC
5
295
100
AcDbEntity
8
0
100
AcDbCircle
10
-29.995999935247028
20
-44.033585112818585
30
0
40
0.99999999999821509
100
AcDbArc
50
-149.99999999991752
51
29.999999999918671
0
LINE
5
296
100
AcDbEntity
8
0
100
AcDbLine
10
-29.12997453146188
20
-43.533585112819814
30
0
11
-37.8341270836749
21
-28.457550655556844
31
0
0
ARC
5
297
100
AcDbEntity
8
0
100
AcDbCircle
10
-38.700152487459377
20
-28.957550655556766
30
0
40
0.99999999999999967
100
AcDbArc
50
29.99999999999503
51
210.00000000000591
0
LWPOLYLINE
5
298
100
AcDbEntity
8
0
100
AcDbPolyline
90
4
70
1
43
0.0
10
-35.836203359781599
20
-24.99704525612481
42
-0.99999999999999989
10
-35.836203359781599
20
-22.997045256124807
10
-18.42789825535581
20
-22.997045256124803
42
-0.99999999999999989
10
-18.42789825535581
20
-24.997045256124807
0
LWPOLYLINE
5
299
100
AcDbEntity
8
0
100
AcDbPolyline
90
4
70
1
43
0.0
10
-39.566177891243413
20
-18.536539856695843
10
-30.862025339032108
20
-3.460505399431657
42
-0.99999999999999989
10
-29.129974531463311
20
-4.4605053994318116
10
-37.834127083676201
20
-19.536539856691562
42
-0.99999999999999989
0
LWPOLYLINE
5
300
100
AcDbEntity
8
0
100
AcDbPolyline
90
4
70
1
43
0.0
10
-2.46057668454847
20
-56.534090512249477
10
-22.939423315451542
20
-56.53409051224947
42
-0.99999999999999989
10
-22.939423315451542
20
-54.534090512249477
10
-2.4605766845484722
20
-54.534090512249485
42
-0.99999999999999989
0
LWPOLYLINE
5
301
100
AcDbEntity
8
0
100
AcDbPolyline
90
4
70
1
43
0.0
10
-22.939423315451563
20
-102.52818102449891
42
-0.99999999999999989
10
-22.939423315451553
20
-100.52818102449891
10
-2.460576684544896
20
-100.52818102449896
42
-1.0000000849496924
10
-2.460576854451455
20
-102.52818102449893
0
LWPOLYLINE
5
302
100
AcDbEntity
8
0
100
AcDbPolyline
90
8
70
1
43
0.0
10
14.22410627259088
20
-73.95313449032858
10
13.259690846673378
20
-76.282717972988507
42
-0.6219072430107313
10
11.469711657725751
20
-76.400213851595566
10
1.2302883422742374
20
-58.665012429028138
42
-0.62190724300614353
10
2.2270323524486328
20
-57.173592918455796
10
4.7267185416010253
20
-57.503176401102436
42
-0.23311614065732963
10
5.4620253389953817
20
-57.994595911674551
10
14.166177891211971
20
-73.070630368935454
42
-0.23311614065396405
0
LWPOLYLINE
5
303
100
AcDbEntity
8
0
100
AcDbPolyline
90
4
70
1
43
0.0
10
-16.508223100263223
20
4.5400000000000009
10
-36.291776899736774
20
4.5400000000000009
42
-0.99999999999999989
10
-36.291776899736774
20
6.54
10
-16.508223100263223
20
6.54
42
-0.99999999999999989
0
LWPOLYLINE
5
304
100
AcDbEntity
8
0
100
AcDbPolyline
90
4
70
1
43
0.0
10
-39.099999999999994
20
29.131776899736771
10
-39.09999999999998
20
9.3482231002632226
42
-0.99999999999999989
10
-41.09999999999998
20
9.348223100263219
10
-41.09999999999998
20
29.13177689973676
42
-0.99999999999999989
0
LWPOLYLINE
5
305
100
AcDbEntity
8
0
100
AcDbPolyline
90
4
70
1
43
0.0
10
-11.700000000000001
20
9.3482231002632137
42
-0.99999999999999989
10
-13.700000000000003
20
9.348223100263219
10
-13.700000000000006
20
29.131776899736774
42
-0.99999999999999989
10
-11.700000000000003
20
29.131776899736774
0
LWPOLYLINE
5
306
100
AcDbEntity
8
0
100
AcDbPolyline
90
4
70
1
43
0.0
10
-36.29177689973676
20
33.939999999999976
10
-16.508223100263223
20
33.939999999999991
42
-0.99999999999999989
10
-16.508223100263219
20
31.939999999999994
10
-36.29177689973676
20
31.939999999999976
42
-0.99999999999999989
0
LWPOLYLINE
5
307
100
AcDbEntity
8
0
100
AcDbPolyline
90
4
70
1
43
0.0
10
-25.134127083675306
20
-4.4605053994309989
42
-0.99999999999999989
10
-23.402076276106428
20
-3.4605053994309953
10
-14.697923723893528
20
-18.536539856694041
42
-0.99999999999999989
10
-16.429974531462406
20
-19.536539856694045
0
LWPOLYLINE
5
308
100
AcDbEntity
8
0
100
AcDbPolyline
90
4
70
1
43
0.0
10
-21.404152552214196
20
1.9999999999983822
10
-3.9958474477882131
20
2.0000000000003166
42
-0.99999999999999989
10
-3.9958474477883899
20
3.1610194779190613e-13
10
-21.404152552211318
20
1.9495516312417749e-12
42
-0.99999999999999989
0
ARC
5
309
100
AcDbEntity
8
0
100
AcDbCircle
10
-9.8360508723215609
20
-19.036539856693974
30
0
40
1.0000000000000018
100
AcDbArc
50
150.00000000008865
51
329.99999999991792
0
LINE
5
310
100
AcDbEntity
8
0
100
AcDbLine
10
-8.9700254685378358
20
-19.536539856695217
30
0
11
-0.26587291632499621
21
-4.4605053994321375
31
0
0
ARC
5
311
100
AcDbEntity
8
0
100
AcDbCircle
10
-1.1318983201096038
20
-3.9605053994306139
30
0
40
1.0000000000009082
100
AcDbArc
50
-30.000000000070752
51
150.00000000007697
0
LINE
5
312
100
AcDbEntity
8
0
100
AcDbLine
10
-1.9979237238947143
20
-3.4605053994317769
30
0
11
-10.702076276106773
21
-18.536539856695313
31
0
0
CIRCLE
5
313
100
AcDbEntity
8
0
100
AcDbCircle
10
-12.699999999999974
20
-23.997045256124721
30
0
40
1.0000000000000009
0
ENDSEC
0
SECTION
2
OBJECTS
0
DICTIONARY
5
C
100
AcDbDictionary
3
ACAD_GROUP
350
D
3
ACAD_MLINESTYLE
350
17
0
DICTIONARY
5
D
100
AcDbDictionary
0
DICTIONARY
5
1A
330
C
100
AcDbDictionary
0
DICTIONARY
5
17
100
AcDbDictionary
0
ENDSEC
0
EOF
