0
SECTION
2
HEADER
9
$INSUNITS
70
4
9
$ACADVER
1
AC1014
9
$HANDSEED
5
FFFF
0
ENDSEC
0
SECTION
2
TABLES
0
TABLE
2
VPORT
5
8
100
AcDbSymbolTable
0
ENDTAB
0
TABLE
2
LTYPE
5
5
100
AcDbSymbolTable
0
LTYPE
5
14
100
AcDbSymbolTableRecord
100
AcDbLinetypeTableRecord
2
BYBLOCK
70
0
0
LTYPE
5
15
100
AcDbSymbolTableRecord
100
AcDbLinetypeTableRecord
2
BYLAYER
70
0
0
ENDTAB
0
TABLE
2
LAYER
5
2
100
AcDbSymbolTable
70
2
0
LAYER
5
50
100
AcDbSymbolTableRecord
100
AcDbLayerTableRecord
2
0
70
0
6
CONTINUOUS
0
ENDTAB
0
TABLE
2
STYLE
5
3
100
AcDbSymbolTable
70
1
0
STYLE
5
11
100
AcDbSymbolTableRecord
100
AcDbTextStyleTableRecord
2
STANDARD
70
0
0
ENDTAB
0
TABLE
2
VIEW
5
6
100
AcDbSymbolTable
70
0
0
ENDTAB
0
TABLE
2
UCS
5
7
100
AcDbSymbolTable
70
0
0
ENDTAB
0
TABLE
2
APPID
5
9
100
AcDbSymbolTable
70
2
0
APPID
5
12
100
AcDbSymbolTableRecord
100
AcDbRegAppTableRecord
2
ACAD
70
0
0
ENDTAB
0
TABLE
2
DIMSTYLE
5
A
100
AcDbSymbolTable
70
1
0
ENDTAB
0
TABLE
2
BLOCK_RECORD
5
1
100
AcDbSymbolTable
70
1
0
BLOCK_RECORD
5
1F
100
AcDbSymbolTableRecord
100
AcDbBlockTableRecord
2
*MODEL_SPACE
0
BLOCK_RECORD
5
1B
100
AcDbSymbolTableRecord
100
AcDbBlockTableRecord
2
*PAPER_SPACE
0
ENDTAB
0
ENDSEC
0
SECTION
2
BLOCKS
0
BLOCK
5
20
100
AcDbEntity
100
AcDbBlockBegin
2
*MODEL_SPACE
0
ENDBLK
5
21
100
AcDbEntity
100
AcDbBlockEnd
0
BLOCK
5
1C
100
AcDbEntity
100
AcDbBlockBegin
2
*PAPER_SPACE
0
ENDBLK
5
1D
100
AcDbEntity
100
AcDbBlockEnd
0
ENDSEC
0
SECTION
2
ENTITIES
0
CIRCLE
5
100
100
AcDbEntity
8
0
100
AcDbCircle
10
12.693939500440239
20
-17.001568740360479
30
0
40
0.80000000000000071
0
CIRCLE
5
101
100
AcDbEntity
8
0
100
AcDbCircle
10
21.06897590290945
20
-2.5075159897569255
30
0
40
0.80000000000000071
0
CIRCLE
5
102
100
AcDbEntity
8
0
100
AcDbCircle
10
4.3292413953573945
20
-2.5015472997084736
30
0
40
0.80000000000000016
0
ARC
5
103
100
AcDbEntity
8
0
100
AcDbCircle
10
12.693939500440239
20
-17.001568740360479
30
0
40
2.5000025858608863
100
AcDbArc
50
316.37308060954473
51
328.17909931436731
0
ARC
5
104
100
AcDbEntity
8
0
100
AcDbCircle
10
15.069415010178972
20
-17.887429866166556
30
0
40
0.50000000000000089
100
AcDbArc
50
59.979570507047022
51
239.83813614982347
0
LINE
5
105
100
AcDbEntity
8
0
100
AcDbLine
10
15.319569390122524
20
-17.454506332277422
30
0
11
16.224837246693202
21
-15.887826749993829
31
0
0
ARC
5
106
100
AcDbEntity
8
0
100
AcDbCircle
10
16.504509843525859
20
-15.403818239137998
30
0
40
0.55900000000000039
100
AcDbArc
50
59.97957050016597
51
239.9795705004457
0
LINE
5
107
100
AcDbEntity
8
0
100
AcDbLine
10
16.78418244036088
20
-14.919809728283532
30
0
11
21.307974248176372
21
-7.0908205419730264
31
0
0
ARC
5
108
100
AcDbEntity
8
0
100
AcDbCircle
10
21.587646845009125
20
-6.6068120311172507
30
0
40
0.55899999999999805
100
AcDbArc
50
59.97957050017672
51
239.97957050043431
0
LINE
5
109
100
AcDbEntity
8
0
100
AcDbLine
10
21.867319441844053
20
-6.1228035202627353
30
0
11
22.772587298409043
21
-4.5561239379889802
31
0
0
ARC
5
110
100
AcDbEntity
8
0
100
AcDbCircle
10
23.02274167845475
20
-4.1232004041588741
30
0
40
0.49999999999999745
100
AcDbArc
50
60.121010104385043
51
239.97957049352721
0
ARC
5
111
100
AcDbEntity
8
0
100
AcDbCircle
10
21.06897590290945
20
-2.5075159897569255
30
0
40
2.5000034334990051
100
AcDbArc
50
331.7800747423081
51
343.58608778754848
0
ARC
5
112
100
AcDbEntity
8
0
100
AcDbCircle
10
23.559709409881631
20
-2.7226056482704761
30
0
40
0.49999999999999684
100
AcDbArc
50
90.803570992401177
51
259.32525504477945
0
ARC
5
113
100
AcDbEntity
8
0
100
AcDbCircle
10
21.06897590290945
20
-2.5075159897569255
30
0
40
2.5000034334990047
100
AcDbArc
50
6.5427382496317792
51
18.501245249158188
0
ARC
5
114
100
AcDbEntity
8
0
100
AcDbCircle
10
23.234487895414446
20
-1.258286363583937
30
0
40
0.49999999999999711
100
AcDbArc
50
125.71872590307768
51
294.24041516361041
0
ARC
5
115
100
AcDbEntity
8
0
100
AcDbCircle
10
21.06897590290945
20
-2.5075159897569255
30
0
40
2.5000034334990051
100
AcDbArc
50
41.457895817529995
51
53.416402817626199
0
ARC
5
116
100
AcDbEntity
8
0
100
AcDbCircle
10
22.129684204792916
20
-0.24368850916590301
30
0
40
0.49999999999999734
100
AcDbArc
50
160.63388601385887
51
329.1555700838357
0
ARC
5
117
100
AcDbEntity
8
0
100
AcDbCircle
10
21.06897590290945
20
-2.5075159897569255
30
0
40
2.5000034334990069
100
AcDbArc
50
76.37305328006866
51
88.179066253940718
0
ARC
5
118
100
AcDbEntity
8
0
100
AcDbCircle
10
20.648417856083231
20
-0.0073624422457654881
30
0
40
0.50000000000000244
100
AcDbArc
50
179.97957050567473
51
359.8381309090758
0
LINE
5
119
100
AcDbEntity
8
0
100
AcDbLine
10
20.148417887867332
20
-0.0071841612791475164
30
0
11
18.338999964523811
21
-0.0065389915052607595
31
0
0
ARC
5
120
100
AcDbEntity
8
0
100
AcDbCircle
10
17.780000000058461
20
-0.006339673330551486
30
0
40
0.55899999999999861
100
AcDbArc
50
179.97957049980531
51
359.97957050012639
0
LINE
5
121
100
AcDbEntity
8
0
100
AcDbLine
10
17.221000035593111
20
-0.0061403551526263579
30
0
11
8.1789999645018892
21
-0.0029163210220434547
31
0
0
ARC
5
122
100
AcDbEntity
8
0
100
AcDbCircle
10
7.6200000000365362
20
-0.002717002851253536
30
0
40
0.55899999999999883
100
AcDbArc
50
179.97957049939501
51
359.97957050053679
0
LINE
5
123
100
AcDbEntity
8
0
100
AcDbLine
10
7.0610000355711877
20
-0.0025176846694088956
30
0
11
5.2515821122375828
21
-0.0018725148955258935
31
0
0
ARC
5
124
100
AcDbEntity
8
0
100
AcDbCircle
10
4.7515821440217021
20
-0.0016942338851288694
30
0
40
0.50000000000000067
100
AcDbArc
50
180.12101046988471
51
359.97957050064383
0
ARC
5
125
100
AcDbEntity
8
0
100
AcDbCircle
10
4.3292413953573945
20
-2.5015472997084736
30
0
40
2.5000034976813801
100
AcDbArc
50
91.780077240076707
51
103.58608978700714
0
ARC
5
126
100
AcDbEntity
8
0
100
AcDbCircle
10
3.2701476421659237
20
-0.23696391410773812
30
0
40
0.49999999999999989
100
AcDbArc
50
-149.19642295128165
51
19.325252208521611
0
ARC
5
127
100
AcDbEntity
8
0
100
AcDbCircle
10
4.3292413953573945
20
-2.5015472997084736
30
0
40
2.5000034976813805
100
AcDbArc
50
126.54273947023283
51
138.50124562371073
0
ARC
5
128
100
AcDbEntity
8
0
100
AcDbCircle
10
2.1646206983682212
20
-1.2507736484950529
30
0
40
0.49999999999999983
100
AcDbArc
50
-114.2812671142341
51
54.240408044866754
0
ARC
5
129
100
AcDbEntity
8
0
100
AcDbCircle
10
4.3292413953573945
20
-2.5015472997084736
30
0
40
2.5000034976813805
100
AcDbArc
50
161.45789530692204
51
173.41640146019262
0
ARC
5
130
100
AcDbEntity
8
0
100
AcDbCircle
10
1.8383550253491434
20
-2.7148606375727491
30
0
40
0.49999999999999978
100
AcDbArc
50
-79.366111277751443
51
89.155563881347774
0
ARC
5
131
100
AcDbEntity
8
0
100
AcDbCircle
10
4.3292413953573945
20
-2.5015472997084736
30
0
40
2.5000034976813801
100
AcDbArc
50
196.37305114340384
51
208.1790637626344
0
ARC
5
132
100
AcDbEntity
8
0
100
AcDbCircle
10
2.3743238224903442
20
-4.1158379619139662
30
0
40
0.49999999999999961
100
AcDbArc
50
-60.020429500775712
51
119.83813053054381
0
LINE
5
133
100
AcDbEntity
8
0
100
AcDbLine
10
2.6241694107035594
20
-4.5489397767917064
30
0
11
3.5283198002138008
21
-6.1162645288851047
31
0
0
ARC
5
134
100
AcDbEntity
8
0
100
AcDbCircle
10
3.8076471678399577
20
-6.6004723579162397
30
0
40
0.55899999999999994
100
AcDbArc
50
-60.020429499779965
51
119.97956964644641
0
LINE
5
135
100
AcDbEntity
8
0
100
AcDbLine
10
4.0869745354707474
20
-7.0846801869446985
30
0
11
8.6051821528069148
21
-14.916893407119076
31
0
0
ARC
5
136
100
AcDbEntity
8
0
100
AcDbCircle
10
8.8845095204356799
20
-15.401101236148701
30
0
40
0.55899999999999905
100
AcDbArc
50
-60.02042950008871
51
119.97957049998057
0
LINE
5
137
100
AcDbEntity
8
0
100
AcDbLine
10
9.1638368880638605
20
-15.885309065178665
30
0
11
10.067987277764699
21
-17.452633817602461
31
0
0
ARC
5
138
100
AcDbEntity
8
0
100
AcDbCircle
10
10.317832866119881
20
-17.885735632398305
30
0
40
0.49999999999999961
100
AcDbArc
50
-59.878995166231014
51
119.97957051800529
0
ARC
5
139
100
AcDbEntity
8
0
100
AcDbCircle
10
12.693939500440239
20
-17.001568740360479
30
0
40
2.5000025858608845
100
AcDbArc
50
211.78004169091139
51
223.58606032476976
0
ARC
5
140
100
AcDbEntity
8
0
100
AcDbCircle
10
11.262299636867304
20
-19.051060704937232
30
0
40
0.50000000000000067
100
AcDbArc
50
-29.196510624443448
51
139.32529204621946
0
ARC
5
141
100
AcDbEntity
8
0
100
AcDbCircle
10
12.693939500440239
20
-17.001568740360479
30
0
40
2.500002585860889
100
AcDbArc
50
246.54272109700668
51
258.50123932565185
0
ARC
5
142
100
AcDbEntity
8
0
100
AcDbCircle
10
12.693048093353671
20
-19.501570255620063
30
0
40
0.49999999999999911
100
AcDbArc
50
5.7186320915367528
51
174.240508843849
0
ARC
5
143
100
AcDbEntity
8
0
100
AcDbCircle
10
12.693939500440239
20
-17.001568740360479
30
0
40
2.5000025858608859
100
AcDbArc
50
281.45790160973382
51
293.41641983774025
0
ARC
5
144
100
AcDbEntity
8
0
100
AcDbCircle
10
14.1241174557506
20
-19.052081122290762
30
0
40
0.50000000000000389
100
AcDbArc
50
40.633848898905157
51
209.15565154837961
0
CIRCLE
5
145
100
AcDbEntity
8
0
100
AcDbCircle
10
12.693939500440239
20
-17.001568740360479
30
0
40
0.80000000000000071
0
CIRCLE
5
146
100
AcDbEntity
8
0
100
AcDbCircle
10
21.06897590290945
20
-2.5075159897569255
30
0
40
0.80000000000000071
0
CIRCLE
5
147
100
AcDbEntity
8
0
100
AcDbCircle
10
4.3292413953573945
20
-2.5015472997084736
30
0
40
0.80000000000000016
0
ARC
5
148
100
AcDbEntity
8
0
100
AcDbCircle
10
12.693939500440239
20
-17.001568740360479
30
0
40
2.5000025858608863
100
AcDbArc
50
316.37308060954473
51
328.17909931436731
0
ARC
5
149
100
AcDbEntity
8
0
100
AcDbCircle
10
14.1241174557506
20
-19.052081122290758
30
0
40
0.50000000000000244
100
AcDbArc
50
40.633848898904844
51
209.15565154837998
0
ARC
5
150
100
AcDbEntity
8
0
100
AcDbCircle
10
12.693939500440239
20
-17.001568740360479
30
0
40
2.5000025858608863
100
AcDbArc
50
281.45790160973382
51
293.41641983774025
0
ARC
5
151
100
AcDbEntity
8
0
100
AcDbCircle
10
12.693048093353671
20
-19.501570255620063
30
0
40
0.50000000000000133
100
AcDbArc
50
5.7186320915367528
51
174.240508843849
0
ARC
5
152
100
AcDbEntity
8
0
100
AcDbCircle
10
12.693939500440239
20
-17.001568740360479
30
0
40
2.5000025858608872
100
AcDbArc
50
246.54272109700676
51
258.50123932565185
0
ARC
5
153
100
AcDbEntity
8
0
100
AcDbCircle
10
11.262299636867306
20
-19.051060704937232
30
0
40
0.50000000000000266
100
AcDbArc
50
-29.196510624443349
51
139.32529204621946
0
ARC
5
154
100
AcDbEntity
8
0
100
AcDbCircle
10
12.693939500440239
20
-17.001568740360479
30
0
40
2.5000025858608863
100
AcDbArc
50
211.78004169091136
51
223.58606032476979
0
ARC
5
155
100
AcDbEntity
8
0
100
AcDbCircle
10
10.317832866119879
20
-17.885735632398305
30
0
40
0.49999999999999961
100
AcDbArc
50
-59.878995166231014
51
119.97957051800529
0
LINE
5
156
100
AcDbEntity
8
0
100
AcDbLine
10
10.067987277764697
20
-17.452633817602461
30
0
11
9.1638368880638605
21
-15.885309065178665
31
0
0
ARC
5
157
100
AcDbEntity
8
0
100
AcDbCircle
10
8.8845095204356799
20
-15.401101236148701
30
0
40
0.55899999999999905
100
AcDbArc
50
-60.02042950008871
51
119.97957049998057
0
LINE
5
158
100
AcDbEntity
8
0
100
AcDbLine
10
8.6051821528069148
20
-14.916893407119076
30
0
11
4.0869745354707465
21
-7.0846801869446985
31
0
0
ARC
5
159
100
AcDbEntity
8
0
100
AcDbCircle
10
3.8076471678399577
20
-6.6004723579162397
30
0
40
0.55899999999999939
100
AcDbArc
50
-60.020429499780022
51
119.97957049967171
0
LINE
5
160
100
AcDbEntity
8
0
100
AcDbLine
10
3.5283198002138021
20
-6.1162645288851074
30
0
11
2.6241694107035594
21
-4.5489397767917055
31
0
0
ARC
5
161
100
AcDbEntity
8
0
100
AcDbCircle
10
2.3743238224903442
20
-4.1158379619139653
30
0
40
0.49999999999999922
100
AcDbArc
50
-60.020429500775712
51
119.83813053054382
0
ARC
5
162
100
AcDbEntity
8
0
100
AcDbCircle
10
4.3292413953573945
20
-2.5015472997084736
30
0
40
2.5000034976813805
100
AcDbArc
50
196.37305114340384
51
208.17906376263443
0
ARC
5
163
100
AcDbEntity
8
0
100
AcDbCircle
10
1.8383550253491432
20
-2.7148606375727491
30
0
40
0.49999999999999978
100
AcDbArc
50
-79.366111277751443
51
89.15556388134776
0
ARC
5
164
100
AcDbEntity
8
0
100
AcDbCircle
10
4.3292413953573945
20
-2.5015472997084736
30
0
40
2.5000034976813805
100
AcDbArc
50
161.45789530692204
51
173.41640146019262
0
ARC
5
165
100
AcDbEntity
8
0
100
AcDbCircle
10
2.1646206983682212
20
-1.2507736484950529
30
0
40
0.50000000000000044
100
AcDbArc
50
-114.28126711423404
51
54.240408044866797
0
ARC
5
166
100
AcDbEntity
8
0
100
AcDbCircle
10
4.3292413953573945
20
-2.5015472997084736
30
0
40
2.5000034976813801
100
AcDbArc
50
126.54273947023286
51
138.50124562371073
0
ARC
5
167
100
AcDbEntity
8
0
100
AcDbCircle
10
3.2701476421659237
20
-0.23696391410773818
30
0
40
0.50000000000000089
100
AcDbArc
50
-149.19642295128159
51
19.325252208521668
0
ARC
5
168
100
AcDbEntity
8
0
100
AcDbCircle
10
4.3292413953573945
20
-2.5015472997084736
30
0
40
2.5000034976813805
100
AcDbArc
50
91.780077240076736
51
103.58608978700718
0
ARC
5
169
100
AcDbEntity
8
0
100
AcDbCircle
10
4.7515821440217021
20
-0.0016942338851288271
30
0
40
0.50000000000000289
100
AcDbArc
50
180.12101046988471
51
359.97957050064383
0
LINE
5
170
100
AcDbEntity
8
0
100
AcDbLine
10
5.2515821122375828
20
-0.0018725148955259572
30
0
11
7.0610000355711868
21
-0.0025176846694097144
31
0
0
ARC
5
171
100
AcDbEntity
8
0
100
AcDbCircle
10
7.6200000000365362
20
-0.002717002851252483
30
0
40
0.55899999999999994
100
AcDbArc
50
179.97957049939501
51
359.97957050053679
0
LINE
5
172
100
AcDbEntity
8
0
100
AcDbLine
10
8.1789999645018909
20
-0.0029163210220434777
30
0
11
17.221000035593107
21
-0.0061403551526262312
31
0
0
ARC
5
173
100
AcDbEntity
8
0
100
AcDbCircle
10
17.780000000058461
20
-0.0063396733305494442
30
0
40
0.55900000000000072
100
AcDbArc
50
179.97957049980531
51
359.97957050012639
0
LINE
5
174
100
AcDbEntity
8
0
100
AcDbLine
10
18.338999964523815
20
-0.006538991505260737
30
0
11
20.148417887867332
21
-0.0071841612791478937
31
0
0
ARC
5
175
100
AcDbEntity
8
0
100
AcDbCircle
10
20.648417856083228
20
-0.0073624422457660337
30
0
40
0.49999999999999811
100
AcDbArc
50
179.97957050567473
51
359.8381309090758
0
ARC
5
176
100
AcDbEntity
8
0
100
AcDbCircle
10
21.06897590290945
20
-2.5075159897569255
30
0
40
2.5000034334990056
100
AcDbArc
50
76.373053280068646
51
88.179066253940789
0
ARC
5
177
100
AcDbEntity
8
0
100
AcDbCircle
10
22.129684204792916
20
-0.2436885091659011
30
0
40
0.49999999999999623
100
AcDbArc
50
160.63388601385924
51
329.15557008383541
0
ARC
5
178
100
AcDbEntity
8
0
100
AcDbCircle
10
21.06897590290945
20
-2.5075159897569255
30
0
40
2.5000034334990056
100
AcDbArc
50
41.45789581753003
51
53.416402817626185
0
ARC
5
179
100
AcDbEntity
8
0
100
AcDbCircle
10
23.234487895414446
20
-1.2582863635839381
30
0
40
0.49999999999999922
100
AcDbArc
50
125.7187259030775
51
294.24041516361041
0
ARC
5
180
100
AcDbEntity
8
0
100
AcDbCircle
10
21.06897590290945
20
-2.5075159897569255
30
0
40
2.5000034334990051
100
AcDbArc
50
6.5427382496318343
51
18.501245249158146
0
ARC
5
181
100
AcDbEntity
8
0
100
AcDbCircle
10
23.559709409881634
20
-2.7226056482704775
30
0
40
0.49999999999999911
100
AcDbArc
50
90.803570992401589
51
259.32525504477906
0
ARC
5
182
100
AcDbEntity
8
0
100
AcDbCircle
10
21.06897590290945
20
-2.5075159897569255
30
0
40
2.5000034334990047
100
AcDbArc
50
331.7800747423081
51
343.58608778754848
0
ARC
5
183
100
AcDbEntity
8
0
100
AcDbCircle
10
23.02274167845475
20
-4.123200404158875
30
0
40
0.49999999999999845
100
AcDbArc
50
60.121010104385142
51
239.97957049352712
0
LINE
5
184
100
AcDbEntity
8
0
100
AcDbLine
10
22.772587298409043
20
-4.5561239379889802
30
0
11
21.867319441844053
21
-6.1228035202627318
31
0
0
ARC
5
185
100
AcDbEntity
8
0
100
AcDbCircle
10
21.587646845009125
20
-6.6068120311172516
30
0
40
0.55900000000000194
100
AcDbArc
50
59.979570500176933
51
239.97957050043379
0
LINE
5
186
100
AcDbEntity
8
0
100
AcDbLine
10
21.307974248176368
20
-7.0908205419730237
30
0
11
16.78418244036088
21
-14.919809728283532
31
0
0
ARC
5
187
100
AcDbEntity
8
0
100
AcDbCircle
10
16.504509843525859
20
-15.403818239137998
30
0
40
0.5590000000000015
100
AcDbArc
50
59.97957050016597
51
239.9795705004457
0
LINE
5
188
100
AcDbEntity
8
0
100
AcDbLine
10
16.224837246693202
20
-15.887826749993829
30
0
11
15.319569390122524
21
-17.454506332277425
31
0
0
ARC
5
189
100
AcDbEntity
8
0
100
AcDbCircle
10
15.06941501017897
20
-17.887429866166556
30
0
40
0.5
100
AcDbArc
50
59.979570507046631
51
239.83813614982367
0
ENDSEC
0
SECTION
2
OBJECTS
0
DICTIONARY
5
C
100
AcDbDictionary
3
ACAD_GROUP
350
D
3
ACAD_MLINESTYLE
350
17
0
DICTIONARY
5
D
100
AcDbDictionary
0
DICTIONARY
5
1A
330
C
100
AcDbDictionary
0
DICTIONARY
5
17
100
AcDbDictionary
0
ENDSEC
0
EOF
