0
SECTION
2
HEADER
9
$INSUNITS
70
4
9
$ACADVER
1
AC1014
9
$HANDSEED
5
FFFF
0
ENDSEC
0
SECTION
2
TABLES
0
TABLE
2
VPORT
5
8
100
AcDbSymbolTable
0
ENDTAB
0
TABLE
2
LTYPE
5
5
100
AcDbSymbolTable
0
LTYPE
5
14
100
AcDbSymbolTableRecord
100
AcDbLinetypeTableRecord
2
BYBLOCK
70
0
0
LTYPE
5
15
100
AcDbSymbolTableRecord
100
AcDbLinetypeTableRecord
2
BYLAYER
70
0
0
ENDTAB
0
TABLE
2
LAYER
5
2
100
AcDbSymbolTable
70
2
0
LAYER
5
50
100
AcDbSymbolTableRecord
100
AcDbLayerTableRecord
2
0
70
0
6
CONTINUOUS
0
ENDTAB
0
TABLE
2
STYLE
5
3
100
AcDbSymbolTable
70
1
0
STYLE
5
11
100
AcDbSymbolTableRecord
100
AcDbTextStyleTableRecord
2
STANDARD
70
0
0
ENDTAB
0
TABLE
2
VIEW
5
6
100
AcDbSymbolTable
70
0
0
ENDTAB
0
TABLE
2
UCS
5
7
100
AcDbSymbolTable
70
0
0
ENDTAB
0
TABLE
2
APPID
5
9
100
AcDbSymbolTable
70
2
0
APPID
5
12
100
AcDbSymbolTableRecord
100
AcDbRegAppTableRecord
2
ACAD
70
0
0
ENDTAB
0
TABLE
2
DIMSTYLE
5
A
100
AcDbSymbolTable
70
1
0
ENDTAB
0
TABLE
2
BLOCK_RECORD
5
1
100
AcDbSymbolTable
70
1
0
BLOCK_RECORD
5
1F
100
AcDbSymbolTableRecord
100
AcDbBlockTableRecord
2
*MODEL_SPACE
0
BLOCK_RECORD
5
1B
100
AcDbSymbolTableRecord
100
AcDbBlockTableRecord
2
*PAPER_SPACE
0
ENDTAB
0
ENDSEC
0
SECTION
2
BLOCKS
0
BLOCK
5
20
100
AcDbEntity
100
AcDbBlockBegin
2
*MODEL_SPACE
0
ENDBLK
5
21
100
AcDbEntity
100
AcDbBlockEnd
0
BLOCK
5
1C
100
AcDbEntity
100
AcDbBlockBegin
2
*PAPER_SPACE
0
ENDBLK
5
1D
100
AcDbEntity
100
AcDbBlockEnd
0
ENDSEC
0
SECTION
2
ENTITIES
0
LINE
5
100
100
AcDbEntity
8
0
100
AcDbLine
10
38.100000000000001
20
0
30
0
11
45.949031657123655
21
24.156835513896922
31
0
0
LINE
5
101
100
AcDbEntity
8
0
100
AcDbLine
10
45.949031657123655
20
24.156835513896922
30
0
11
25.399999999999974
21
39.086580922125705
31
0
0
LINE
5
102
100
AcDbEntity
8
0
100
AcDbLine
10
25.399999999999974
20
39.086580922125705
30
0
11
4.8509683428763264
21
24.156835513896905
31
0
0
LINE
5
103
100
AcDbEntity
8
0
100
AcDbLine
10
4.8509683428763264
20
24.156835513896905
30
0
11
12.699999999999999
21
0
31
0
0
LINE
5
104
100
AcDbEntity
8
0
100
AcDbLine
10
12.699999999999999
20
0
30
0
11
38.100000000000001
21
0
31
0
0
LINE
5
105
100
AcDbEntity
8
0
100
AcDbLine
10
12.699999999999999
20
0
30
0
11
25.399999999999977
21
17.480050389983912
31
0
0
LINE
5
106
100
AcDbEntity
8
0
100
AcDbLine
10
25.399999999999977
20
17.480050389983912
30
0
11
38.100000000000001
21
0
31
0
0
LINE
5
107
100
AcDbEntity
8
0
100
AcDbLine
10
45.949031657123655
20
24.156835513896922
30
0
11
25.399999999999977
21
17.480050389983912
31
0
0
LINE
5
108
100
AcDbEntity
8
0
100
AcDbLine
10
25.399999999999977
20
17.480050389983912
30
0
11
25.399999999999974
21
39.086580922125705
31
0
0
LINE
5
109
100
AcDbEntity
8
0
100
AcDbLine
10
25.399999999999977
20
17.480050389983912
30
0
11
4.8509683428763264
21
24.156835513896905
31
0
0
LINE
5
110
100
AcDbEntity
8
0
100
AcDbLine
10
22.859999999999893
20
20.020050389984085
30
0
11
27.940000000000097
21
20.020050389984078
31
0
0
LINE
5
111
100
AcDbEntity
8
0
100
AcDbLine
10
27.940000000000097
20
20.020050389984078
30
0
11
27.940000000000126
21
14.940050389983774
31
0
0
LINE
5
112
100
AcDbEntity
8
0
100
AcDbLine
10
22.859999999999875
20
14.940050389983774
30
0
11
22.859999999999893
21
20.020050389984085
31
0
0
LINE
5
113
100
AcDbEntity
8
0
100
AcDbLine
10
22.859999999999875
20
14.940050389983774
30
0
11
27.940000000000097
21
20.020050389984078
31
0
0
CIRCLE
5
114
100
AcDbEntity
8
0
100
AcDbCircle
10
25.399999999999977
20
17.480050389983912
30
0
40
2.54
0
LINE
5
115
100
AcDbEntity
8
0
100
AcDbLine
10
27.940000000000126
20
14.940050389983774
30
0
11
22.859999999999893
21
20.020050389984085
31
0
0
LINE
5
116
100
AcDbEntity
8
0
100
AcDbLine
10
27.940000000000126
20
14.940050389983774
30
0
11
22.859999999999875
21
14.940050389983774
31
0
0
CIRCLE
5
117
100
AcDbEntity
8
0
100
AcDbCircle
10
14.516356320013369
20
2.4999999999999822
30
0
40
0.80000000000000016
0
ARC
5
118
100
AcDbEntity
8
0
100
AcDbCircle
10
14.516356320013369
20
2.4999999999999822
30
0
40
2.4999999999999831
100
AcDbArc
50
197.99999999999994
51
270.00000876108885
0
CIRCLE
5
119
100
AcDbEntity
8
0
100
AcDbCircle
10
36.283643679986589
20
2.4999999999999956
30
0
40
0.80000000000000016
0
ARC
5
120
100
AcDbEntity
8
0
100
AcDbCircle
10
36.283643679986611
20
2.4999999999999734
30
0
40
2.4999999999999867
100
AcDbArc
50
269.99999999999983
51
342.00000876108868
0
CIRCLE
5
121
100
AcDbEntity
8
0
100
AcDbCircle
10
43.010105395661299
20
23.201920485771637
30
0
40
0.80000000000000016
0
ARC
5
122
100
AcDbEntity
8
0
100
AcDbCircle
10
43.010105395661341
20
23.201920485771641
30
0
40
2.4999999999999654
100
AcDbArc
50
-18.000000000000306
51
54.000008761089013
0
CIRCLE
5
123
100
AcDbEntity
8
0
100
AcDbCircle
10
25.399999999999991
20
35.996410978376261
30
0
40
0.80000000000000016
0
ARC
5
124
100
AcDbEntity
8
0
100
AcDbCircle
10
25.399999999999995
20
35.996410978376261
30
0
40
2.4999999999999836
100
AcDbArc
50
54.000000000000071
51
126.00000876108879
0
CIRCLE
5
125
100
AcDbEntity
8
0
100
AcDbCircle
10
7.7898946043386896
20
23.201920485771641
30
0
40
0.80000000000000016
0
ARC
5
126
100
AcDbEntity
8
0
100
AcDbCircle
10
7.7898946043386497
20
23.201920485771659
30
0
40
2.4999999999999707
100
AcDbArc
50
125.99999999999984
51
198.00000876108919
0
CIRCLE
5
127
100
AcDbEntity
8
0
100
AcDbCircle
10
25.399999999999999
20
0
30
0
40
1
0
CIRCLE
5
128
100
AcDbEntity
8
0
100
AcDbCircle
10
42.024515828561832
20
12.078417756948475
30
0
40
1
0
CIRCLE
5
129
100
AcDbEntity
8
0
100
AcDbCircle
10
35.674515828561795
20
31.621708218011335
30
0
40
1
0
CIRCLE
5
130
100
AcDbEntity
8
0
100
AcDbCircle
10
15.125484171438126
20
31.621708218011317
30
0
40
1
0
CIRCLE
5
131
100
AcDbEntity
8
0
100
AcDbCircle
10
8.7754841714381442
20
12.07841775694844
30
0
40
1
0
ENDSEC
0
SECTION
2
OBJECTS
0
DICTIONARY
5
C
100
AcDbDictionary
3
ACAD_GROUP
350
D
3
ACAD_MLINESTYLE
350
17
0
DICTIONARY
5
D
100
AcDbDictionary
0
DICTIONARY
5
1A
330
C
100
AcDbDictionary
0
DICTIONARY
5
17
100
AcDbDictionary
0
ENDSEC
0
EOF
