0
SECTION
2
HEADER
9
$INSUNITS
70
4
9
$ACADVER
1
AC1014
9
$HANDSEED
5
FFFF
0
ENDSEC
0
SECTION
2
TABLES
0
TABLE
2
VPORT
5
8
100
AcDbSymbolTable
0
ENDTAB
0
TABLE
2
LTYPE
5
5
100
AcDbSymbolTable
0
LTYPE
5
14
100
AcDbSymbolTableRecord
100
AcDbLinetypeTableRecord
2
BYBLOCK
70
0
0
LTYPE
5
15
100
AcDbSymbolTableRecord
100
AcDbLinetypeTableRecord
2
BYLAYER
70
0
0
ENDTAB
0
TABLE
2
LAYER
5
2
100
AcDbSymbolTable
70
2
0
LAYER
5
50
100
AcDbSymbolTableRecord
100
AcDbLayerTableRecord
2
0
70
0
6
CONTINUOUS
0
ENDTAB
0
TABLE
2
STYLE
5
3
100
AcDbSymbolTable
70
1
0
STYLE
5
11
100
AcDbSymbolTableRecord
100
AcDbTextStyleTableRecord
2
STANDARD
70
0
0
ENDTAB
0
TABLE
2
VIEW
5
6
100
AcDbSymbolTable
70
0
0
ENDTAB
0
TABLE
2
UCS
5
7
100
AcDbSymbolTable
70
0
0
ENDTAB
0
TABLE
2
APPID
5
9
100
AcDbSymbolTable
70
2
0
APPID
5
12
100
AcDbSymbolTableRecord
100
AcDbRegAppTableRecord
2
ACAD
70
0
0
ENDTAB
0
TABLE
2
DIMSTYLE
5
A
100
AcDbSymbolTable
70
1
0
ENDTAB
0
TABLE
2
BLOCK_RECORD
5
1
100
AcDbSymbolTable
70
1
0
BLOCK_RECORD
5
1F
100
AcDbSymbolTableRecord
100
AcDbBlockTableRecord
2
*MODEL_SPACE
0
BLOCK_RECORD
5
1B
100
AcDbSymbolTableRecord
100
AcDbBlockTableRecord
2
*PAPER_SPACE
0
ENDTAB
0
ENDSEC
0
SECTION
2
BLOCKS
0
BLOCK
5
20
100
AcDbEntity
100
AcDbBlockBegin
2
*MODEL_SPACE
0
ENDBLK
5
21
100
AcDbEntity
100
AcDbBlockEnd
0
BLOCK
5
1C
100
AcDbEntity
100
AcDbBlockBegin
2
*PAPER_SPACE
0
ENDBLK
5
1D
100
AcDbEntity
100
AcDbBlockEnd
0
ENDSEC
0
SECTION
2
ENTITIES
0
CIRCLE
5
100
100
AcDbEntity
8
0
100
AcDbCircle
10
22.885000000000005
20
-9.5149999999999952
30
0
40
0.80000000000000071
0
CIRCLE
5
101
100
AcDbEntity
8
0
100
AcDbCircle
10
2.4889999999999999
20
-29.911000000000001
30
0
40
0.80000000000000016
0
CIRCLE
5
102
100
AcDbEntity
8
0
100
AcDbCircle
10
22.911000000000001
20
-29.885000000000002
30
0
40
0.80000000000000071
0
CIRCLE
5
103
100
AcDbEntity
8
0
100
AcDbCircle
10
2.4889999999999999
20
-9.5149999999999952
30
0
40
0.80000000000000016
0
LWPOLYLINE
5
104
100
AcDbEntity
8
0
100
AcDbPolyline
90
80
70
1
43
0.0
10
24.97308935733173
20
-8.1305840330365946
42
-0.051332184772670209
10
25.215895331887893
20
-8.5906016720107097
42
0.90612094981547375
10
25.400000000000006
20
-9.5685840779954496
10
25.400000000000006
20
-10.069864732220722
42
0.99999999999999989
10
25.400000000000006
20
-11.069864732220719
10
25.399999999999999
20
-14.061000000000002
42
0.99999999999999989
10
25.400000000000009
20
-15.178999999999998
10
25.399999999999999
20
-16.601000000000003
42
0.99999999999999989
10
25.399999999999999
20
-17.718999999999998
10
25.399999999999999
20
-19.141000000000002
42
0.99999999999999989
10
25.400000000000009
20
-20.259
10
25.399999999999999
20
-21.680999999999997
42
0.99999999999999989
10
25.400000000000009
20
-22.798999999999999
10
25.399999999999999
20
-24.221000000000004
42
0.99999999999999989
10
25.399999999999999
20
-25.338999999999995
10
25.399999999999999
20
-28.330135267779283
42
0.99999999999999989
10
25.399999999999999
20
-29.330135267779276
10
25.399999999999999
20
-29.831415922004545
42
0.90612094981546865
10
25.215895331887893
20
-30.809398327989285
42
-0.051332184772670764
10
24.97308935733173
20
-31.269415966963404
42
0.90597380230661828
10
24.269415966963386
20
-31.973089357331737
42
-0.051331342567369202
10
23.809406243716502
20
-32.21589214192673
42
0.90611950546398479
10
22.831407396399086
20
-32.400000000000006
10
22.330143760658142
20
-32.400000000000006
42
0.99999999999999989
10
21.330126774900414
20
-32.400000000000006
10
18.339000000000002
20
-32.400000000000006
42
0.99999999999999989
10
17.221
20
-32.400000000000006
10
15.799000000000001
20
-32.400000000000006
42
0.99999999999999989
10
14.680999999999999
20
-32.400000000000006
10
13.259
20
-32.400000000000006
42
0.99999999999999989
10
12.141
20
-32.400000000000006
10
10.719000000000001
20
-32.400000000000006
42
0.99999999999999989
10
9.6009999999999991
20
-32.400000000000006
10
8.1790000000000003
20
-32.400000000000006
42
0.99999999999999989
10
7.0609999999999999
20
-32.400000000000006
10
4.0698732250995899
20
-32.400000000000006
42
0.99999999999999989
10
3.0698562393418594
20
-32.400000000000006
10
2.568592603600913
20
-32.400000000000006
42
0.90611950546398523
10
1.5905937562835
20
-32.21589214192673
42
-0.051331342567368647
10
1.1305840330366186
20
-31.973089357331741
42
0.90597380230661462
10
0.42691064266827305
20
-31.269415966963408
42
-0.051332184772670431
10
0.1841046681121114
20
-30.809398327989289
42
0.90612094981546865
10
4.3368086899420177e-16
20
-29.831415922004542
10
3.2307960251471562e-17
20
-29.330135267779276
42
0.99999999999999989
10
1.691790272787732e-18
20
-28.330135267779283
10
0
20
-25.338999999999999
42
0.99999999999999989
10
3.4228878036168557e-17
20
-24.220999999999997
10
-9.1235504394438075e-17
20
-22.798999999999999
42
0.99999999999999989
10
3.7534718880294952e-17
20
-21.680999999999997
10
-5.8348074635783761e-17
20
-20.259
42
0.99999999999999989
10
6.3267064821848486e-17
20
-19.140999999999998
10
-2.5460644877128707e-17
20
-17.719000000000001
42
0.99999999999999989
10
1.447468303694743e-15
20
-16.600999999999999
10
0
20
-15.179
42
0.99999999999999989
10
2.8717485937566065e-15
20
-14.061
10
-2.9652942062364517e-15
20
-11.069864732220722
42
0.99999999999999989
10
-4.106133400840292e-15
20
-10.069864732220719
10
-4.3801767768414379e-15
20
-9.5685840779954514
42
0.90612094981547719
10
0.18410466811210754
20
-8.5906016720107097
42
-0.051332184772670209
10
0.42691064266826806
20
-8.1305840330365946
42
0.9059738023066235
10
1.1305840330366166
20
-7.4269106426682541
42
-0.051331342567368425
10
1.5905937562834971
20
-7.184107858073264
42
0.90611950546398667
10
2.568592603600913
20
-6.9999999999999947
10
3.0698562393418594
20
-6.9999999999999947
42
0.99999999999999989
10
4.0698732250995899
20
-6.9999999999999947
10
7.0609999999999999
20
-6.9999999999999947
42
0.99999999999999989
10
8.1790000000000003
20
-6.9999999999999947
10
9.6009999999999991
20
-6.9999999999999947
42
0.99999999999999989
10
10.719000000000001
20
-6.9999999999999947
10
12.141
20
-6.9999999999999947
42
0.99999999999999989
10
13.259
20
-6.9999999999999947
10
14.680999999999999
20
-6.9999999999999947
42
0.99999999999999989
10
15.799000000000001
20
-6.9999999999999947
10
17.221
20
-6.9999999999999947
42
0.99999999999999989
10
18.339000000000002
20
-6.9999999999999947
10
21.330126774900414
20
-6.9999999999999947
42
0.99999999999999989
10
22.330143760658142
20
-6.9999999999999947
10
22.831407396399086
20
-6.9999999999999947
42
0.90611950546398701
10
23.809406243716502
20
-7.184107858073264
42
-0.05133134256736898
10
24.269415966963386
20
-7.4269106426682558
42
0.90597380230662594
0
ENDSEC
0
SECTION
2
OBJECTS
0
DICTIONARY
5
C
100
AcDbDictionary
3
ACAD_GROUP
350
D
3
ACAD_MLINESTYLE
350
17
0
DICTIONARY
5
D
100
AcDbDictionary
0
DICTIONARY
5
1A
330
C
100
AcDbDictionary
0
DICTIONARY
5
17
100
AcDbDictionary
0
ENDSEC
0
EOF
