0
SECTION
2
HEADER
9
$INSUNITS
70
4
9
$ACADVER
1
AC1014
9
$HANDSEED
5
FFFF
0
ENDSEC
0
SECTION
2
TABLES
0
TABLE
2
VPORT
5
8
100
AcDbSymbolTable
0
ENDTAB
0
TABLE
2
LTYPE
5
5
100
AcDbSymbolTable
0
LTYPE
5
14
100
AcDbSymbolTableRecord
100
AcDbLinetypeTableRecord
2
BYBLOCK
70
0
0
LTYPE
5
15
100
AcDbSymbolTableRecord
100
AcDbLinetypeTableRecord
2
BYLAYER
70
0
0
ENDTAB
0
TABLE
2
LAYER
5
2
100
AcDbSymbolTable
70
2
0
LAYER
5
50
100
AcDbSymbolTableRecord
100
AcDbLayerTableRecord
2
0
70
0
6
CONTINUOUS
0
ENDTAB
0
TABLE
2
STYLE
5
3
100
AcDbSymbolTable
70
1
0
STYLE
5
11
100
AcDbSymbolTableRecord
100
AcDbTextStyleTableRecord
2
STANDARD
70
0
0
ENDTAB
0
TABLE
2
VIEW
5
6
100
AcDbSymbolTable
70
0
0
ENDTAB
0
TABLE
2
UCS
5
7
100
AcDbSymbolTable
70
0
0
ENDTAB
0
TABLE
2
APPID
5
9
100
AcDbSymbolTable
70
2
0
APPID
5
12
100
AcDbSymbolTableRecord
100
AcDbRegAppTableRecord
2
ACAD
70
0
0
ENDTAB
0
TABLE
2
DIMSTYLE
5
A
100
AcDbSymbolTable
70
1
0
ENDTAB
0
TABLE
2
BLOCK_RECORD
5
1
100
AcDbSymbolTable
70
1
0
BLOCK_RECORD
5
1F
100
AcDbSymbolTableRecord
100
AcDbBlockTableRecord
2
*MODEL_SPACE
0
BLOCK_RECORD
5
1B
100
AcDbSymbolTableRecord
100
AcDbBlockTableRecord
2
*PAPER_SPACE
0
ENDTAB
0
ENDSEC
0
SECTION
2
BLOCKS
0
BLOCK
5
20
100
AcDbEntity
100
AcDbBlockBegin
2
*MODEL_SPACE
0
ENDBLK
5
21
100
AcDbEntity
100
AcDbBlockEnd
0
BLOCK
5
1C
100
AcDbEntity
100
AcDbBlockBegin
2
*PAPER_SPACE
0
ENDBLK
5
1D
100
AcDbEntity
100
AcDbBlockEnd
0
ENDSEC
0
SECTION
2
ENTITIES
0
LWPOLYLINE
5
100
100
AcDbEntity
8
0
100
AcDbPolyline
90
4
70
1
43
0.0
10
19.800000000000004
20
-56.959999999999013
10
-45.200000000000017
20
-56.95999999999907
10
-45.199999999999996
20
8.0400000000009939
10
19.800000000000001
20
8.0400000000009886
0
CIRCLE
5
101
100
AcDbEntity
8
0
100
AcDbCircle
10
13.549999999999978
20
1.7129547438752402
30
0
40
2.5
0
CIRCLE
5
102
100
AcDbEntity
8
0
100
AcDbCircle
10
13.550000000000006
20
-50.787045256124763
30
0
40
2.5
0
CIRCLE
5
103
100
AcDbEntity
8
0
100
AcDbCircle
10
-38.949999999999989
20
1.712954743875239
30
0
40
2.5
0
CIRCLE
5
104
100
AcDbEntity
8
0
100
AcDbCircle
10
-38.949999999999989
20
-50.787045256124735
30
0
40
2.5
0
LINE
5
105
100
AcDbEntity
8
0
100
AcDbLine
10
6.4165636198660891
20
-3.4938141996094219
30
0
11
15.082254482581124
21
-18.503231056512988
31
0
0
ARC
5
106
100
AcDbEntity
8
0
100
AcDbCircle
10
13.982402219774954
20
-19.13823105651317
30
0
40
1.2700000000000018
100
AcDbArc
50
-150.00000000000716
51
30.000000000008654
0
LINE
5
107
100
AcDbEntity
8
0
100
AcDbLine
10
12.882549956968637
20
-19.773231056513033
30
0
11
4.2168590942568223
21
-4.763814199607614
31
0
0
ARC
5
108
100
AcDbEntity
8
0
100
AcDbCircle
10
5.3167113570622959
20
-4.1288141996099732
30
0
40
1.2699999999981595
100
AcDbArc
50
30.000000000076671
51
209.99999999992502
0
LWPOLYLINE
5
109
100
AcDbEntity
8
0
100
AcDbPolyline
90
4
70
1
43
0.0
10
10.865395388325663
20
-23.267045256124565
42
-0.99999999999999989
10
10.865395388325684
20
-25.807045256124571
10
-6.4659863371007393
20
-25.807045256124557
42
-0.99999999999999989
10
-6.4659863371007003
20
-23.267045256124561
0
LINE
5
110
100
AcDbEntity
8
0
100
AcDbLine
10
15.082254482580959
20
-30.570859455732517
30
0
11
6.4165636198696108
21
-45.580276312638205
31
0
0
ARC
5
111
100
AcDbEntity
8
0
100
AcDbCircle
10
5.3167113570632507
20
-44.945276312638356
30
0
40
1.2700000000000025
100
AcDbArc
50
149.99999999999349
51
330.00000000000864
0
LINE
5
112
100
AcDbEntity
8
0
100
AcDbLine
10
4.2168590942570843
20
-44.31027631263823
30
0
11
12.882549956971655
21
-29.30085945573439
31
0
0
ARC
5
113
100
AcDbEntity
8
0
100
AcDbCircle
10
13.982402219775466
20
-29.93585945573491
30
0
40
1.2699999999981593
100
AcDbArc
50
-29.999999999923276
51
149.99999999992494
0
LWPOLYLINE
5
114
100
AcDbEntity
8
0
100
AcDbPolyline
90
4
70
1
43
0.0
10
0.1825499569692246
20
-44.310276312639346
42
-0.99999999999999989
10
-2.0171545686432379
20
-45.580276312639356
10
-10.682845431356442
20
-30.570859455734706
42
-0.99999999999999989
10
-8.4831409057439551
20
-29.300859455734724
0
LWPOLYLINE
5
115
100
AcDbEntity
8
0
100
AcDbPolyline
90
4
70
1
43
0.0
10
-21.365690862711503
20
-51.614090512249973
10
-4.0343091372851125
20
-51.614090512247834
42
0.99999999999999989
10
-4.0343091372851525
20
-49.074090512251523
10
-21.365690862711539
20
-49.074090512249946
42
0.99999999999999989
0
ARC
5
116
100
AcDbEntity
8
0
100
AcDbCircle
10
-24.482697694162692
20
-44.945276312639535
30
0
40
1.2699999999999996
100
AcDbArc
50
150.0000000000008
51
330.00000000000057
0
LINE
5
117
100
AcDbEntity
8
0
100
AcDbLine
10
-25.582549956968936
20
-44.310276312639552
30
0
11
-16.916859094255756
21
-29.300859455734912
31
0
0
ARC
5
118
100
AcDbEntity
8
0
100
AcDbCircle
10
-15.81700683144949
20
-29.935859455734892
30
0
40
1.2699999999999978
100
AcDbArc
50
-30.000000000001084
51
150.00000000000142
0
LINE
5
119
100
AcDbEntity
8
0
100
AcDbLine
10
-14.717154568643267
20
-30.570859455734912
30
0
11
-23.382845431356447
21
-45.580276312639526
31
0
0
LINE
5
120
100
AcDbEntity
8
0
100
AcDbLine
10
-31.816563619866088
20
-45.580276312640073
30
0
11
-40.482254482581141
21
-30.570859455736507
31
0
0
ARC
5
121
100
AcDbEntity
8
0
100
AcDbCircle
10
-39.38240221977496
20
-29.93585945573632
30
0
40
1.2700000000000009
100
AcDbArc
50
29.999999999993033
51
210.00000000000855
0
LINE
5
122
100
AcDbEntity
8
0
100
AcDbLine
10
-38.282549956968651
20
-29.300859455736457
30
0
11
-29.616859094256824
21
-44.310276312641875
31
0
0
ARC
5
123
100
AcDbEntity
8
0
100
AcDbCircle
10
-30.716711357062294
20
-44.945276312639528
30
0
40
1.2699999999981562
100
AcDbArc
50
-149.9999999999236
51
29.999999999925606
0
LWPOLYLINE
5
124
100
AcDbEntity
8
0
100
AcDbPolyline
90
4
70
1
43
0.0
10
-36.265395388325679
20
-25.807045256124923
42
-0.99999999999999989
10
-36.2653953883257
20
-23.267045256124923
10
-18.934013662899275
20
-23.267045256124923
42
-0.99999999999999989
10
-18.934013662899311
20
-25.807045256124923
0
LWPOLYLINE
5
125
100
AcDbEntity
8
0
100
AcDbPolyline
90
4
70
1
43
0.0
10
-31.816563619869633
20
-3.4938141996112759
10
-40.482254482580977
20
-18.503231056516974
42
0.99999999999999989
10
-38.282549956971664
20
-19.773231056515105
10
-29.616859094257109
20
-4.7638141996112617
42
0.99999999999999989
0
ARC
5
126
100
AcDbEntity
8
0
100
AcDbCircle
10
-24.482697694163001
20
-4.1288141996101393
30
0
40
1.2700000000000002
100
AcDbArc
50
30.000000000000551
51
210.00000000000051
0
LINE
5
127
100
AcDbEntity
8
0
100
AcDbLine
10
-23.38284543135677
20
-3.4938141996101288
30
0
11
-14.717154568643572
21
-18.503231056514743
31
0
0
ARC
5
128
100
AcDbEntity
8
0
100
AcDbCircle
10
-15.817006831449806
20
-19.138231056514769
30
0
40
1.2700000000000022
100
AcDbArc
50
-150.00000000000077
51
30.000000000001098
0
LINE
5
129
100
AcDbEntity
8
0
100
AcDbLine
10
-16.916859094256054
20
-19.773231056514756
30
0
11
-25.582549956969235
21
-4.7638141996101506
31
0
0
LWPOLYLINE
5
130
100
AcDbEntity
8
0
100
AcDbPolyline
90
4
70
1
43
0.0
10
-4.034309137288508
20
2.5400000000004939
10
-21.365690862714896
20
2.5399999999983542
42
0.99999999999999989
10
-21.365690862714857
20
2.0359737990037232e-12
10
-4.0343091372884698
20
4.5796699765787707e-13
42
0.99999999999999989
0
ARC
5
131
100
AcDbEntity
8
0
100
AcDbCircle
10
-9.5829931685502014
20
-19.138231056514773
30
0
40
1.2700000000000005
100
AcDbArc
50
150.00000000008433
51
329.99999879266608
0
LINE
5
132
100
AcDbEntity
8
0
100
AcDbLine
10
-10.682845431357373
20
-18.503231056516391
30
0
11
-2.0171545686462777
21
-3.4938141996105432
31
0
0
ARC
5
133
100
AcDbEntity
8
0
100
AcDbCircle
10
-0.91730230583785244
20
-4.1288141996094954
30
0
40
1.27
100
AcDbArc
50
-30.000000000083318
51
150.0000000000903
0
LINE
5
134
100
AcDbEntity
8
0
100
AcDbLine
10
0.18254995696746101
20
-4.7638141996110948
30
0
11
-8.4831409057464171
21
-19.773231056515332
31
0
0
CIRCLE
5
135
100
AcDbEntity
8
0
100
AcDbCircle
10
-12.700000000000005
20
-24.537045256124742
30
0
40
1.27
0
CIRCLE
5
136
100
AcDbEntity
8
0
100
AcDbCircle
10
-12.700000000000005
20
-24.537045256124742
30
0
40
1.27
0
ARC
5
137
100
AcDbEntity
8
0
100
AcDbCircle
10
-9.5829931685501997
20
-19.138231056514769
30
0
40
1.2700000000000005
100
AcDbArc
50
150.00000000008453
51
329.99999999992281
0
LINE
5
138
100
AcDbEntity
8
0
100
AcDbLine
10
-8.4831409057448184
20
-19.773231056516252
30
0
11
0.18254995696864285
21
-4.7638141996117778
31
0
0
ARC
5
139
100
AcDbEntity
8
0
100
AcDbCircle
10
-0.91730230583785255
20
-4.1288141996094954
30
0
40
1.2700000000013651
100
AcDbArc
50
-30.000000000083318
51
150.0000000000903
0
LINE
5
140
100
AcDbEntity
8
0
100
AcDbLine
10
-2.0171545686450907
20
-3.4938141996112284
30
0
11
-10.682845431357373
21
-18.503231056516391
31
0
0
LWPOLYLINE
5
141
100
AcDbEntity
8
0
100
AcDbPolyline
90
4
70
1
43
0.0
10
-21.365690862714896
20
2.5399999999983542
10
-4.0343091372881625
20
2.5400000000004939
42
-0.99999999999999989
10
-4.0343091372884698
20
4.2304332518148212e-13
10
-21.365690862711496
20
2.0367041386748497e-12
42
-0.99999999999999989
0
ARC
5
142
100
AcDbEntity
8
0
100
AcDbCircle
10
-24.482697694163001
20
-4.1288141996101384
30
0
40
1.269999999999996
100
AcDbArc
50
30.000000000000718
51
209.99999999999929
0
LINE
5
143
100
AcDbEntity
8
0
100
AcDbLine
10
-25.582549956969245
20
-4.7638141996101249
30
0
11
-16.916859094256079
21
-19.773231056514771
31
0
0
ARC
5
144
100
AcDbEntity
8
0
100
AcDbCircle
10
-15.817006831449806
20
-19.138231056514769
30
0
40
1.270000000000032
100
AcDbArc
50
-150.00000000000077
51
30.000000000001251
0
LINE
5
145
100
AcDbEntity
8
0
100
AcDbLine
10
-14.717154568643585
20
-18.503231056514746
30
0
11
-23.382845431356778
21
-3.493814199610128
31
0
0
LWPOLYLINE
5
146
100
AcDbEntity
8
0
100
AcDbPolyline
90
4
70
1
43
0.0
10
-45.200000000000017
20
-56.959999999999084
10
19.800000000000001
20
-56.959999999999013
10
19.800000000000004
20
8.0400000000009886
10
-45.199999999999996
20
8.0400000000009886
0
LINE
5
147
100
AcDbEntity
8
0
100
AcDbLine
10
-31.816563619869633
20
-3.4938141996112759
30
0
11
-40.482254482580977
21
-18.503231056516974
31
0
0
ARC
5
148
100
AcDbEntity
8
0
100
AcDbCircle
10
-39.382402219775486
20
-19.138231056514581
30
0
40
1.2699999999981593
100
AcDbArc
50
150.00000000007671
51
329.99999999992514
0
LINE
5
149
100
AcDbEntity
8
0
100
AcDbLine
10
-38.28254995697008
20
-19.773231056516018
30
0
11
-29.616859094257077
21
-4.7638141996112786
31
0
0
ARC
5
150
100
AcDbEntity
8
0
100
AcDbCircle
10
-30.716711357063268
20
-4.1288141996111278
30
0
40
1.2700000000000353
100
AcDbArc
50
-30.000000000006938
51
150.00000000000867
0
LWPOLYLINE
5
151
100
AcDbEntity
8
0
100
AcDbPolyline
90
4
70
1
43
0.0
10
-36.265395388325672
20
-25.807045256124923
42
-0.99999999999999989
10
-36.2653953883257
20
-23.267045256124923
10
-18.934013662899282
20
-23.267045256124895
42
-0.99999999999999989
10
-18.934013662899311
20
-25.807045256124951
0
LINE
5
152
100
AcDbEntity
8
0
100
AcDbLine
10
-40.482254482581141
20
-30.570859455736507
30
0
11
-31.816563619866088
21
-45.580276312640073
31
0
0
ARC
5
153
100
AcDbEntity
8
0
100
AcDbCircle
10
-30.716711357062294
20
-44.945276312639521
30
0
40
1.2699999999981606
100
AcDbArc
50
-149.99999999992332
51
29.999999999924881
0
LINE
5
154
100
AcDbEntity
8
0
100
AcDbLine
10
-29.616859094255229
20
-44.310276312640966
30
0
11
-38.282549956968616
21
-29.30085945573644
31
0
0
ARC
5
155
100
AcDbEntity
8
0
100
AcDbCircle
10
-39.38240221977496
20
-29.93585945573632
30
0
40
1.2700000000000367
100
AcDbArc
50
29.999999999992919
51
210.00000000000855
0
LWPOLYLINE
5
156
100
AcDbEntity
8
0
100
AcDbPolyline
90
4
70
1
43
0.0
10
-23.382845431356451
20
-45.580276312639512
42
-0.99999999999999989
10
-25.582549956968933
20
-44.310276312639544
10
-16.916859094255745
20
-29.300859455734859
42
-0.99999999999999989
10
-14.717154568643238
20
-30.570859455734926
0
LWPOLYLINE
5
157
100
AcDbEntity
8
0
100
AcDbPolyline
90
4
70
1
43
0.0
10
-4.0343091372851125
20
-51.614090512247834
10
-21.365690862711851
20
-51.614090512249973
42
-0.99999999999999989
10
-21.365690862711539
20
-49.07409051224991
10
-4.0343091372885143
20
-49.07409051225153
42
-0.99999999999999989
0
ARC
5
158
100
AcDbEntity
8
0
100
AcDbCircle
10
-0.91730230583700667
20
-44.945276312639351
30
0
40
1.2699999999999987
100
AcDbArc
50
-149.99999999999932
51
29.999999999999595
0
LINE
5
159
100
AcDbEntity
8
0
100
AcDbLine
10
0.18254995696923265
20
-44.31027631263936
30
0
11
-8.4831409057439267
21
-29.30085945573471
31
0
0
ARC
5
160
100
AcDbEntity
8
0
100
AcDbCircle
10
-9.5829931685501997
20
-29.935859455734715
30
0
40
1.2700000000000333
100
AcDbArc
50
29.999999999999382
51
210.00000000000102
0
LINE
5
161
100
AcDbEntity
8
0
100
AcDbLine
10
-10.682845431356425
20
-30.570859455734734
30
0
11
-2.0171545686432348
21
-45.580276312639363
31
0
0
LINE
5
162
100
AcDbEntity
8
0
100
AcDbLine
10
6.4165636198696108
20
-45.580276312638205
30
0
11
15.082254482580959
21
-30.570859455732517
31
0
0
ARC
5
163
100
AcDbEntity
8
0
100
AcDbCircle
10
13.982402219775468
20
-29.93585945573491
30
0
40
1.2699999999981573
100
AcDbArc
50
-29.999999999923325
51
149.99999999992514
0
LINE
5
164
100
AcDbEntity
8
0
100
AcDbLine
10
12.882549956970061
20
-29.300859455733473
30
0
11
4.2168590942570567
21
-44.310276312638209
31
0
0
ARC
5
165
100
AcDbEntity
8
0
100
AcDbCircle
10
5.3167113570632472
20
-44.945276312638356
30
0
40
1.2700000000000322
100
AcDbArc
50
149.99999999999321
51
330.00000000000881
0
LWPOLYLINE
5
166
100
AcDbEntity
8
0
100
AcDbPolyline
90
4
70
1
43
0.0
10
10.865395388325663
20
-23.267045256124575
42
-0.99999999999999989
10
10.865395388325684
20
-25.807045256124571
10
-6.4659863371007358
20
-25.807045256124592
42
-0.99999999999999989
10
-6.4659863371007003
20
-23.267045256124526
0
LINE
5
167
100
AcDbEntity
8
0
100
AcDbLine
10
15.082254482581124
20
-18.503231056512988
30
0
11
6.4165636198660891
21
-3.4938141996094219
31
0
0
ARC
5
168
100
AcDbEntity
8
0
100
AcDbCircle
10
5.3167113570622959
20
-4.1288141996099732
30
0
40
1.2699999999981595
100
AcDbArc
50
30.000000000076671
51
209.99999999992508
0
LINE
5
169
100
AcDbEntity
8
0
100
AcDbLine
10
4.2168590942552298
20
-4.7638141996085341
30
0
11
12.882549956968605
21
-19.773231056513055
31
0
0
ARC
5
170
100
AcDbEntity
8
0
100
AcDbCircle
10
13.982402219774952
20
-19.13823105651317
30
0
40
1.2700000000000367
100
AcDbArc
50
-150.00000000000705
51
30.000000000008619
0
CIRCLE
5
171
100
AcDbEntity
8
0
100
AcDbCircle
10
-38.949999999999989
20
-50.787045256124735
30
0
40
2.5
0
CIRCLE
5
172
100
AcDbEntity
8
0
100
AcDbCircle
10
-38.949999999999989
20
1.712954743875239
30
0
40
2.5
0
CIRCLE
5
173
100
AcDbEntity
8
0
100
AcDbCircle
10
13.550000000000006
20
-50.787045256124763
30
0
40
2.5
0
CIRCLE
5
174
100
AcDbEntity
8
0
100
AcDbCircle
10
13.549999999999978
20
1.7129547438752402
30
0
40
2.5
0
ENDSEC
0
SECTION
2
OBJECTS
0
DICTIONARY
5
C
100
AcDbDictionary
3
ACAD_GROUP
350
D
3
ACAD_MLINESTYLE
350
17
0
DICTIONARY
5
D
100
AcDbDictionary
0
DICTIONARY
5
1A
330
C
100
AcDbDictionary
0
DICTIONARY
5
17
100
AcDbDictionary
0
ENDSEC
0
EOF
